<svg width="120" height="94" viewBox="0 0 120 94" fill="none" xmlns="http://www.w3.org/2000/svg">
<path d="M116.076 59.3525C115.205 62.4135 109.785 63.4077 107.431 65.8419C105.26 68.0726 105.139 73.1155 101.921 74.7655C99.0934 76.2277 94.3239 73.7558 90.8486 74.7092C87.7191 75.5582 85.1311 80.1462 81.5904 80.5524C78.331 80.9414 74.8027 77.1094 71.2799 77.083C67.9831 77.0687 64.1682 80.8869 60.7163 80.4921C57.4316 80.121 54.9921 75.6115 51.6377 74.8807C48.2834 74.1498 43.6994 77.1467 40.5972 76.1431C37.3403 75.0761 36.0222 70.1627 33.0994 68.8258C29.9794 67.4151 24.8034 69.3511 22.1258 67.7054C19.2139 65.8998 19.383 60.7915 17.0808 58.7745C14.5303 56.5257 8.98757 56.7787 7.25324 54.3345C5.3155 51.5751 7.90134 47.0808 7.18347 44.2156C6.41681 41.0987 2.17694 38.0017 3.0478 34.9406C3.92215 31.8976 9.33813 30.8854 11.7124 28.4473C13.8829 26.2167 14.0037 21.1738 17.2024 19.5276C20.0302 18.0653 24.7996 20.5373 28.2749 19.5839C31.4044 18.7349 33.9925 14.1469 37.5331 13.7407C40.8156 13.3658 44.3439 17.1979 47.8667 17.2243C51.1635 17.2385 54.9784 13.4204 58.4303 13.8151C61.715 14.1863 64.1545 18.6958 67.5088 19.4266C70.8632 20.1574 75.4472 17.1606 78.5494 18.1642C81.8063 19.2312 83.1244 24.1446 86.0472 25.4815C89.1672 26.8922 94.3432 24.9562 97.0208 26.6019C99.9327 28.4075 99.7636 33.5158 102.066 35.5328C104.639 37.7957 110.163 37.5465 111.897 39.9908C113.835 42.7502 111.249 47.2445 111.967 50.1096C112.71 53.2124 116.947 56.2914 116.076 59.3525Z" fill="#281F1E"/>
<path d="M43.3489 30.9955L42.0234 38.7652L39.9258 38.4074L41.2512 30.6376L38.6429 30.1926L38.9608 28.3296L46.2751 29.5774L45.9573 31.4404L43.3489 30.9955ZM47.9647 39.9492C47.4311 39.8582 46.9676 39.6891 46.5742 39.4421C46.19 39.1967 45.8789 38.8833 45.641 38.5018C45.4123 38.122 45.2598 37.6841 45.1834 37.1882C45.1071 36.6923 45.1183 36.1545 45.2172 35.5749C45.3161 34.9952 45.4838 34.4842 45.7202 34.0416C45.9567 33.5991 46.245 33.2411 46.5851 32.9678C46.936 32.6868 47.3334 32.4942 47.7773 32.39C48.2303 32.2874 48.7236 32.2816 49.2573 32.3727C49.7909 32.4637 50.2498 32.6319 50.634 32.8774C51.0274 33.1244 51.3384 33.4378 51.5671 33.8177C51.8066 34.1899 51.9645 34.624 52.0409 35.1199C52.1173 35.6158 52.106 36.1536 52.0071 36.7332C51.9082 37.3128 51.7406 37.8239 51.5041 38.2664C51.2677 38.709 50.974 39.0708 50.6231 39.3517C50.2813 39.6343 49.884 39.8269 49.4309 39.9295C48.9871 40.0337 48.4983 40.0402 47.9647 39.9492ZM48.2402 38.3345C48.645 38.4036 48.979 38.3328 49.2422 38.122C49.5054 37.9113 49.6762 37.5759 49.7547 37.1159L50.0066 35.6392C50.0851 35.1792 50.0351 34.8061 49.8567 34.52C49.6782 34.234 49.3866 34.0564 48.9818 33.9873C48.577 33.9183 48.243 33.9891 47.9798 34.1999C47.7166 34.4106 47.5458 34.746 47.4673 35.206L47.2154 36.6827C47.1369 37.1427 47.1869 37.5157 47.3653 37.8018C47.5437 38.0879 47.8354 38.2655 48.2402 38.3345ZM52.2609 38.8784L53.1994 39.0385C53.3118 38.9346 53.4159 38.7962 53.5117 38.6231C53.6167 38.4517 53.7142 38.2411 53.8041 37.9913C53.9048 37.7339 54.0004 37.4236 54.0908 37.0603C54.1811 36.697 54.2687 36.2669 54.3535 35.7701L54.7443 33.4792L60.4991 34.4609L59.2631 41.7062L57.2206 41.3578L58.1859 35.6996L56.4332 35.4005L56.2943 36.2148C56.1876 36.8404 56.0704 37.3885 55.9428 37.8591C55.8167 38.3205 55.6779 38.7181 55.5263 39.052C55.3762 39.3767 55.2163 39.6477 55.0467 39.865C54.8879 40.0746 54.7223 40.2404 54.55 40.3625C54.2915 40.5457 54.0072 40.6581 53.6971 40.6999C53.3962 40.7432 53.0295 40.728 52.5971 40.6543L51.9761 40.5483L52.2609 38.8784ZM62.4082 34.7866L64.4507 35.135L64.0834 37.2879L65.9879 37.6128C66.3375 37.6725 66.6547 37.7834 66.9395 37.9456C67.2242 38.1078 67.4582 38.3181 67.6413 38.5766C67.8352 38.8275 67.9699 39.1203 68.0454 39.4551C68.1208 39.7899 68.1232 40.1643 68.0526 40.5783C67.9819 40.9923 67.8548 41.3493 67.671 41.6494C67.4888 41.9402 67.2639 42.1764 66.9962 42.358C66.7393 42.5319 66.4497 42.6482 66.1272 42.7068C65.8048 42.7654 65.4687 42.7649 65.1191 42.7053L61.1721 42.0319L62.4082 34.7866ZM64.9247 41.1809C65.1915 41.2264 65.4149 41.1935 65.5948 41.0821C65.7856 40.9632 65.9037 40.7703 65.9492 40.5035L66.041 39.9653C66.0865 39.6985 66.0383 39.4819 65.8962 39.3157C65.7649 39.1418 65.5658 39.0321 65.299 38.9866L63.8362 38.737L63.4618 40.9313L64.9247 41.1809ZM70.1441 36.1063L72.1865 36.4548L71.7133 39.2287L72.7622 39.4076L74.0158 37.8036C74.2702 37.4777 74.5303 37.257 74.7962 37.1414C75.0713 37.0274 75.4021 37.0033 75.7885 37.0692L76.6303 37.2129L76.3596 38.7999L75.6282 38.6751L74.8094 39.7285C74.6398 39.9457 74.4819 40.0939 74.3358 40.1732C74.199 40.254 74.0438 40.3032 73.8704 40.321L73.8586 40.39C74.0087 40.4535 74.1403 40.5422 74.2534 40.6562C74.3758 40.7717 74.4748 40.9401 74.5507 41.1614L75.113 42.7769L75.8583 42.9041L75.5875 44.4911L74.6353 44.3287C74.2489 44.2628 73.9494 44.1312 73.7369 43.934C73.5243 43.7368 73.3444 43.4315 73.1972 43.0182L72.4914 40.9947L71.4426 40.8158L70.9505 43.7001L68.908 43.3516L70.1441 36.1063ZM79.8113 45.3821C79.2776 45.2911 78.8141 45.1221 78.4207 44.8751C78.0365 44.6296 77.7255 44.3162 77.4876 43.9347C77.2589 43.5549 77.1063 43.117 77.03 42.6211C76.9536 42.1252 76.9649 41.5874 77.0638 41.0078C77.1626 40.4282 77.3303 39.9171 77.5668 39.4745C77.8032 39.032 78.0915 38.6741 78.4317 38.4007C78.7826 38.1197 79.18 37.9271 79.6238 37.8229C80.0768 37.7203 80.5702 37.7145 81.1038 37.8056C81.6374 37.8966 82.0963 38.0649 82.4805 38.3103C82.8739 38.5573 83.185 38.8707 83.4137 39.2506C83.6532 39.6229 83.8111 40.0569 83.8874 40.5528C83.9638 41.0487 83.9525 41.5865 83.8537 42.1661C83.7548 42.7457 83.5871 43.2568 83.3507 43.6994C83.1142 44.1419 82.8205 44.5037 82.4696 44.7847C82.1279 45.0672 81.7305 45.2598 81.2775 45.3624C80.8336 45.4666 80.3449 45.4732 79.8113 45.3821ZM80.0867 43.7675C80.4915 43.8365 80.8255 43.7657 81.0887 43.5549C81.3519 43.3442 81.5228 43.0088 81.6012 42.5488L81.8531 41.0721C81.9316 40.6121 81.8816 40.239 81.7032 39.953C81.5248 39.6669 81.2332 39.4893 80.8283 39.4203C80.4235 39.3512 80.0895 39.422 79.8263 39.6328C79.5631 39.8435 79.3923 40.1789 79.3138 40.6389L79.0619 42.1156C78.9834 42.5756 79.0334 42.9487 79.2118 43.2347C79.3903 43.5208 79.6819 43.6984 80.0867 43.7675ZM26.4616 54.3705L26.7465 52.7006L29.341 53.1432L30.4429 46.6845L30.3187 46.6633L27.9211 48.8959L26.7728 47.6349L29.5954 44.9919L32.7696 45.5334L31.4111 53.4964L33.4536 53.8448L33.1687 55.5147L26.4616 54.3705ZM37.5513 56.4328C36.2908 56.2177 35.4316 55.6214 34.9734 54.6438C34.5153 53.6661 34.4205 52.3907 34.6889 50.8174C34.9573 49.2441 35.4696 48.0723 36.226 47.3018C36.9823 46.5314 37.9907 46.2537 39.2511 46.4687C40.5116 46.6837 41.3709 47.2801 41.829 48.2577C42.2871 49.2353 42.382 50.5108 42.1136 52.0841C41.8452 53.6573 41.3328 54.8292 40.5765 55.5996C39.8202 56.3701 38.8118 56.6478 37.5513 56.4328ZM37.8503 54.6801C38.4023 54.7743 38.8187 54.637 39.0993 54.2683C39.38 53.8995 39.5831 53.3472 39.7087 52.6111L40.0195 50.7895C40.145 50.0534 40.1365 49.4649 39.994 49.024C39.8514 48.5831 39.5042 48.3156 38.9521 48.2214C38.4001 48.1272 37.9838 48.2645 37.7031 48.6332C37.4224 49.0019 37.2193 49.5543 37.0937 50.2903L36.783 52.112C36.6574 52.848 36.6659 53.4365 36.8084 53.8774C36.951 54.3184 37.2983 54.5859 37.8503 54.6801ZM45.8263 57.8444C44.5658 57.6294 43.7065 57.0331 43.2484 56.0555C42.7903 55.0778 42.6954 53.8024 42.9638 52.2291C43.2322 50.6558 43.7446 49.484 44.5009 48.7135C45.2573 47.9431 46.2657 47.6654 47.5261 47.8804C48.7866 48.0954 49.6459 48.6918 50.104 49.6694C50.5621 50.647 50.657 51.9225 50.3886 53.4957C50.1202 55.069 49.6078 56.2409 48.8515 57.0113C48.0951 57.7818 47.0867 58.0595 45.8263 57.8444ZM46.1253 56.0918C46.6773 56.1859 47.0937 56.0487 47.3743 55.6799C47.655 55.3112 47.8581 54.7589 47.9837 54.0228L48.2945 52.2011C48.42 51.4651 48.4115 50.8766 48.269 50.4357C48.1264 49.9948 47.7791 49.7273 47.2271 49.6331C46.6751 49.5389 46.2587 49.6762 45.9781 50.0449C45.6974 50.4136 45.4943 50.966 45.3687 51.702L45.058 53.5237C44.9324 54.2597 44.9409 54.8482 45.0834 55.2891C45.226 55.73 45.5733 55.9976 46.1253 56.0918ZM55.4391 51.8577L57.6472 52.2344L58.9627 55.5123L59.0179 55.5218L61.3457 52.8654L63.5538 53.2421L62.3178 60.4874L60.3305 60.1484L61.1334 55.4424L61.092 55.4353L60.3681 56.3486L58.4817 58.498L57.4147 55.8448L57.0346 54.7431L56.9932 54.7361L56.1903 59.4421L54.203 59.1031L55.4391 51.8577ZM67.2107 61.4926C66.6586 61.3984 66.1813 61.227 65.7787 60.9784C65.3777 60.7206 65.0529 60.4049 64.8042 60.031C64.5663 59.6496 64.4091 59.2109 64.3328 58.715C64.2656 58.2207 64.2815 57.6837 64.3804 57.1041C64.4777 56.5337 64.6392 56.031 64.8649 55.5961C65.0921 55.152 65.3766 54.7886 65.7183 54.5061C66.0692 54.2251 66.4712 54.0333 66.9242 53.9307C67.3789 53.8189 67.8776 53.8093 68.4204 53.9019C69.0184 54.0039 69.5118 54.1922 69.9005 54.4668C70.2984 54.743 70.6017 55.0741 70.8104 55.46C71.0283 55.8475 71.1587 56.2769 71.2014 56.7481C71.2548 57.2117 71.24 57.6873 71.1568 58.1749L71.0532 58.7821L66.4024 57.9887L66.3836 58.0991C66.3019 58.5776 66.3656 58.9813 66.5746 59.3105C66.7851 59.6305 67.1664 59.8375 67.7184 59.9317C68.1416 60.0039 68.5007 59.98 68.7958 59.8599C69.0924 59.7306 69.3762 59.5659 69.647 59.366L70.4516 60.8099C70.0653 61.1321 69.5918 61.3543 69.0313 61.4765C68.48 61.6002 67.8731 61.6056 67.2107 61.4926ZM68.2052 55.4132C67.7912 55.3426 67.441 55.4249 67.1547 55.6601C66.8792 55.8877 66.703 56.2268 66.626 56.6777L66.6072 56.7881L69.1465 57.2213L69.1677 57.0971C69.2431 56.6554 69.2023 56.284 69.0454 55.9826C68.8993 55.6736 68.6192 55.4838 68.2052 55.4132ZM74.8634 62.7981C74.3206 62.7055 73.8525 62.5357 73.4591 62.2887C73.0673 62.0325 72.7562 61.719 72.5259 61.3484C72.2972 60.9685 72.1493 60.5314 72.0821 60.037C72.015 59.5427 72.0308 59.0057 72.1297 58.4261C72.2286 57.8465 72.3909 57.3392 72.6166 56.9043C72.8438 56.4602 73.1283 56.0969 73.47 55.8143C73.8118 55.5317 74.2091 55.3392 74.6622 55.2366C75.1152 55.1339 75.6131 55.1289 76.156 55.2216C76.892 55.3471 77.4756 55.6171 77.9067 56.0315C78.347 56.4475 78.622 56.9725 78.7316 57.6066L76.9531 58.0418C76.9357 57.7548 76.8424 57.4974 76.6729 57.2697C76.5035 57.0419 76.2393 56.8974 75.8805 56.8362C75.4665 56.7656 75.1301 56.8502 74.8714 57.0901C74.6143 57.3209 74.4465 57.6662 74.368 58.1262L74.1373 59.4787C74.0588 59.9387 74.1026 60.3202 74.2687 60.6231C74.4348 60.926 74.7249 61.1128 75.1389 61.1834C75.5069 61.2462 75.8132 61.199 76.0578 61.0419C76.3131 60.8772 76.5189 60.6424 76.675 60.3377L78.1443 61.2985C77.7874 61.9477 77.3285 62.3902 76.7675 62.6258C76.2158 62.8631 75.5811 62.9205 74.8634 62.7981ZM81.5899 57.9523L79.4922 57.5944L79.763 56.0073L86.0009 57.0715L85.7301 58.6586L83.6324 58.3007L82.6671 63.959L80.6247 63.6105L81.5899 57.9523ZM87.3555 61.6343L87.3755 57.6042L87.8322 54.9269L89.9851 55.2942L89.5284 57.9715L88.2249 61.7826L87.3555 61.6343ZM87.2233 64.9066C86.7817 64.8313 86.4815 64.6759 86.3228 64.4406C86.1734 64.2068 86.1237 63.9427 86.174 63.6483L86.2305 63.317C86.2807 63.0226 86.4151 62.7899 86.6336 62.6189C86.8614 62.4494 87.196 62.4024 87.6377 62.4777C88.0793 62.5531 88.3748 62.7076 88.5243 62.9414C88.683 63.1768 88.7372 63.4417 88.687 63.7361L88.6305 64.0673C88.5802 64.3617 88.4413 64.5937 88.2135 64.7631C87.995 64.9341 87.6649 64.982 87.2233 64.9066Z" fill="#FFD583"/>
</svg>
