<svg width="162" height="126" viewBox="0 0 162 126" fill="none" xmlns="http://www.w3.org/2000/svg">
<path d="M157.878 79.3379C156.687 83.4772 149.311 84.8309 146.103 88.1257C143.145 91.1448 142.972 97.9618 138.589 100.198C134.739 102.18 128.254 98.8469 123.523 100.142C119.263 101.295 115.733 107.502 110.914 108.057C106.479 108.589 101.685 103.415 96.8909 103.386C92.4049 103.373 87.207 108.541 82.5106 108.013C78.0418 107.518 74.7304 101.426 70.1674 100.445C65.6043 99.4628 59.3613 103.522 55.1418 102.171C50.7121 100.735 48.9274 94.0954 44.9527 92.2935C40.7097 90.3922 33.6632 93.0186 30.0226 90.7988C26.0636 88.3635 26.303 81.4581 23.1739 78.7358C19.7075 75.7006 12.1649 76.0526 9.80936 72.7518C7.17763 69.0253 10.7044 62.9455 9.73273 59.0738C8.69516 54.8619 2.93146 50.6832 4.12201 46.5439C5.31726 42.4289 12.6888 41.0509 15.9239 37.751C18.8814 34.7319 19.0549 27.9149 23.4105 25.6839C27.2609 23.7022 33.7463 27.035 38.477 25.74C42.737 24.5867 46.2668 18.3802 51.0855 17.8247C55.5526 17.3121 60.3467 22.4856 65.1403 22.5149C69.6264 22.5282 74.8243 17.3602 79.5207 17.8875C83.9895 18.3833 87.3009 24.4745 91.8639 25.4564C96.4269 26.4382 102.67 22.3789 106.889 23.73C111.319 25.1663 113.104 31.8056 117.079 33.6075C121.322 35.5087 128.368 32.8824 132.009 35.1021C135.968 37.5375 135.728 44.4429 138.857 47.1652C142.355 50.2195 149.871 49.8726 152.227 53.1735C154.858 56.9 151.332 62.9798 152.303 66.8514C153.309 71.0442 159.068 75.1986 157.878 79.3379Z" fill="#281F1E"/>
<path d="M59.4194 43.2925L57.7151 53.2822L55.0181 52.8221L56.7223 42.8324L53.3688 42.2603L53.7774 39.8649L63.1816 41.4692L62.7729 43.8646L59.4194 43.2925ZM65.3539 54.8045C64.6678 54.6874 64.0719 54.4701 63.5661 54.1525C63.0721 53.837 62.6722 53.434 62.3663 52.9436C62.0723 52.4551 61.8762 51.8921 61.778 51.2546C61.6798 50.617 61.6943 49.9256 61.8214 49.1803C61.9485 48.4351 62.1641 47.778 62.4681 47.209C62.7721 46.64 63.1428 46.1798 63.5802 45.8283C64.0313 45.4671 64.5422 45.2195 65.1129 45.0855C65.6954 44.9536 66.3297 44.9462 67.0158 45.0632C67.7018 45.1803 68.2919 45.3966 68.7858 45.7121C69.2916 46.0297 69.6916 46.4327 69.9856 46.9211C70.2935 47.3997 70.4966 47.9578 70.5947 48.5954C70.6929 49.233 70.6784 49.9244 70.5513 50.6696C70.4242 51.4148 70.2086 52.072 69.9046 52.6409C69.6006 53.2099 69.223 53.675 68.7718 54.0363C68.3324 54.3996 67.8215 54.6472 67.239 54.7791C66.6684 54.9131 66.04 54.9215 65.3539 54.8045ZM65.7081 52.7285C66.2286 52.8173 66.658 52.7262 66.9964 52.4552C67.3348 52.1843 67.5544 51.7531 67.6553 51.1616L67.9792 49.263C68.0801 48.6716 68.0158 48.1919 67.7864 47.8241C67.557 47.4563 67.1821 47.228 66.6616 47.1392C66.1411 47.0504 65.7117 47.1415 65.3733 47.4125C65.0349 47.6834 64.8153 48.1146 64.7144 48.7061L64.3905 50.6046C64.2896 51.1961 64.3538 51.6757 64.5832 52.0435C64.8127 52.4114 65.1876 52.6397 65.7081 52.7285ZM70.8776 53.4278L72.0842 53.6336C72.2287 53.5 72.3626 53.322 72.4857 53.0995C72.6207 52.8791 72.7461 52.6083 72.8617 52.2872C72.9912 51.9562 73.1141 51.5572 73.2303 51.0901C73.3465 50.623 73.4591 50.0701 73.568 49.4313L74.0705 46.4858L81.4696 47.7481L79.8804 57.0635L77.2544 56.6155L78.4955 49.3406L76.242 48.9562L76.0634 50.0031C75.9262 50.8075 75.7755 51.5122 75.6115 52.1172C75.4494 52.7104 75.2709 53.2216 75.0759 53.651C74.8829 54.0685 74.6774 54.4169 74.4593 54.6962C74.2551 54.9657 74.0422 55.1789 73.8207 55.3359C73.4883 55.5713 73.1228 55.7159 72.7241 55.7696C72.3372 55.8254 71.8658 55.8058 71.3098 55.711L70.5114 55.5748L70.8776 53.4278ZM83.9241 48.1668L86.5501 48.6148L86.0779 51.3828L88.5265 51.8006C88.976 51.8772 89.3839 52.0199 89.75 52.2284C90.1162 52.437 90.417 52.7074 90.6524 53.0397C90.9017 53.3622 91.0749 53.7387 91.1719 54.1692C91.2689 54.5996 91.272 55.081 91.1812 55.6133C91.0904 56.1456 90.9268 56.6046 90.6906 56.9904C90.4564 57.3643 90.1672 57.668 89.823 57.9015C89.4927 58.1251 89.1203 58.2746 88.7057 58.35C88.2911 58.4253 87.8591 58.4247 87.4096 58.348L82.3349 57.4822L83.9241 48.1668ZM87.1596 56.388C87.5027 56.4465 87.7899 56.4042 88.0212 56.2611C88.2664 56.1082 88.4183 55.8602 88.4768 55.5171L88.5949 54.8251C88.6534 54.4821 88.5913 54.2037 88.4087 53.9899C88.2399 53.7664 87.9839 53.6253 87.6409 53.5668L85.7601 53.2459L85.2788 56.0672L87.1596 56.388ZM93.8702 49.8636L96.4963 50.3116L95.8878 53.8781L97.2364 54.1081L98.8481 52.0458C99.1752 51.6269 99.5097 51.3431 99.8516 51.1944C100.205 51.0478 100.631 51.0169 101.127 51.1017L102.21 51.2863L101.862 53.3268L100.921 53.1664L99.8685 54.5206C99.6504 54.8 99.4475 54.9905 99.2597 55.0924C99.0837 55.1963 98.8842 55.2596 98.6612 55.2825L98.646 55.3712C98.8391 55.4528 99.0083 55.5669 99.1537 55.7134C99.311 55.862 99.4384 56.0785 99.5359 56.363L100.259 58.4401L101.217 58.6036L100.869 60.6441L99.6446 60.4352C99.1478 60.3505 98.7628 60.1813 98.4895 59.9278C98.2163 59.6742 97.985 59.2817 97.7957 58.7503L96.8883 56.1487L95.5397 55.9186L94.9071 59.627L92.281 59.179L93.8702 49.8636ZM106.299 61.7897C105.613 61.6726 105.017 61.4553 104.512 61.1377C104.018 60.8222 103.618 60.4192 103.312 59.9287C103.018 59.4403 102.822 58.8773 102.724 58.2397C102.625 57.6022 102.64 56.9107 102.767 56.1655C102.894 55.4203 103.11 54.7632 103.414 54.1942C103.718 53.6252 104.088 53.165 104.526 52.8135C104.977 52.4523 105.488 52.2047 106.058 52.0707C106.641 51.9388 107.275 51.9313 107.961 52.0484C108.647 52.1654 109.237 52.3817 109.731 52.6973C110.237 53.0149 110.637 53.4179 110.931 53.9063C111.239 54.3849 111.442 54.943 111.54 55.5806C111.638 56.2181 111.624 56.9096 111.497 57.6548C111.37 58.4 111.154 59.0571 110.85 59.6261C110.546 60.1951 110.169 60.6602 109.717 61.0215C109.278 61.3848 108.767 61.6324 108.185 61.7643C107.614 61.8982 106.986 61.9067 106.299 61.7897ZM106.654 59.7136C107.174 59.8024 107.604 59.7114 107.942 59.4404C108.28 59.1695 108.5 58.7382 108.601 58.1468L108.925 56.2482C109.026 55.6568 108.961 55.1771 108.732 54.8093C108.503 54.4415 108.128 54.2132 107.607 54.1244C107.087 54.0356 106.657 54.1267 106.319 54.3976C105.98 54.6686 105.761 55.0998 105.66 55.6913L105.336 57.5898C105.235 58.1813 105.299 58.6609 105.529 59.0287C105.758 59.3965 106.133 59.6249 106.654 59.7136ZM37.7311 73.2053L38.0974 71.0583L41.4332 71.6274L42.8499 63.3233L42.6902 63.2961L39.6075 66.1666L38.1312 64.5452L41.7603 61.1471L45.8414 61.8433L44.0948 72.0814L46.7208 72.5294L46.3546 74.6764L37.7311 73.2053ZM51.9893 75.8568C50.3687 75.5803 49.2639 74.8136 48.6749 73.5567C48.0859 72.2997 47.9639 70.6598 48.309 68.6371C48.6541 66.6143 49.3128 65.1076 50.2852 64.117C51.2577 63.1265 52.5542 62.7694 54.1748 63.0459C55.7954 63.3223 56.9002 64.0891 57.4892 65.346C58.0782 66.603 58.2001 68.2428 57.8551 70.2656C57.51 72.2884 56.8512 73.7951 55.8788 74.7856C54.9064 75.7762 53.6099 76.1333 51.9893 75.8568ZM52.3737 73.6033C53.0834 73.7244 53.6188 73.5479 53.9796 73.0739C54.3405 72.5998 54.6016 71.8896 54.7631 70.9433L55.1626 68.6011C55.3241 67.6548 55.3132 66.8982 55.1299 66.3313C54.9466 65.7644 54.5001 65.4204 53.7903 65.2993C53.0806 65.1782 52.5453 65.3547 52.1844 65.8288C51.8236 66.3029 51.5624 67.0131 51.401 67.9594L51.0014 70.3016C50.84 71.2479 50.8509 72.0045 51.0342 72.5714C51.2174 73.1383 51.664 73.4823 52.3737 73.6033ZM62.6285 77.6718C61.0079 77.3953 59.9031 76.6286 59.3141 75.3717C58.7251 74.1147 58.6032 72.4749 58.9482 70.4521C59.2933 68.4293 59.9521 66.9226 60.9245 65.9321C61.8969 64.9415 63.1934 64.5844 64.814 64.8609C66.4346 65.1374 67.5394 65.9041 68.1284 67.161C68.7174 68.418 68.8394 70.0578 68.4943 72.0806C68.1492 74.1034 67.4905 75.6101 66.5181 76.6007C65.5456 77.5912 64.2491 77.9483 62.6285 77.6718ZM63.013 75.4184C63.7227 75.5395 64.258 75.363 64.6189 74.8889C64.9797 74.4148 65.2409 73.7046 65.4023 72.7583L65.8019 70.4161C65.9633 69.4698 65.9524 68.7132 65.7691 68.1463C65.5859 67.5794 65.1394 67.2354 64.4296 67.1143C63.7199 66.9933 63.1846 67.1698 62.8237 67.6438C62.4628 68.1179 62.2017 68.8281 62.0402 69.7744L61.6407 72.1166C61.4792 73.0629 61.4902 73.8195 61.6734 74.3864C61.8567 74.9533 62.3032 75.2973 63.013 75.4184ZM74.9878 69.9746L77.8268 70.4589L79.5182 74.6734L79.5892 74.6855L82.5821 71.2702L85.4211 71.7545L83.8319 81.0699L81.2768 80.634L82.3091 74.5835L82.2558 74.5744L81.3251 75.7486L78.8998 78.5121L77.528 75.1008L77.0392 73.6844L76.986 73.6753L75.9537 79.7259L73.3987 79.29L74.9878 69.9746ZM90.1227 82.3622C89.413 82.2412 88.7993 82.0208 88.2817 81.7012C87.7661 81.3698 87.3484 80.9638 87.0287 80.4832C86.7228 79.9927 86.5208 79.4287 86.4226 78.7911C86.3362 78.1556 86.3566 77.4652 86.4838 76.7199C86.6089 75.9865 86.8165 75.3402 87.1067 74.7811C87.3989 74.2101 87.7646 73.7429 88.204 73.3796C88.6552 73.0184 89.172 72.7718 89.7545 72.6398C90.339 72.4961 90.9802 72.4838 91.6781 72.6028C92.447 72.734 93.0813 72.9761 93.5811 73.3292C94.0926 73.6843 94.4826 74.1099 94.751 74.6061C95.0312 75.1043 95.1987 75.6564 95.2536 76.2622C95.3224 76.8583 95.3033 77.4698 95.1963 78.0967L95.0631 78.8774L89.0835 77.8573L89.0593 77.9993C88.9544 78.6144 89.0362 79.1335 89.3049 79.5567C89.5756 79.9681 90.0658 80.2344 90.7755 80.3554C91.3197 80.4483 91.7814 80.4175 92.1608 80.2631C92.5422 80.0968 92.907 79.8852 93.2551 79.6281L94.2897 81.4845C93.7929 81.8988 93.1842 82.1846 92.4635 82.3416C91.7547 82.5007 90.9744 82.5075 90.1227 82.3622ZM91.4014 74.546C90.8691 74.4551 90.4189 74.5609 90.0508 74.8633C89.6965 75.1559 89.47 75.592 89.3711 76.1717L89.3469 76.3136L92.6117 76.8706L92.6389 76.7109C92.7358 76.1431 92.6834 75.6655 92.4817 75.278C92.2938 74.8808 91.9337 74.6368 91.4014 74.546ZM99.962 84.0408C99.2641 83.9217 98.6622 83.7034 98.1564 83.3858C97.6527 83.0564 97.2527 82.6534 96.9567 82.1768C96.6626 81.6884 96.4724 81.1264 96.3861 80.4909C96.2997 79.8553 96.3201 79.1649 96.4472 78.4197C96.5744 77.6744 96.783 77.0222 97.0732 76.4631C97.3654 75.8921 97.7311 75.4249 98.1705 75.0616C98.6098 74.6983 99.1208 74.4507 99.7032 74.3188C100.286 74.1869 100.926 74.1805 101.624 74.2995C102.57 74.461 103.32 74.8081 103.875 75.3409C104.441 75.8757 104.794 76.5508 104.935 77.3661L102.649 77.9255C102.626 77.5565 102.506 77.2256 102.288 76.9328C102.071 76.64 101.731 76.4542 101.27 76.3755C100.737 76.2847 100.305 76.3935 99.9723 76.702C99.6417 76.9986 99.426 77.4427 99.3251 78.0341L99.0284 79.773C98.9275 80.3645 98.9838 80.8549 99.1974 81.2444C99.4109 81.6338 99.7839 81.874 100.316 81.9648C100.789 82.0455 101.183 81.9849 101.498 81.7829C101.826 81.5711 102.09 81.2692 102.291 80.8774L104.18 82.1127C103.721 82.9474 103.131 83.5163 102.41 83.8193C101.701 84.1244 100.885 84.1982 99.962 84.0408ZM108.61 77.8104L105.913 77.3503L106.261 75.3098L114.282 76.678L113.933 78.7185L111.236 78.2584L109.995 85.5333L107.369 85.0853L108.61 77.8104ZM116.023 82.5444L116.049 77.363L116.636 73.9207L119.404 74.3929L118.817 77.8352L117.141 82.7351L116.023 82.5444ZM115.853 86.7518C115.285 86.6549 114.9 86.4552 114.696 86.1526C114.503 85.852 114.44 85.5124 114.504 85.1339L114.577 84.708C114.641 84.3295 114.814 84.0303 115.095 83.8104C115.388 83.5925 115.818 83.532 116.386 83.6289C116.954 83.7258 117.334 83.9245 117.526 84.2251C117.73 84.5277 117.8 84.8683 117.735 85.2468L117.662 85.6727C117.598 86.0512 117.419 86.3494 117.126 86.5673C116.845 86.7871 116.421 86.8486 115.853 86.7518Z" fill="#FFD583"/>
</svg>
