<svg width="47" height="92" viewBox="0 0 47 92" fill="none" xmlns="http://www.w3.org/2000/svg">
<path d="M25.1398 29.7928C25.695 29.7928 26.0122 29.7928 26.3294 29.7928C26.488 29.7928 26.5673 29.9517 26.5673 30.0311C26.5673 30.2695 26.5673 30.4284 26.6467 30.6667C26.6467 30.8256 26.6467 30.9845 26.6467 31.0639C26.8846 31.8584 26.8053 32.6529 26.8846 33.3679C26.8846 33.5268 26.9639 33.6857 26.9639 33.7651C27.0432 33.924 26.9639 34.0829 26.9639 34.1624C26.8846 34.2418 26.8846 34.4007 26.9639 34.4802C27.0432 34.7185 27.0432 34.9569 27.0432 35.1952C27.0432 36.5458 27.0432 37.8964 27.0432 39.247C27.0432 39.4854 27.0432 39.7237 26.9639 39.962C26.8846 40.1209 26.8846 40.2798 26.8846 40.5182C26.8846 41.7893 26.8846 43.0605 26.8846 44.4111C26.8846 44.6494 26.8846 44.8878 26.9639 45.1261C27.0432 45.285 27.0432 45.4439 27.0432 45.5233C27.0432 46.2384 27.0432 46.9534 27.0432 47.6684C27.0432 47.8273 27.0432 47.9862 27.0432 48.0657C26.8053 48.7012 26.9639 49.4163 26.9639 50.0518C27.2018 50.9258 27.0432 51.7997 27.1225 52.7531C27.1225 53.2297 27.1225 53.7064 27.1225 54.1831C27.1225 54.342 27.1225 54.5009 27.2018 54.5803C27.3604 54.8981 27.3604 55.2159 27.3604 55.5337C27.3604 56.646 27.3604 57.7582 27.3604 58.8705C27.3604 59.1883 27.3604 59.4266 27.4397 59.7444C27.519 59.9033 27.519 60.0622 27.519 60.3005C27.519 61.4128 27.519 62.6045 27.5983 63.7168C27.5983 63.9551 27.5983 64.1935 27.6776 64.4318C27.7569 64.5907 27.7569 64.7496 27.7569 64.9879C27.7569 65.3852 27.7569 65.8619 27.8362 66.2591C27.8362 66.5769 27.9155 66.9741 27.9948 67.2919C28.0742 67.7686 28.0742 68.2453 27.9948 68.6425C27.9948 68.722 27.9155 68.8014 27.8362 68.8014C27.519 68.8808 27.2811 68.8014 26.9639 68.8808C26.488 69.0397 26.0122 69.0397 25.4571 69.0397C25.1398 69.0397 24.7433 69.0397 24.4261 69.1986C24.2675 69.2781 24.1089 69.2781 23.871 69.2781C23.4744 69.2781 22.9986 69.2781 22.6021 69.3575C22.4435 69.3575 22.2848 69.3575 22.2055 69.3575C21.7297 69.5164 21.2539 69.5164 20.6987 69.5164C20.2229 69.5164 19.6678 69.437 19.1919 69.6753C18.8747 69.6753 18.5575 69.6753 18.2403 69.7548C17.923 69.7548 17.6851 69.7548 17.3679 69.9137C17.0507 69.9931 16.7334 69.9931 16.4162 69.9931C16.3369 69.9931 16.1783 69.9137 16.1783 69.8342C16.1783 69.7548 16.1783 69.5959 16.1783 69.5164C16.1783 68.722 16.1783 67.848 16.1783 67.0536C16.1783 66.5769 16.2576 66.0207 16.0197 65.5441C15.9404 65.3852 16.0197 65.2263 16.0197 65.1468C16.0197 64.1935 16.0197 63.2401 15.9404 62.2867C15.9404 61.9689 15.9404 61.7306 15.8611 61.4128C15.7818 61.2539 15.7818 61.095 15.7818 60.8567C15.7818 59.8239 15.7025 58.8705 15.7818 57.8377C15.7818 57.1227 15.7818 56.4076 15.7025 55.6926C15.7025 55.6132 15.6232 55.4543 15.6232 55.3748C15.6232 55.2954 15.5439 55.1365 15.6232 55.057C15.7818 54.6598 15.7025 54.2626 15.7025 53.8653C15.7025 53.4681 15.7818 53.0708 15.6232 52.6736C15.5439 52.5147 15.5439 52.3558 15.5439 52.1175C15.5439 51.4819 15.5439 50.8463 15.4646 50.2107C15.4646 49.8929 15.4646 49.5752 15.3853 49.2574C15.3059 49.0985 15.3059 48.8601 15.3059 48.6218C15.3059 47.8273 15.3059 46.9534 15.2266 46.1589C15.2266 45.6822 15.2266 45.1261 15.1473 44.6494C15.068 44.4111 15.1473 44.0933 15.1473 43.7755C15.1473 40.5182 15.1473 37.1814 15.1473 33.924C15.1473 33.5268 15.1473 33.0501 15.1473 32.6529C14.9887 32.2556 14.9887 31.779 14.8301 31.3817C14.7508 31.2228 14.7508 30.9845 14.7508 30.7462C14.7508 30.5873 14.8301 30.4284 14.9887 30.4284C15.1473 30.4284 15.3853 30.4284 15.5439 30.3489C16.099 30.19 16.6541 30.19 17.2093 30.19C17.6058 30.19 18.0023 30.19 18.3989 30.0311C18.5575 29.9517 18.7161 30.0311 18.7954 30.0311C19.2712 30.0311 19.7471 30.0311 20.2229 29.9517C20.3815 29.9517 20.6194 29.9517 20.778 29.8722C21.016 29.7928 21.2539 29.7928 21.4918 29.7928C22.1262 29.7928 22.7607 29.7928 23.3951 29.7133C23.7123 29.7133 24.0296 29.7133 24.3468 29.5544C24.5847 29.8722 24.9812 29.7928 25.1398 29.7928Z" fill="#FFD583"/>
<path d="M19.0333 91.841C17.2093 91.841 15.4646 91.841 13.6406 91.841C13.0854 91.841 12.5303 91.7616 11.9751 91.9999C11.8958 91.9999 11.7372 91.9999 11.6579 91.9999C11.5786 91.9999 11.4993 91.9205 11.4993 91.9205C11.3407 91.7616 11.2614 91.5232 11.2614 91.3643C11.2614 90.9671 11.2614 90.6493 11.2614 90.2521C11.2614 88.1865 11.2614 86.2003 11.2614 84.1346C11.2614 83.8169 11.2614 83.4991 11.2614 83.1813C11.2614 83.0224 11.2614 82.784 11.1821 82.6251C11.1028 82.3868 11.1028 82.1485 11.1028 81.9101C11.1028 80.5595 11.1028 79.2884 11.0235 77.9378C11.0235 77.62 11.0235 77.2227 10.9442 76.9049C10.9442 76.8255 10.9442 76.6666 10.9442 76.5872C10.9442 75.9516 10.9442 75.316 10.9442 74.6804C10.9442 74.4421 11.0235 74.2832 11.3407 74.2832C11.6579 74.2832 11.8958 74.2832 12.2131 74.2832C12.3717 74.2832 12.5303 74.2832 12.6096 74.2832C13.3233 74.0448 14.0371 74.1243 14.7508 74.1243C15.1474 74.1243 15.6232 74.1243 16.0197 73.9654C16.1783 73.8859 16.3369 73.9654 16.4163 73.9654C16.9714 73.9654 17.5265 73.9654 18.161 73.886C18.4782 73.886 18.8747 73.886 19.1919 73.7271C19.4299 73.6476 19.7471 73.6476 20.0643 73.6476C20.3815 73.6476 20.7781 73.6476 21.0953 73.4887C21.3332 73.4093 21.5711 73.4093 21.809 73.4093C22.2849 73.4093 22.84 73.4093 23.3158 73.2504C23.4744 73.1709 23.6331 73.2504 23.7124 73.2504C24.1089 73.2504 24.5847 73.2504 24.9813 73.0915C25.1399 73.012 25.2985 73.0915 25.5364 73.012C25.9329 73.012 26.3295 73.012 26.726 72.8531C26.9639 72.7737 27.2811 72.7737 27.5983 72.7737C27.9156 72.7737 28.3121 72.7737 28.6293 72.6148C28.8672 72.5353 29.1845 72.5353 29.5017 72.5353C29.9775 72.5353 30.4533 72.5353 30.8499 72.3765C31.0878 72.297 31.405 72.3765 31.7222 72.297C32.6739 71.9792 33.6256 72.1381 34.5772 72.1381C34.9738 72.1381 35.291 72.297 35.6082 72.4559C35.7668 72.5353 35.8461 72.6148 35.8461 72.7737C35.8461 72.9326 35.8461 73.0915 35.8461 73.1709C35.8461 73.5682 35.8461 74.0448 35.8461 74.4421C35.8461 75.8721 35.8461 77.3816 35.8461 78.8117C35.8461 79.1295 35.8461 79.5267 36.0047 79.8445C36.084 80.0034 36.084 80.1623 36.084 80.4006C36.084 80.7184 36.084 81.1157 36.084 81.5129C36.084 81.7512 36.084 81.9101 36.1633 82.1485C36.2426 82.3074 36.2427 82.4663 36.2427 82.7046C36.2427 83.1018 36.2427 83.4991 36.4013 83.8963C36.4806 84.0552 36.4806 84.2141 36.4806 84.4524C36.4806 84.6113 36.4806 84.7702 36.5599 84.8497C36.7185 85.2469 36.7185 85.7236 36.7185 86.1208C36.7185 86.5975 36.7185 87.0742 36.7185 87.5509C36.7185 87.7098 36.7185 87.8687 36.7978 87.9481C36.9564 88.5042 36.8771 89.0604 36.8771 89.6165C36.8771 89.7754 36.7978 89.9343 36.7185 90.0932C36.6392 90.1726 36.6392 90.2521 36.4806 90.3315C36.2426 90.411 36.084 90.4904 35.8461 90.4904C35.4496 90.4904 35.0531 90.7288 34.7358 90.7288C34.1014 90.8082 33.5463 91.0466 32.9118 90.9671C32.2774 91.2055 31.5636 91.126 30.9292 91.126C30.6913 91.126 30.4533 91.126 30.2154 91.2849C30.0568 91.3643 29.8982 91.3643 29.6603 91.3643C29.3431 91.3643 28.9465 91.3643 28.6293 91.5232C28.4707 91.6027 28.3121 91.6027 28.0742 91.6027C27.6776 91.6027 27.2018 91.6027 26.8053 91.6821C26.6467 91.6821 26.4881 91.6821 26.4088 91.6821C25.9329 91.841 25.4571 91.841 24.9019 91.841C22.7607 91.841 20.8574 91.841 19.0333 91.841Z" fill="#281F1E"/>
<path d="M31.7222 26.5353C31.7222 26.7736 31.7222 26.8531 31.7222 26.9325C31.7222 27.0914 31.6429 27.2503 31.5636 27.3297C31.3257 27.6475 31.0878 27.8859 30.6912 27.8859C30.1361 27.8859 29.6603 28.1242 29.1051 28.1242C28.7086 28.1242 28.4707 28.2831 28.2328 28.6803C28.0742 28.9187 27.8362 29.0776 27.5983 29.157C27.2018 29.2365 26.8846 29.3954 26.488 29.3954C26.0915 29.3954 25.695 29.3954 25.2985 29.3954C24.9019 29.3954 24.5054 29.3954 24.1089 29.4748C23.9503 29.5543 23.7917 29.4748 23.5537 29.4748C22.9193 29.4748 22.3642 29.4748 21.7297 29.5543C21.4918 29.5543 21.2539 29.5543 21.0953 29.5543C20.4608 29.7132 19.8264 29.7132 19.1919 29.7132C18.8747 29.7132 18.4782 29.7132 18.161 29.8721C17.9231 29.9515 17.6058 29.9515 17.2886 29.9515C16.7335 29.9515 16.2576 29.9515 15.7025 30.1104C15.306 30.1899 14.9094 30.1899 14.5129 30.2693C14.275 30.3487 14.1164 30.3487 13.8785 30.2693C13.6406 30.1899 13.4026 30.1899 13.1647 30.1104C13.0061 30.031 12.8475 30.031 12.6096 30.1104C12.3717 30.1899 12.0544 30.1899 11.7372 30.2693C11.4993 30.2693 11.3407 30.1899 11.1821 30.031C11.1821 29.9515 11.1028 29.8721 11.1028 29.8721C11.0235 29.7132 10.9442 29.6337 10.7856 29.6337C10.7063 29.6337 10.5476 29.6337 10.4683 29.6337C10.0718 29.5543 9.83389 29.3954 9.67528 28.9981C9.59597 28.7598 9.51667 28.6009 9.51667 28.3626C9.51667 28.2037 9.43736 28.1242 9.43736 27.9653C9.43736 27.3297 9.19945 26.7736 9.19945 26.138C9.19945 25.8997 9.35806 25.7408 9.51667 25.5819C9.9132 25.3436 10.3097 25.2641 10.7063 25.1052C11.2614 24.9463 11.8165 24.8669 12.3717 24.708C12.5303 24.6285 12.6889 24.6285 12.9268 24.6285C13.0854 24.6285 13.3233 24.6285 13.4819 24.5491C13.7992 24.4696 14.1164 24.3902 14.4336 24.3902C14.8301 24.3902 15.306 24.3902 15.7025 24.3902C15.8611 24.3902 16.0197 24.3902 16.099 24.3902C16.6542 24.2313 17.13 24.2313 17.6851 24.2313C18.2403 24.2313 18.7954 24.2313 19.4299 24.2313C19.985 24.2313 20.5401 24.2313 21.016 24.0724C21.4125 24.0724 21.809 23.9929 22.2056 23.9929C22.6814 23.9929 23.1572 23.9929 23.5537 23.834C23.871 23.7546 24.1882 23.7546 24.5054 23.7546C24.8226 23.7546 25.0605 23.7546 25.3778 23.5957C25.5364 23.5163 25.695 23.5163 25.7743 23.5163C26.0915 23.5163 26.4087 23.4368 26.726 23.3574C26.9639 23.2779 27.2811 23.2779 27.5983 23.2779C27.9155 23.2779 28.3121 23.2779 28.6293 23.1985C28.8672 23.119 29.0258 23.119 29.2637 23.119C29.8189 23.119 30.2947 23.119 30.8499 23.119C31.0085 23.119 31.0878 23.1985 31.1671 23.3574C31.3257 23.6752 31.4843 23.9135 31.4843 24.2313C31.4843 24.4696 31.4843 24.6285 31.4843 24.8669C31.4843 25.2641 31.4843 25.6613 31.5636 26.0586C31.7222 26.2175 31.7222 26.4558 31.7222 26.5353Z" fill="#281F1E"/>
<path d="M2.93431 70.1519C3.56875 70.1519 4.04458 70.1519 4.59972 70.1519C4.99625 70.1519 5.39278 70.2313 5.78931 70.3107C5.94792 70.3902 6.10653 70.4696 6.18584 70.6285C6.26514 70.8669 6.34445 71.1052 6.34445 71.3436C6.34445 71.5819 6.34445 71.8203 6.42375 72.0586C6.58236 72.4559 6.50306 72.8531 6.74097 73.1709C6.89959 73.8859 7.29611 74.3626 7.77195 74.9188C7.93056 75.0776 8.08917 75.2365 8.24778 75.3954C8.80292 75.9516 9.43736 76.3488 10.2304 76.5077C10.3097 76.5077 10.389 76.5077 10.389 76.5872C10.4683 76.6666 10.5476 76.7461 10.5476 76.8255C10.5476 76.9844 10.5476 77.1433 10.5476 77.3816C10.5476 78.7323 10.6269 80.0829 10.6269 81.4335C10.6269 81.7513 10.6269 82.0691 10.7063 82.3869C10.7063 82.4663 10.7063 82.5458 10.7063 82.6252C10.7063 83.817 10.7063 85.0087 10.7063 86.2004C10.7063 86.2799 10.6269 86.4388 10.5476 86.4388H10.4683C10.3097 86.4388 10.0718 86.4387 9.9132 86.3593C8.96153 86.121 8.08917 85.8032 7.21681 85.247C6.18584 84.6114 5.23417 83.8964 4.44111 82.943C3.64806 82.0691 2.93431 81.0363 2.45847 79.924C2.22056 79.2884 2.06195 78.5734 1.90333 77.8583C1.90333 77.5405 1.82403 77.3022 1.74472 76.9844C1.66542 76.7461 1.66542 76.5872 1.66542 76.3488C1.66542 75.6338 1.58611 74.9982 1.58611 74.2832C1.58611 74.0448 1.50681 73.8065 1.34819 73.5681C1.34819 73.4887 1.26889 73.4092 1.18958 73.4092C0.872361 73.4092 0.475833 73.2503 0.158611 73.1709C0.0793056 73.3298 0 73.2503 0 73.012C0 72.9325 0 72.8531 0 72.7736C0.158611 71.9792 0.317222 71.2641 0.71375 70.5491C0.793056 70.4696 0.793056 70.3902 0.872361 70.3107C0.951667 70.2313 1.03097 70.1519 1.11028 70.1519C1.26889 70.1519 1.4275 70.1519 1.66542 70.1519C2.14125 70.1519 2.61708 70.1519 2.93431 70.1519Z" fill="#281F1E"/>
<path d="M36.084 77.6995C36.084 77.0639 36.084 76.5078 36.084 75.8722C36.084 75.7133 36.1633 75.6339 36.3219 75.5544C36.4012 75.475 36.4806 75.475 36.6392 75.3955C37.7494 74.9188 38.5425 74.0449 39.0976 72.9326C39.2562 72.6149 39.3356 72.2176 39.4942 71.8204C39.4942 71.2642 39.7321 70.7876 39.7321 70.2314C39.7321 69.9136 39.97 69.6753 40.2079 69.5958C40.4458 69.5164 40.6837 69.3575 40.9217 69.3575C41.2389 69.278 41.6354 69.278 41.9526 69.1192C42.5078 69.1192 43.0629 68.9603 43.618 68.8808C44.0939 68.8014 44.5697 68.7219 45.0455 68.563C45.2042 68.563 45.2835 68.4836 45.4421 68.563C45.6007 68.6425 45.7593 68.7219 45.8386 68.8808C45.9179 69.1191 46.0765 69.3575 46.0765 69.5958C46.1558 70.152 46.3144 70.6287 46.3144 71.1848C46.3144 71.4231 46.3937 71.582 46.473 71.8204C46.5523 72.0587 46.3144 72.456 46.0765 72.5354C45.9179 72.6149 45.7593 72.6943 45.6007 72.7737C44.9662 72.9326 44.5697 73.3299 44.4111 73.9655C44.1732 74.7599 43.9353 75.6339 43.7767 76.4283C43.4594 77.6995 43.1422 78.9707 42.7457 80.2418C42.5078 81.0363 42.1112 81.6719 41.6354 82.3075C41.3975 82.6253 41.2389 82.9431 40.9217 83.1019C40.4458 83.4992 40.0493 83.8964 39.5735 84.2142C38.8597 84.6909 38.146 85.1676 37.3529 85.4854C37.2736 85.5648 37.1943 85.5648 37.0357 85.5648C36.9564 85.5648 36.8771 85.5648 36.8771 85.4854C36.7978 85.0881 36.6392 84.7703 36.6392 84.3731C36.6392 83.9759 36.4012 83.6581 36.4012 83.1814C36.4012 82.7842 36.3219 82.4664 36.2426 82.1486C36.1633 81.7513 36.1633 81.3541 36.1633 80.9569C36.1633 80.6391 36.1633 80.2418 36.0047 79.924C35.9254 79.6857 35.9254 79.4474 35.9254 79.209C36.084 78.6529 36.084 78.1762 36.084 77.6995Z" fill="#281F1E"/>
<path d="M14.6715 11.4404C14.7508 11.3609 14.7508 11.202 14.8301 11.1226C15.0681 10.8048 15.4646 10.5665 15.7818 10.487C16.2576 10.3281 16.7335 10.1692 17.2093 10.2487C17.2886 10.2487 17.4472 10.2487 17.5265 10.2487C18.6368 10.2487 19.6678 10.2487 20.6988 10.2487C20.9367 10.2487 21.1746 10.2487 21.3332 10.2487C21.8883 10.4076 22.4435 10.4076 22.9986 10.4076C23.5538 10.4076 24.1089 10.4076 24.7433 10.4076C25.1399 10.4076 25.6157 10.4076 26.0122 10.5665C26.1708 10.6459 26.3294 10.5665 26.5674 10.6459C26.9639 10.6459 27.3604 10.6459 27.757 10.7254C27.9156 10.7254 28.0742 10.8843 28.0742 10.9637C28.0742 11.1226 27.9949 11.202 27.9156 11.2815C27.519 11.5198 27.1225 11.6787 26.8053 11.8376C25.9329 12.3143 25.2985 12.9499 25.0606 13.9033C24.9813 14.0622 24.9019 14.2211 24.9019 14.38C24.8226 14.9361 24.5054 15.4922 24.2675 15.9689C24.2675 16.0484 24.1882 16.1278 24.1882 16.1278C24.0296 16.3661 23.7917 16.4456 23.7124 16.6839C23.7917 16.9223 23.7917 17.1606 23.7917 17.399C23.7917 17.7962 23.7917 18.2729 23.7917 18.6701C23.7917 19.0674 23.7917 19.5441 23.9503 19.9413C24.0296 20.1796 24.0296 20.418 23.9503 20.6563C23.9503 20.7358 23.871 20.7358 23.7917 20.7358C23.7124 20.7358 23.6331 20.6563 23.6331 20.6563C23.6331 20.5769 23.6331 20.4974 23.5538 20.418C23.5538 20.3385 23.5538 20.1796 23.5538 20.1002C23.5538 19.5441 23.3951 19.0674 23.3951 18.5112C23.3951 17.9551 23.3951 17.4784 23.3158 16.9223C23.3158 16.8428 23.2365 16.8428 23.1572 16.7634C22.9193 16.7634 22.7607 16.9223 22.5228 16.9223C22.2849 16.9223 22.1263 17.0017 21.8883 17.0017C21.6504 17.0812 21.4125 17.0812 21.1746 17.0812C20.1436 17.1606 19.192 17.0812 18.2403 16.6839C18.161 16.6839 18.0024 16.7634 18.0024 16.8428C18.0024 17.0017 18.0024 17.1606 18.0024 17.399C18.0024 18.3523 18.0024 19.3057 18.0024 20.2591C18.0024 20.418 18.0024 20.5769 17.9231 20.8152C17.9231 20.8947 17.8438 20.8947 17.7644 20.8947C17.6851 20.8947 17.6058 20.8947 17.6058 20.8152C17.6058 20.5769 17.5265 20.3385 17.5265 20.1002C17.5265 19.0674 17.5265 17.9551 17.5265 16.9223C17.5265 16.6045 17.4472 16.3661 17.2886 16.1278C17.2093 16.0484 17.13 15.8895 17.13 15.7306C17.0507 15.3333 17.0507 14.8566 17.2093 14.4594C17.2886 14.1416 17.3679 13.8238 17.3679 13.506C17.3679 12.8704 17.13 12.3938 16.5749 12.076C16.2576 11.8376 15.8611 11.5993 15.3853 11.5198C15.2267 11.6787 14.9888 11.5198 14.6715 11.4404Z" fill="#281F1E"/>
<path d="M21.1746 10.0102C20.7781 10.0102 20.4608 9.85134 20.1436 9.69244C20.0643 9.69244 19.985 9.613 19.985 9.53355C19.9057 9.13632 19.6678 8.81854 19.6678 8.4213C19.6678 8.10352 19.6678 7.86518 19.8264 7.5474C19.985 7.07072 20.1436 6.67349 20.4608 6.3557C20.7781 5.95847 21.0953 5.48179 21.4918 5.08456C21.6504 4.92567 21.7297 4.76678 21.8883 4.60788C22.1263 4.2901 22.4435 4.05176 22.6814 3.73397C22.6814 3.73397 22.7607 3.65453 22.7607 3.73397C22.84 3.73397 22.84 3.81342 22.9193 3.89287C22.9986 4.2901 22.9193 4.68733 22.7607 5.00512C22.6814 5.16401 22.6814 5.24345 22.7607 5.40235L22.84 5.48179H22.9193C23.0779 5.3229 23.3158 5.16401 23.3952 4.92567C23.871 4.21065 24.3468 3.57508 24.902 3.01896C25.2985 2.46283 25.7743 1.98616 26.2502 1.50948C26.3295 1.43003 26.3295 1.43003 26.4088 1.35059C26.4881 1.35059 26.5674 1.35059 26.6467 1.35059C26.726 1.35059 26.726 1.43003 26.726 1.50948C26.8053 1.82726 26.6467 2.0656 26.5674 2.30394C26.5674 2.38339 26.6467 2.38339 26.6467 2.46283C26.6467 2.46283 26.726 2.46283 26.726 2.38339C27.0432 2.0656 27.4397 1.82726 27.8363 1.50948C28.1535 1.27114 28.4707 1.0328 28.8672 0.953355C29.1845 0.873909 29.5017 0.715016 29.8982 0.63557C30.2154 0.556124 30.5327 0.397231 30.9292 0.317785C31.2464 0.317785 31.5636 0.0794463 31.9602 0.0794463C32.1188 0.0794463 32.1981 0 32.3567 0C32.436 0 32.5153 0 32.5153 0.0794463C32.5946 0.158893 32.5946 0.317785 32.5153 0.397231C32.5153 0.476678 32.5153 0.476678 32.436 0.556124C31.6429 1.0328 30.9292 1.58893 30.1361 2.0656C29.1845 2.54228 28.3914 3.17785 27.757 4.05176V4.13121L27.8363 4.21065C28.0742 4.2901 28.2328 4.21065 28.4707 4.13121C28.7879 3.97231 29.1052 3.81342 29.4224 3.65453C29.5017 3.65453 29.581 3.65453 29.6603 3.81342V3.89287C29.6603 3.89287 29.6603 3.97231 29.581 3.97231C29.2638 4.36954 28.7879 4.68733 28.3121 5.00512C27.9949 5.16401 27.6777 5.40235 27.4397 5.56124C27.2018 5.72013 26.9639 5.87902 26.8053 6.11736C26.8053 6.11736 26.726 6.19681 26.8053 6.19681C26.9639 6.3557 27.0432 6.3557 27.1225 6.3557C27.2018 6.3557 27.2811 6.27626 27.4397 6.27626C27.5984 6.27626 27.6777 6.27626 27.8363 6.43515C27.9156 6.51459 27.9156 6.75293 27.8363 6.83238C27.2811 7.46795 26.6467 8.02407 25.9329 8.50075C25.6157 8.73909 25.2192 8.89798 24.902 9.13632C24.3468 9.29521 23.7917 9.69244 23.1572 9.69244C22.7607 9.69244 22.3642 9.85134 21.8883 10.0102C21.6504 10.0102 21.4125 10.0102 21.1746 10.0102Z" fill="#FFD583"/>
<path d="M13.9578 72.5354C13.9578 72.297 13.9578 72.0587 14.0371 71.8204C14.0371 71.7409 14.1164 71.582 14.1957 71.582C14.7508 71.2642 15.2267 70.9465 15.8611 70.867C16.099 70.867 16.3369 70.6287 16.5749 70.6287C16.8128 70.6287 16.9714 70.6287 17.2093 70.6287C17.2886 70.6287 17.3679 70.6287 17.4472 70.6287C18.0024 70.4698 18.5575 70.4698 19.1126 70.4698C19.1919 70.4698 19.2712 70.4698 19.3505 70.4698C19.9057 70.2315 20.5401 70.3109 21.1746 70.3109C21.6504 70.3109 22.2055 70.3109 22.6814 70.152C22.9193 70.0726 23.2365 70.152 23.5537 70.0726C24.0296 70.0726 24.5847 70.0726 25.0605 69.9137C25.3778 69.9137 25.695 69.9137 26.0122 69.8342C26.4087 69.8342 26.8053 69.8342 27.2018 69.6753C27.3604 69.5959 27.519 69.5959 27.7569 69.5959C27.9155 69.5959 28.0741 69.5959 28.1535 69.5164C28.7086 69.2781 29.343 69.3576 29.9775 69.3576C30.1361 69.3576 30.2947 69.437 30.4533 69.5959C30.5326 69.6753 30.6119 69.7548 30.6119 69.8342C30.7705 70.0726 31.0878 71.2642 31.1671 71.6615C31.1671 71.7409 31.0878 71.8998 31.0084 71.8998C30.6119 71.9793 30.2154 72.1381 29.7396 72.1381C29.1844 72.1381 28.7086 72.1381 28.1535 72.297C27.9948 72.3765 27.8362 72.297 27.7569 72.297C27.2811 72.297 26.726 72.297 26.2501 72.4559C26.0915 72.5354 25.8536 72.4559 25.6157 72.5354C25.2985 72.5354 24.9812 72.5354 24.664 72.6943C24.5847 72.7737 24.4261 72.7737 24.3468 72.7737C23.7917 72.7737 23.3158 72.7737 22.7607 72.9326C22.5228 73.012 22.2055 72.9326 21.8883 73.012C21.4918 73.012 21.0953 73.012 20.6987 73.1709C20.5401 73.2504 20.3815 73.2504 20.1436 73.2504C19.8264 73.2504 19.5092 73.2504 19.1919 73.2504C19.0333 73.2504 18.8747 73.2504 18.7954 73.2504C18.161 73.4887 17.4472 73.4093 16.8128 73.4093C16.3369 73.4093 15.7818 73.4093 15.306 73.5682C14.9887 73.6476 14.6715 73.6476 14.3543 73.5682C14.275 73.5682 14.1957 73.4887 14.1957 73.4093C13.9578 73.0915 13.9578 72.8532 13.9578 72.5354Z" fill="#281F1E"/>
<path d="M9.67526 43.2988C9.91317 43.2194 10.389 43.3783 10.7855 43.5372C10.9441 43.6166 11.1028 43.7755 11.1028 43.9344C11.1821 44.3316 11.3407 44.7289 11.3407 45.2056C11.3407 45.4439 11.5786 46.4767 11.7372 46.7151C11.8958 47.1123 12.0544 47.589 12.3717 47.9862C12.6096 48.3834 12.9268 48.6218 13.244 48.9396C13.7199 49.2574 14.1957 49.5751 14.7508 49.8135C14.9094 49.8929 14.9887 49.9724 14.9887 50.1313C14.9887 50.5285 14.9887 50.9257 14.9887 51.323C14.9887 51.7997 14.9887 52.3558 15.1474 52.8325C15.1474 53.1502 15.1474 53.5475 15.1474 53.8653C15.1474 54.0242 14.9887 54.1036 14.8301 54.1036C14.7508 54.1036 14.5922 54.1036 14.5129 54.1036C13.9578 53.9447 13.3233 53.8653 12.7682 53.5475C12.6096 53.468 12.451 53.3886 12.2923 53.3091C11.7372 53.0708 11.2614 52.6736 10.8648 52.1969C10.7062 51.9585 10.4683 51.7202 10.389 51.4819C9.75456 50.2902 9.19942 49.019 8.96151 47.6684C8.8822 47.2712 8.72359 46.8739 8.72359 46.4767C8.72359 46.0795 8.56498 45.7617 8.32706 45.5234C8.16845 45.3645 8.08914 45.1261 8.16845 44.9672C8.24775 44.57 8.32706 44.1728 8.40637 43.855C8.40637 43.6961 8.56498 43.6166 8.64428 43.4577C8.64428 43.3783 8.72359 43.3783 8.80289 43.3783C9.04081 43.3783 9.27873 43.3783 9.67526 43.2988Z" fill="#281F1E"/>
<path d="M27.2811 48.6217C27.4397 48.4628 27.4397 48.3834 27.519 48.3039C28.1535 47.6683 28.6293 46.9533 29.0258 46.0794C29.1845 45.6821 29.4224 45.2054 29.581 44.8082C29.6603 44.411 29.8189 44.0932 29.8982 43.6959C29.8982 43.3781 30.0568 43.1398 30.0568 42.9015C30.1361 42.6631 30.2154 42.5042 30.4534 42.4248C30.5327 42.3453 30.6913 42.2659 30.8499 42.1864C31.2464 42.0275 31.7222 41.8686 32.1981 41.7892C32.5153 41.7892 32.8325 41.9481 32.9118 42.1864C33.0704 42.6631 33.2291 43.0603 33.2291 43.537C33.2291 43.9343 33.1497 44.1726 32.7532 44.2521C32.6739 44.2521 32.5153 44.3315 32.436 44.411C32.3567 44.4904 32.2774 44.5699 32.2774 44.6493C32.1981 44.8082 32.1188 44.9671 32.1188 45.126C32.1188 45.841 31.8809 46.6355 31.8809 47.3505C31.5636 48.7011 31.3257 49.9723 30.6913 51.164C30.2947 51.9585 29.6603 52.5941 28.9465 53.1502C28.6293 53.3886 28.3121 53.6269 27.9156 53.7064C27.757 53.7858 27.5983 53.6269 27.5983 53.468C27.5983 53.0708 27.5983 52.5941 27.5983 52.1968C27.5983 51.7996 27.5983 51.4024 27.519 51.0051C27.519 50.9257 27.519 50.7668 27.519 50.6873C27.2811 50.0518 27.2811 49.4162 27.2811 48.6217Z" fill="#281F1E"/>
<path d="M23.0779 21.4507C23.5537 21.4507 24.1089 21.4507 24.5847 21.4507C24.9812 21.4507 25.2192 21.5302 25.3778 22.0068C25.3778 22.1657 25.5364 22.3246 25.5364 22.4835C25.5364 22.6423 25.5364 22.8012 25.5364 22.8807C25.5364 22.9601 25.3778 23.1984 25.2985 23.1984C25.2192 23.1984 25.0605 23.2779 24.9812 23.2779C24.7433 23.2779 24.5054 23.2779 24.2675 23.2779C24.1089 23.2779 23.9503 23.2779 23.871 23.2779C23.3951 23.4368 22.9986 23.4368 22.5228 23.4368C21.9676 23.4368 21.4918 23.4368 20.9367 23.5957C20.778 23.6751 20.6194 23.5957 20.3815 23.5957C19.5092 23.5957 18.6368 23.5956 17.8437 23.6751C17.5265 23.6751 17.2886 23.6751 16.9714 23.7545C16.4955 23.9134 16.0197 23.834 15.4646 23.834C15.3853 23.834 15.306 23.7545 15.306 23.6751C15.2266 23.1984 15.2266 22.7218 15.306 22.3246C15.306 22.1657 15.4646 22.0863 15.5439 22.0068C15.9404 21.9274 16.2576 21.7685 16.6542 21.7685C16.8128 21.7685 17.0507 21.7685 17.2093 21.689C17.6058 21.5302 18.0023 21.5302 18.3989 21.5302C18.954 21.5302 19.5092 21.5302 20.1436 21.4507C20.3022 21.4507 20.4608 21.4507 20.5401 21.4507C21.3332 21.3713 22.2055 21.4507 23.0779 21.4507Z" fill="#FFD583"/>
<path d="M22.2849 67.3711C21.4918 67.3711 21.016 67.2122 20.5401 66.9739C19.985 66.6561 19.5092 66.1794 19.1126 65.7028C18.5575 65.0672 18.0817 64.3522 17.7644 63.5577C17.6851 63.4783 17.6851 63.3194 17.6851 63.2399C17.6851 63.1605 17.6851 63.0016 17.7644 62.9221C17.923 62.8427 18.0023 62.7632 18.161 62.6838C18.954 62.366 19.5092 61.8099 19.985 61.0949C20.2229 60.6976 20.4608 60.3004 20.6987 59.9032C20.8574 59.6648 20.8574 59.4265 20.6987 59.1882C20.5401 59.0293 20.6194 58.7909 20.6987 58.5526C20.778 58.1554 21.2539 57.6787 21.6504 57.5992C21.7297 57.5992 21.8883 57.5992 21.9676 57.5992C22.5228 57.6787 22.9193 58.1554 22.9986 58.7115C22.9986 58.8704 22.9986 59.0293 22.9193 59.1087C22.84 59.3471 22.84 59.5059 22.9193 59.7443C23.0779 60.0621 23.2365 60.4593 23.4744 60.7771C23.7124 61.1743 24.1089 61.4921 24.5054 61.7304C24.664 61.8099 24.8226 61.8893 24.9812 61.8893C25.2985 61.9688 25.6157 62.0482 25.9329 62.1277C26.0122 62.1277 26.0122 62.2071 26.0122 62.2866C26.0122 62.366 26.0915 62.5249 26.0122 62.6044C25.7743 63.5577 25.5364 64.4316 25.0606 65.3055C24.5847 66.1794 23.871 66.815 22.9193 67.1328C22.6021 67.3711 22.3642 67.3711 22.2849 67.3711Z" fill="#281F1E"/>
<path d="M22.6021 35.3539C22.7607 35.7512 22.84 36.1484 22.9986 36.5456C23.2365 37.3401 23.7917 37.9757 24.5054 38.4524C24.5847 38.5318 24.7433 38.5318 24.9019 38.6113C25.0606 38.6907 25.2985 38.7702 25.4571 38.8496C25.5364 38.8496 25.6157 39.0879 25.6157 39.1674C25.6157 39.2468 25.6157 39.4057 25.5364 39.4852C24.9813 40.4385 24.4261 41.3125 23.4744 41.948C23.1572 42.1864 22.9193 42.4247 22.6021 42.5836C22.3642 42.6631 22.2056 42.7425 21.9676 42.7425C20.8574 42.9014 19.985 42.4247 19.1126 41.7891C18.7954 41.5508 18.4782 41.1536 18.3196 40.7563C18.2403 40.5974 18.161 40.3591 18.0817 40.2002C18.0024 39.9619 18.0817 39.5646 18.3196 39.4057C18.7161 39.1674 19.1126 38.8496 19.5092 38.4524C20.2229 37.6579 20.5401 36.784 20.4608 35.7512C20.4608 35.6717 20.3815 35.5128 20.3022 35.4334C20.0643 35.195 19.985 34.9567 19.985 34.6389C19.985 34.48 19.985 34.3211 19.985 34.2417C20.1436 34.0033 20.2229 33.6855 20.4608 33.5267C20.6988 33.3678 21.016 33.2089 21.3332 33.2089C21.4918 33.2089 21.6504 33.2089 21.7297 33.2089C22.1263 33.2089 22.4435 33.3678 22.6814 33.6855C22.84 33.8444 22.9193 34.0033 22.9193 34.2417C22.9986 34.7184 22.9193 34.7978 22.6021 35.3539Z" fill="#281F1E"/>
<path d="M13.0061 22.1658C12.8475 22.2453 12.6889 22.2453 12.6096 22.3247C12.5303 22.4042 12.451 22.4836 12.451 22.5631C12.451 22.8014 12.5303 23.0398 12.5303 23.2781C12.6096 23.6753 12.7682 24.0726 12.8475 24.5492C12.8475 24.6287 12.8475 24.7876 12.8475 24.867C12.8475 24.9465 12.7682 24.9465 12.6889 25.0259C12.6096 25.1054 12.5303 25.0259 12.5303 24.9465C12.451 24.7081 12.2924 24.4698 12.2924 24.2315C12.2131 23.6753 12.0545 23.1192 11.9751 22.5631C11.8958 22.007 11.8958 22.007 12.451 21.8481C12.6889 21.7686 12.9268 21.6892 13.1647 21.6892C13.6406 21.6097 14.0371 21.3714 14.5129 21.4508C14.9888 21.2919 15.3853 21.2919 15.8611 21.2125C16.1783 21.2125 16.5749 21.0536 16.8921 21.0536C17.2093 21.0536 17.6058 20.9742 17.9231 20.8947C18.0817 20.8153 18.2403 20.8947 18.4782 20.8153C18.8747 20.8153 19.2712 20.8153 19.6678 20.6564C19.8264 20.5769 19.985 20.5769 20.2229 20.5769C20.6194 20.5769 21.016 20.5769 21.4125 20.418C21.5711 20.3386 21.7297 20.3386 21.9676 20.3386C22.3642 20.3386 22.84 20.3386 23.2365 20.2591C23.5537 20.2591 23.871 20.2591 24.1882 20.1797C24.2675 20.1797 24.4261 20.1797 24.5054 20.1797C25.2985 20.1797 26.0915 20.1797 26.8846 20.1797C27.1225 20.1797 27.2811 20.3386 27.3604 20.4975C27.4397 20.6564 27.519 20.8153 27.519 20.9742C27.519 21.4508 27.519 22.007 27.519 22.4836C27.519 23.1192 27.519 23.7548 27.519 24.3903C27.519 24.4698 27.519 24.6287 27.4397 24.7081C27.4397 24.7876 27.2811 24.7876 27.2811 24.7876C27.2018 24.7876 27.1225 24.7081 27.1225 24.7081C27.1225 24.3903 27.1225 23.9931 27.1225 23.6753C27.1225 22.722 27.1225 21.8481 27.0432 20.8947C27.0432 20.8153 26.9639 20.6564 26.8846 20.6564C26.5674 20.6564 26.3294 20.6564 26.0122 20.6564C25.9329 20.6564 25.8536 20.7358 25.8536 20.8153C25.8536 21.4508 25.7743 22.0864 25.9329 22.722C26.0122 23.0398 26.0122 23.3575 26.0122 23.6753C26.0122 23.7548 25.9329 23.7548 25.8536 23.8342C25.7743 23.8342 25.695 23.8342 25.695 23.7548C25.695 23.6753 25.6157 23.5959 25.6157 23.5164C25.6157 23.1192 25.5364 22.6425 25.4571 22.2453C25.3778 21.8481 25.4571 21.4508 25.3778 21.0536C25.3778 20.9742 25.3778 20.8153 25.2985 20.7358L25.2192 20.6564C24.9019 20.5769 24.5054 20.5769 24.1882 20.6564C24.1089 20.6564 24.1089 20.7358 24.1089 20.8153C24.1089 21.6097 24.1089 22.4042 24.1089 23.1987C24.1089 23.3575 24.1089 23.5164 24.1089 23.7548C24.1089 23.8342 24.0296 23.9137 24.0296 23.9137C23.9503 23.9137 23.871 23.8342 23.871 23.8342C23.7917 23.7548 23.7917 23.6753 23.7917 23.5164C23.7917 23.0398 23.7917 22.5631 23.7917 22.0864C23.7917 21.7686 23.7917 21.4508 23.7917 21.133C23.7917 21.0536 23.7917 20.9742 23.7124 20.9742C23.7124 20.8947 23.6331 20.8947 23.5537 20.8153C23.3158 20.7358 23.1572 20.7358 22.9193 20.8153C22.84 20.8153 22.84 20.8947 22.7607 20.9742C22.7607 21.0536 22.7607 21.133 22.7607 21.2125C22.7607 21.3714 22.7607 21.5303 22.84 21.6097C22.84 21.8481 22.9193 22.007 22.9193 22.2453C22.9193 22.9603 22.9986 23.5959 22.9193 24.3109C22.9193 24.3903 22.84 24.3903 22.7607 24.3903C22.6814 24.3109 22.6021 24.2315 22.6021 24.152C22.6021 23.9931 22.5228 23.8342 22.5228 23.5959C22.5228 23.0398 22.5228 22.4836 22.5228 21.8481C22.5228 21.6892 22.5228 21.5303 22.5228 21.4508C22.3642 20.8947 22.4435 20.8153 21.7297 20.8947C21.4125 20.8947 21.2539 21.133 21.2539 21.3714C21.2539 22.007 21.2539 22.6425 21.2539 23.2781C21.2539 23.5959 21.3332 23.8342 21.4125 24.152C21.4125 24.152 21.4125 24.2315 21.3332 24.2315C21.2539 24.2315 21.1746 24.2315 21.0953 24.2315L21.016 24.152C20.6987 23.8342 20.6194 23.5164 20.6194 23.1987C20.6194 22.5631 20.6194 21.9275 20.6194 21.2919C20.6194 21.133 20.4608 21.0536 20.3815 21.0536C20.2229 21.0536 20.0643 21.0536 19.985 21.0536C19.6678 21.133 19.2712 21.2125 18.954 21.2919C18.8747 21.2919 18.7954 21.3714 18.7954 21.4508C18.7954 22.1658 18.7954 22.8809 18.7954 23.5959C18.7954 23.9137 18.954 24.2315 18.8747 24.5492C18.8747 24.6287 18.7954 24.6287 18.7161 24.6287H18.6368L18.5575 24.5492C18.4782 24.0726 18.3196 23.6753 18.3196 23.1987C18.3196 22.6425 18.3196 22.0864 18.3196 21.6097C18.3196 21.3714 18.161 21.2919 17.9231 21.3714C17.6058 21.5303 17.2886 21.4508 16.9714 21.5303C16.8921 21.5303 16.8128 21.6097 16.8128 21.6892C16.8128 21.8481 16.7335 22.007 16.8128 22.0864C16.8921 22.4836 16.9714 22.9603 16.9714 23.3575C16.9714 23.7548 16.9714 24.2315 16.9714 24.6287C16.9714 24.7081 16.8921 24.7876 16.8128 24.7876H16.7335C16.6542 24.7081 16.5749 24.6287 16.5749 24.5492C16.5749 24.2315 16.5749 23.8342 16.5749 23.437C16.5749 23.0398 16.5749 22.5631 16.5749 22.1658C16.5749 22.0864 16.4956 21.9275 16.4956 21.8481C16.4956 21.7686 16.4163 21.6892 16.3369 21.6892C16.0197 21.6097 15.6232 21.6097 15.306 21.7686C15.2267 21.7686 15.2267 21.8481 15.2267 21.9275C15.2267 22.4042 15.2267 22.9603 15.306 23.437C15.3853 23.9931 15.4646 24.4698 15.3853 25.0259C15.3853 25.1054 15.306 25.1054 15.2267 25.1054H15.1474L15.0681 25.0259C15.0681 24.867 14.9888 24.7876 14.9888 24.6287C14.9888 24.0726 14.9888 23.5164 14.8301 22.9603C14.7508 22.722 14.8301 22.5631 14.8301 22.3247C14.8301 22.0864 14.6715 22.007 14.4336 22.007C14.3543 22.007 14.275 22.007 14.1957 22.007C13.8785 22.0864 13.7199 22.2453 13.7992 22.4836C13.7992 22.6425 13.7992 22.8014 13.7992 22.8809C13.9578 23.5164 13.9578 24.152 14.0371 24.7876C14.0371 24.9465 14.1957 25.1054 14.1164 25.3437C14.1164 25.4232 14.0371 25.4231 13.9578 25.5026C13.8785 25.5026 13.7992 25.5026 13.7992 25.4232C13.7199 25.2643 13.6406 25.0259 13.6406 24.7876C13.6406 24.4698 13.6406 24.2315 13.6406 23.9137C13.3233 23.2781 13.1647 22.722 13.0061 22.1658Z" fill="#281F1E"/>
<path d="M21.809 51.1641C22.2056 51.0052 22.4435 50.8463 22.84 50.7669C23.0779 50.7669 23.2365 50.608 23.3952 50.5285C23.6331 50.3696 23.871 50.2107 23.9503 49.8929C24.0296 49.734 24.0296 49.5752 23.9503 49.4163C23.9503 49.3368 23.871 49.2574 23.871 49.1779C23.9503 49.0985 24.0296 49.019 24.1089 48.9396C24.2675 48.8601 24.3468 48.8601 24.5054 48.8601C24.7433 48.9396 24.902 49.0985 25.0606 49.3368C25.1399 49.4163 25.0606 49.6546 24.902 49.6546C24.8227 49.6546 24.664 49.6546 24.5847 49.734C24.4261 50.1313 24.1882 50.4491 23.7917 50.7669C23.6331 50.9258 23.4745 51.0052 23.2365 51.0847C22.9986 51.1641 22.7607 51.2435 22.5228 51.323C22.1263 51.4024 21.8883 51.6408 21.7297 51.9586C21.7297 52.038 21.6504 52.1175 21.6504 52.1969C21.5711 52.2764 21.4918 52.3558 21.4125 52.2764C21.0953 51.7997 20.6195 51.6408 20.1436 51.7202C19.8264 51.7202 19.5885 51.6408 19.3506 51.5613C19.192 51.4819 19.0333 51.323 18.8747 51.0847C18.7954 50.9258 18.7161 50.7669 18.6368 50.608C18.5575 50.4491 18.4782 50.3696 18.3989 50.2902C18.3196 50.2107 18.2403 50.1313 18.3196 50.0518C18.3989 49.8135 18.5575 49.6546 18.7161 49.6546C18.8747 49.6546 19.0333 49.6546 19.1127 49.734C19.2713 49.8135 19.2713 49.9724 19.192 50.0518C18.7954 50.608 19.3506 51.323 19.9057 51.323C20.0643 51.323 20.3022 51.323 20.4608 51.323C20.6988 51.323 20.8574 51.323 21.0953 51.4024C21.1746 51.4024 21.2539 51.4024 21.2539 51.2435C21.2539 50.2902 21.2539 49.4163 21.2539 48.4629C21.2539 48.304 21.1746 48.1451 20.9367 48.1451C20.8574 48.1451 20.6988 48.1451 20.6195 48.1451C20.6195 48.1451 20.5402 48.1451 20.5402 48.0656C20.5402 47.9862 20.5402 47.9068 20.6195 47.9068C20.8574 47.7479 20.9367 47.589 21.016 47.2712C21.0953 46.8739 21.2539 46.6356 21.6504 46.4767C21.809 46.3973 21.9677 46.3973 22.1263 46.4767C22.2849 46.5561 22.4435 46.715 22.4435 46.8739C22.5228 47.0328 22.5228 47.1917 22.4435 47.3506C22.3642 47.5095 22.4435 47.589 22.6021 47.6684C22.6814 47.6684 22.6814 47.7479 22.6814 47.8273C22.6814 47.9068 22.6021 47.9862 22.5228 47.9862C22.2849 48.1451 22.047 48.0656 21.809 48.0656C21.7297 48.0656 21.6504 48.1451 21.6504 48.1451L21.5711 48.2245C21.7297 49.0985 21.6504 49.9724 21.7297 50.9258C21.7297 51.0052 21.7297 51.0847 21.809 51.1641ZM21.7297 46.7945C21.5711 46.8739 21.4918 46.8739 21.4125 46.9534C21.2539 47.1123 21.2539 47.3506 21.4125 47.5095C21.4918 47.589 21.5711 47.589 21.5711 47.5095C21.7297 47.4301 21.8883 47.3506 21.8883 47.1123C21.8883 47.0328 21.8883 46.9534 21.809 46.9534C21.8883 46.8739 21.809 46.8739 21.7297 46.7945Z" fill="#281F1E"/>
</svg>
