<svg width="180" height="357" viewBox="0 0 180 357" fill="none" xmlns="http://www.w3.org/2000/svg">
<path d="M97.3394 116.077C99.4888 116.077 100.717 116.077 101.945 116.077C102.559 116.077 102.867 116.692 102.867 117C102.867 117.923 102.867 118.538 103.174 119.461C103.174 120.076 103.174 120.691 103.174 120.999C104.095 124.075 103.788 127.151 104.095 129.92C104.095 130.535 104.402 131.15 104.402 131.458C104.709 132.073 104.402 132.688 104.402 132.996C104.095 133.303 104.095 133.919 104.402 134.226C104.709 135.149 104.709 136.072 104.709 136.995C104.709 142.224 104.709 147.454 104.709 152.683C104.709 153.606 104.709 154.529 104.402 155.452C104.095 156.067 104.095 156.682 104.095 157.605C104.095 162.527 104.095 167.449 104.095 172.678C104.095 173.601 104.095 174.524 104.402 175.447C104.709 176.062 104.709 176.677 104.709 176.985C104.709 179.753 104.709 182.522 104.709 185.29C104.709 185.905 104.709 186.521 104.709 186.828C103.788 189.289 104.402 192.058 104.402 194.519C105.323 197.902 104.709 201.286 105.016 204.977C105.016 206.823 105.016 208.669 105.016 210.514C105.016 211.13 105.016 211.745 105.323 212.052C105.937 213.283 105.937 214.513 105.937 215.744C105.937 220.05 105.937 224.357 105.937 228.664C105.937 229.894 105.937 230.817 106.244 232.047C106.551 232.663 106.551 233.278 106.551 234.201C106.551 238.507 106.551 243.121 106.858 247.428C106.858 248.351 106.858 249.274 107.165 250.197C107.473 250.812 107.473 251.427 107.473 252.35C107.473 253.888 107.473 255.734 107.78 257.272C107.78 258.502 108.087 260.04 108.394 261.271C108.701 263.116 108.701 264.962 108.394 266.5C108.394 266.808 108.087 267.115 107.78 267.115C106.551 267.423 105.63 267.115 104.402 267.423C102.559 268.038 100.717 268.038 98.5676 268.038C97.3394 268.038 95.8041 268.038 94.5758 268.653C93.9617 268.961 93.3475 268.961 92.4263 268.961C90.891 268.961 89.0486 268.961 87.5133 269.269C86.8992 269.269 86.2851 269.269 85.978 269.269C84.1356 269.884 82.2932 269.884 80.1438 269.884C78.3014 269.884 76.1519 269.576 74.3095 270.499C73.0813 270.499 71.853 270.499 70.6247 270.807C69.3965 270.807 68.4753 270.807 67.247 271.422C66.0188 271.73 64.7905 271.729 63.5623 271.729C63.2552 271.729 62.6411 271.422 62.6411 271.114C62.6411 270.807 62.6411 270.191 62.6411 269.884C62.6411 266.808 62.6411 263.424 62.6411 260.348C62.6411 258.502 62.9481 256.349 62.0269 254.503C61.7199 253.888 62.0269 253.273 62.0269 252.965C62.0269 249.274 62.0269 245.582 61.7199 241.891C61.7199 240.661 61.7199 239.738 61.4128 238.507C61.1057 237.892 61.1057 237.277 61.1057 236.354C61.1057 232.355 60.7987 228.664 61.1057 224.665C61.1057 221.896 61.1057 219.128 60.7987 216.359C60.7987 216.051 60.4916 215.436 60.4916 215.129C60.4916 214.821 60.1845 214.206 60.4916 213.898C61.1057 212.36 60.7987 210.822 60.7987 209.284C60.7987 207.746 61.1057 206.208 60.4916 204.67C60.1845 204.055 60.1845 203.439 60.1845 202.516C60.1845 200.056 60.1845 197.595 59.8775 195.134C59.8775 193.903 59.8775 192.673 59.5704 191.442C59.2633 190.827 59.2633 189.904 59.2633 188.982C59.2633 185.905 59.2633 182.522 58.9563 179.445C58.9563 177.6 58.9563 175.447 58.6492 173.601C58.3422 172.678 58.6492 171.448 58.6492 170.217C58.6492 157.605 58.6492 144.685 58.6492 132.073C58.6492 130.535 58.6492 128.689 58.6492 127.151C58.0351 125.613 58.0351 123.767 57.421 122.229C57.1139 121.614 57.1139 120.691 57.1139 119.768C57.1139 119.153 57.421 118.538 58.0351 118.538C58.6492 118.538 59.5704 118.538 60.1845 118.23C62.334 117.615 64.4834 117.615 66.6329 117.615C68.1682 117.615 69.7036 117.615 71.2389 117C71.853 116.692 72.4671 117 72.7742 117C74.6166 117 76.459 117 78.3014 116.692C78.9155 116.692 79.8367 116.692 80.4508 116.385C81.372 116.077 82.2932 116.077 83.2144 116.077C85.6709 116.077 88.1274 116.077 90.584 115.77C91.8122 115.77 93.0405 115.77 94.2687 115.154C95.1899 116.385 96.7253 116.077 97.3394 116.077Z" fill="#FFD583"/>
<path d="M73.6955 356.323C66.633 356.323 59.8776 356.323 52.8151 356.323C50.6656 356.323 48.5162 356.016 46.3667 356.938C46.0597 356.938 45.4455 356.938 45.1385 356.938C44.8314 356.938 44.5243 356.631 44.5243 356.631C43.9102 356.016 43.6031 355.093 43.6031 354.478C43.6031 352.939 43.6031 351.709 43.6031 350.171C43.6031 342.173 43.6031 334.483 43.6031 326.485C43.6031 325.254 43.6031 324.024 43.6031 322.793C43.6031 322.178 43.6031 321.255 43.2961 320.64C42.989 319.717 42.989 318.794 42.989 317.872C42.989 312.642 42.989 307.72 42.6819 302.491C42.6819 301.26 42.6819 299.722 42.3749 298.492C42.3749 298.184 42.3749 297.569 42.3749 297.261C42.3749 294.801 42.3749 292.34 42.3749 289.879C42.3749 288.956 42.6819 288.341 43.9102 288.341C45.1385 288.341 46.0597 288.341 47.2879 288.341C47.902 288.341 48.5162 288.341 48.8232 288.341C51.5868 287.418 54.3504 287.725 57.114 287.725C58.6493 287.725 60.4917 287.725 62.027 287.11C62.6412 286.803 63.2553 287.11 63.5623 287.11C65.7118 287.11 67.8612 287.11 70.3178 286.803C71.546 286.803 73.0814 286.803 74.3096 286.187C75.2308 285.88 76.4591 285.88 77.6873 285.88C78.9156 285.88 80.4509 285.88 81.6792 285.265C82.6004 284.957 83.5215 284.957 84.4427 284.957C86.2851 284.957 88.4346 284.957 90.277 284.342C90.8911 284.034 91.5052 284.342 91.8123 284.342C93.3476 284.342 95.19 284.342 96.7253 283.727C97.3395 283.419 97.9536 283.727 98.8748 283.419C100.41 283.419 101.945 283.419 103.481 282.804C104.402 282.496 105.63 282.496 106.858 282.496C108.087 282.496 109.622 282.496 110.85 281.881C111.771 281.573 113 281.573 114.228 281.573C116.07 281.573 117.913 281.573 119.448 280.958C120.369 280.65 121.598 280.958 122.826 280.65C126.511 279.42 130.195 280.035 133.88 280.035C135.415 280.035 136.644 280.65 137.872 281.266C138.486 281.573 138.793 281.881 138.793 282.496C138.793 283.111 138.793 283.727 138.793 284.034C138.793 285.572 138.793 287.418 138.793 288.956C138.793 294.493 138.793 300.338 138.793 305.875C138.793 307.105 138.793 308.643 139.407 309.874C139.714 310.489 139.714 311.104 139.714 312.027C139.714 313.257 139.714 314.795 139.714 316.334C139.714 317.256 139.714 317.872 140.021 318.794C140.329 319.41 140.329 320.025 140.329 320.948C140.329 322.486 140.329 324.024 140.943 325.562C141.25 326.177 141.25 326.792 141.25 327.715C141.25 328.33 141.25 328.946 141.557 329.253C142.171 330.791 142.171 332.637 142.171 334.175C142.171 336.021 142.171 337.866 142.171 339.712C142.171 340.327 142.171 340.943 142.478 341.25C143.092 343.403 142.785 345.557 142.785 347.71C142.785 348.325 142.478 348.941 142.171 349.556C141.864 349.863 141.864 350.171 141.25 350.479C140.329 350.786 139.714 351.094 138.793 351.094C137.258 351.094 135.723 352.017 134.494 352.017C132.038 352.324 129.888 353.247 127.432 352.939C124.975 353.862 122.212 353.555 119.755 353.555C118.834 353.555 117.913 353.555 116.992 354.17C116.377 354.478 115.763 354.478 114.842 354.478C113.614 354.478 112.079 354.478 110.85 355.093C110.236 355.4 109.622 355.4 108.701 355.4C107.166 355.4 105.323 355.4 103.788 355.708C103.174 355.708 102.56 355.708 102.252 355.708C100.41 356.323 98.5677 356.323 96.4183 356.323C88.1275 356.323 80.758 356.323 73.6955 356.323Z" fill="#281F1E"/>
<path d="M122.826 103.465C122.826 104.388 122.826 104.695 122.826 105.003C122.826 105.618 122.519 106.233 122.212 106.541C121.29 107.771 120.369 108.694 118.834 108.694C116.685 108.694 114.842 109.617 112.693 109.617C111.157 109.617 110.236 110.232 109.315 111.77C108.701 112.693 107.78 113.308 106.858 113.616C105.323 113.924 104.095 114.539 102.56 114.539C101.024 114.539 99.4889 114.539 97.9536 114.539C96.4183 114.539 94.8829 114.539 93.3476 114.846C92.7335 115.154 92.1194 114.846 91.1982 114.846C88.7417 114.846 86.5922 114.846 84.1357 115.154C83.2145 115.154 82.2933 115.154 81.6792 115.154C79.2227 115.769 76.7661 115.769 74.3096 115.769C73.0814 115.769 71.546 115.769 70.3178 116.385C69.3966 116.692 68.1683 116.692 66.9401 116.692C64.7906 116.692 62.9482 116.692 60.7988 117.307C59.2635 117.615 57.7281 117.615 56.1928 117.923C55.2716 118.23 54.6575 118.23 53.7363 117.923C52.8151 117.615 51.8939 117.615 50.9727 117.307C50.3586 117 49.7445 117 48.8233 117.307C47.9021 117.615 46.6738 117.615 45.4456 117.923C44.5244 117.923 43.9102 117.615 43.2961 117C43.2961 116.692 42.9891 116.385 42.9891 116.385C42.682 115.769 42.3749 115.462 41.7608 115.462C41.4537 115.462 40.8396 115.462 40.5325 115.462C38.9972 115.154 38.076 114.539 37.4619 113.001C37.1548 112.078 36.8478 111.463 36.8478 110.54C36.8478 109.925 36.5407 109.617 36.5407 109.002C36.5407 106.541 35.6195 104.388 35.6195 101.927C35.6195 101.004 36.2336 100.389 36.8478 99.7734C38.3831 98.8505 39.9184 98.5429 41.4537 97.9277C43.6032 97.3124 45.7526 97.0048 47.9021 96.3896C48.5162 96.082 49.1303 96.082 50.0515 96.082C50.6657 96.082 51.5869 96.082 52.201 95.7744C53.4292 95.4668 54.6575 95.1591 55.8858 95.1591C57.4211 95.1591 59.2635 95.1591 60.7988 95.1591C61.4129 95.1591 62.027 95.1591 62.3341 95.1591C64.4836 94.5439 66.3259 94.5439 68.4754 94.5439C70.6248 94.5439 72.7743 94.5439 75.2308 94.5439C77.3803 94.5439 79.5297 94.5439 81.3721 93.9287C82.9074 93.9287 84.4428 93.6211 85.9781 93.6211C87.8205 93.6211 89.6628 93.6211 91.1982 93.0058C92.4264 92.6982 93.6547 92.6982 94.8829 92.6982C96.1112 92.6982 97.0324 92.6982 98.2607 92.083C98.8748 91.7754 99.4889 91.7754 99.796 91.7754C101.024 91.7754 102.252 91.4678 103.481 91.1601C104.402 90.8525 105.63 90.8525 106.858 90.8525C108.087 90.8525 109.622 90.8525 110.85 90.5449C111.771 90.2373 112.386 90.2373 113.307 90.2373C115.456 90.2373 117.299 90.2373 119.448 90.2373C120.062 90.2373 120.369 90.5449 120.676 91.1601C121.29 92.3906 121.905 93.3134 121.905 94.5439C121.905 95.4668 121.905 96.082 121.905 97.0048C121.905 98.5429 121.905 100.081 122.212 101.619C122.826 102.234 122.826 103.157 122.826 103.465Z" fill="#281F1E"/>
<path d="M11.3614 272.344C13.8179 272.344 15.6603 272.344 17.8098 272.344C19.3451 272.344 20.8804 272.652 22.4157 272.959C23.0299 273.267 23.644 273.575 23.951 274.19C24.2581 275.113 24.5652 276.036 24.5652 276.958C24.5652 277.881 24.5652 278.804 24.8722 279.727C25.4864 281.265 25.1793 282.803 26.1005 284.034C26.7146 286.802 28.25 288.648 30.0923 290.801C30.7065 291.417 31.3206 292.032 31.9347 292.647C34.0842 294.8 36.5407 296.338 39.6113 296.954C39.9184 296.954 40.2255 296.954 40.2255 297.261C40.5325 297.569 40.8396 297.876 40.8396 298.184C40.8396 298.799 40.8396 299.415 40.8396 300.337C40.8396 305.567 41.1467 310.796 41.1467 316.026C41.1467 317.256 41.1467 318.487 41.4537 319.717C41.4537 320.025 41.4537 320.333 41.4537 320.64C41.4537 325.254 41.4537 329.869 41.4537 334.483C41.4537 334.791 41.1467 335.406 40.8396 335.406H40.5325C39.9184 335.406 38.9972 335.406 38.3831 335.098C34.6983 334.175 31.3206 332.945 27.9429 330.792C23.951 328.331 20.2663 325.562 17.1956 321.871C14.125 318.487 11.3614 314.488 9.51901 310.181C8.59781 307.72 7.98368 304.952 7.36955 302.183C7.36955 300.953 7.06249 300.03 6.75542 298.799C6.44836 297.876 6.44836 297.261 6.44836 296.338C6.44836 293.57 6.14129 291.109 6.14129 288.34C6.14129 287.417 5.83423 286.495 5.2201 285.572C5.2201 285.264 4.91304 284.957 4.60597 284.957C3.37771 284.957 1.84239 284.341 0.614129 284.034C0.307065 284.649 0 284.341 0 283.418C0 283.111 0 282.803 0 282.496C0.614129 279.419 1.22826 276.651 2.76358 273.882C3.07065 273.575 3.07065 273.267 3.37771 272.959C3.68478 272.652 3.99184 272.344 4.29891 272.344C4.91303 272.344 5.52716 272.344 6.44836 272.344C8.29075 272.344 10.1331 272.344 11.3614 272.344Z" fill="#281F1E"/>
<path d="M139.714 301.568C139.714 299.107 139.714 296.954 139.714 294.493C139.714 293.878 140.021 293.57 140.636 293.262C140.943 292.955 141.25 292.955 141.864 292.647C146.163 290.802 149.233 287.418 151.383 283.111C151.997 281.881 152.304 280.343 152.918 278.805C152.918 276.651 153.839 274.806 153.839 272.652C153.839 271.422 154.761 270.499 155.682 270.191C156.603 269.884 157.524 269.269 158.445 269.269C159.674 268.961 161.209 268.961 162.437 268.346C164.587 268.346 166.736 267.73 168.885 267.423C170.728 267.115 172.57 266.808 174.413 266.192C175.027 266.192 175.334 265.885 175.948 266.192C176.562 266.5 177.176 266.808 177.483 267.423C177.79 268.346 178.404 269.269 178.404 270.191C178.712 272.345 179.326 274.19 179.326 276.344C179.326 277.267 179.633 277.882 179.94 278.805C180.247 279.727 179.326 281.266 178.404 281.573C177.79 281.881 177.176 282.188 176.562 282.496C174.106 283.111 172.57 284.649 171.956 287.11C171.035 290.186 170.114 293.57 169.5 296.646C168.271 301.568 167.043 306.49 165.508 311.412C164.587 314.488 163.051 316.949 161.209 319.41C160.288 320.64 159.674 321.871 158.445 322.486C156.603 324.024 155.068 325.562 153.225 326.793C150.462 328.638 147.698 330.484 144.627 331.714C144.32 332.022 144.013 332.022 143.399 332.022C143.092 332.022 142.785 332.022 142.785 331.714C142.478 330.176 141.864 328.946 141.864 327.408C141.864 325.87 140.943 324.639 140.943 322.794C140.943 321.255 140.636 320.025 140.328 318.795C140.021 317.256 140.021 315.718 140.021 314.18C140.021 312.95 140.021 311.412 139.407 310.181C139.1 309.258 139.1 308.336 139.1 307.413C139.714 305.259 139.714 303.414 139.714 301.568Z" fill="#281F1E"/>
<path d="M56.807 45.0183C57.1141 44.7107 57.1141 44.0955 57.4211 43.7879C58.3423 42.5574 59.8777 41.6345 61.1059 41.3269C62.9483 40.7117 64.7907 40.0965 66.6331 40.4041C66.9401 40.4041 67.5543 40.4041 67.8613 40.4041C72.1602 40.4041 76.1521 40.4041 80.1439 40.4041C81.0651 40.4041 81.9863 40.4041 82.6004 40.4041C84.7499 41.0193 86.8993 41.0193 89.0488 41.0193C91.1982 41.0193 93.3477 41.0193 95.8042 41.0193C97.3395 41.0193 99.1819 41.0193 100.717 41.6345C101.331 41.9422 101.946 41.6345 102.867 41.9422C104.402 41.9422 105.937 41.9422 107.473 42.2498C108.087 42.2498 108.701 42.865 108.701 43.1726C108.701 43.7879 108.394 44.0955 108.087 44.4031C106.551 45.3259 105.016 45.9412 103.788 46.5564C100.41 48.4021 97.9537 50.863 97.0325 54.5544C96.7254 55.1696 96.4183 55.7848 96.4183 56.4001C96.1113 58.5534 94.883 60.7067 93.9618 62.5524C93.9618 62.86 93.6548 63.1676 93.6548 63.1676C93.0406 64.0904 92.1194 64.3981 91.8124 65.3209C92.1194 66.2438 92.1194 67.1666 92.1194 68.0894C92.1194 69.6275 92.1194 71.4732 92.1194 73.0113C92.1194 74.5494 92.1194 76.3951 92.7336 77.9331C93.0406 78.856 93.0406 79.7788 92.7336 80.7017C92.7336 81.0093 92.4265 81.0093 92.1194 81.0093C91.8124 81.0093 91.5053 80.7017 91.5053 80.7017C91.5053 80.3941 91.5053 80.0864 91.1982 79.7788C91.1982 79.4712 91.1982 78.856 91.1982 78.5484C91.1982 76.3951 90.5841 74.5494 90.5841 72.3961C90.5841 70.2428 90.5841 68.3971 90.277 66.2438C90.277 65.9361 89.97 65.9361 89.6629 65.6285C88.7417 65.6285 88.1276 66.2438 87.2064 66.2438C86.2852 66.2438 85.6711 66.5514 84.7499 66.5514C83.8287 66.859 82.9075 66.859 81.9863 66.859C77.9945 67.1666 74.3097 66.859 70.6249 65.3209C70.3178 65.3209 69.7037 65.6285 69.7037 65.9361C69.7037 66.5514 69.7037 67.1666 69.7037 68.0894C69.7037 71.7808 69.7037 75.4722 69.7037 79.1636C69.7037 79.7788 69.7037 80.3941 69.3967 81.3169C69.3967 81.6245 69.0896 81.6245 68.7825 81.6245C68.4755 81.6245 68.1684 81.6245 68.1684 81.3169C68.1684 80.3941 67.8613 79.4712 67.8613 78.5484C67.8613 74.5494 67.8613 70.2428 67.8613 66.2438C67.8613 65.0133 67.5543 64.0904 66.9401 63.1676C66.6331 62.86 66.326 62.2448 66.326 61.6295C66.0189 60.0915 66.0189 58.2458 66.6331 56.7077C66.9401 55.4772 67.2472 54.2468 67.2472 53.0163C67.2472 50.5554 66.326 48.7097 64.1766 47.4792C62.9483 46.5564 61.413 45.6335 59.5706 45.3259C58.9565 45.9412 58.0353 45.3259 56.807 45.0183Z" fill="#281F1E"/>
<path d="M81.9863 39.481C80.451 39.481 79.2227 38.8657 77.9944 38.2505C77.6874 38.2505 77.3803 37.9429 77.3803 37.6353C77.0732 36.0973 76.152 34.8668 76.152 33.3288C76.152 32.0983 76.152 31.1755 76.7662 29.9451C77.3803 28.0994 77.9944 26.5614 79.2227 25.3309C80.451 23.7929 81.6792 21.9472 83.2145 20.4092C83.8287 19.794 84.1357 19.1787 84.7499 18.5635C85.6711 17.3331 86.8993 16.4102 87.8205 15.1798C87.8205 15.1798 88.1276 14.8722 88.1276 15.1798C88.4346 15.1798 88.4346 15.4874 88.7417 15.795C89.0488 17.3331 88.7417 18.8711 88.1276 20.1016C87.8205 20.7168 87.8205 21.0244 88.1276 21.6396L88.4346 21.9472H88.7417C89.3558 21.332 90.277 20.7168 90.5841 19.794C92.4265 17.0255 94.2689 14.5646 96.4183 12.4113C97.9537 10.2581 99.7961 8.4124 101.638 6.56675C101.946 6.25914 101.946 6.25914 102.253 5.95153C102.56 5.95153 102.867 5.95153 103.174 5.95153C103.481 5.95153 103.481 6.25914 103.481 6.56675C103.788 7.79718 103.174 8.72001 102.867 9.64284C102.867 9.95045 103.174 9.95045 103.174 10.2581C103.174 10.2581 103.481 10.2581 103.481 9.95045C104.709 8.72001 106.244 7.79718 107.78 6.56675C109.008 5.64392 110.236 4.72109 111.772 4.41348C113 4.10587 114.228 3.49065 115.763 3.18304C116.992 2.87543 118.22 2.26022 119.755 1.95261C120.984 1.95261 122.212 1.02978 123.747 1.02978C124.361 1.02978 124.668 0.722168 125.282 0.722168C125.59 0.722168 125.897 0.722168 125.897 1.02978C126.204 1.33739 126.204 1.95261 125.897 2.26022C125.897 2.56782 125.897 2.56782 125.59 2.87543C122.519 4.72109 119.755 6.87436 116.685 8.72001C113 10.5657 109.929 13.0265 107.473 16.4102V16.7179L107.78 17.0255C108.701 17.3331 109.315 17.0255 110.236 16.7179C111.465 16.1026 112.693 15.4874 113.921 14.8722C114.228 14.8722 114.535 14.8722 114.842 15.4874V15.795C114.842 15.795 114.842 16.1026 114.535 16.1026C113.307 17.6407 111.465 18.8711 109.622 20.1016C108.394 20.7168 107.166 21.6396 106.244 22.2548C105.323 22.87 104.402 23.4853 103.788 24.4081C103.788 24.4081 103.481 24.7157 103.788 24.7157C104.402 25.3309 104.709 25.3309 105.016 25.3309C105.323 25.3309 105.63 25.0233 106.244 25.0233C106.859 25.0233 107.166 25.0233 107.78 25.6385C108.087 25.9461 108.087 26.869 107.78 27.1766C105.63 29.6375 103.174 31.7907 100.41 33.6364C99.1819 34.5592 97.6466 35.1744 96.4183 36.0973C94.2689 36.7125 92.1194 38.2505 89.6629 38.2505C88.1276 38.2505 86.5923 38.8657 84.7499 39.481C83.8287 39.481 82.9075 39.481 81.9863 39.481Z" fill="#FFD583"/>
<path d="M54.0433 281.573C54.0433 280.65 54.0433 279.728 54.3504 278.805C54.3504 278.497 54.6575 277.882 54.9645 277.882C57.114 276.651 58.9564 275.421 61.4129 275.113C62.3341 275.113 63.2553 274.191 64.1765 274.191C65.0976 274.191 65.7118 274.191 66.633 274.191C66.94 274.191 67.2471 274.191 67.5542 274.191C69.7036 273.575 71.8531 273.575 74.0025 273.575C74.3096 273.575 74.6166 273.575 74.9237 273.575C77.0731 272.653 79.5297 272.96 81.9862 272.96C83.8286 272.96 85.978 272.96 87.8204 272.345C88.7416 272.037 89.9698 272.345 91.1981 272.037C93.0405 272.037 95.1899 272.037 97.0323 271.422C98.2606 271.422 99.4888 271.422 100.717 271.115C102.252 271.115 103.788 271.115 105.323 270.499C105.937 270.192 106.551 270.192 107.473 270.192C108.087 270.192 108.701 270.192 109.008 269.884C111.157 268.961 113.614 269.269 116.07 269.269C116.684 269.269 117.299 269.577 117.913 270.192C118.22 270.499 118.527 270.807 118.527 271.115C119.141 272.037 120.369 276.651 120.676 278.189C120.676 278.497 120.369 279.112 120.062 279.112C118.527 279.42 116.992 280.035 115.149 280.035C113 280.035 111.157 280.035 109.008 280.65C108.394 280.958 107.78 280.65 107.473 280.65C105.63 280.65 103.481 280.65 101.638 281.266C101.024 281.573 100.103 281.266 99.1818 281.573C97.9535 281.573 96.7253 281.573 95.497 282.188C95.1899 282.496 94.5758 282.496 94.2687 282.496C92.1193 282.496 90.2769 282.496 88.1275 283.111C87.2063 283.419 85.978 283.111 84.7498 283.419C83.2144 283.419 81.6791 283.419 80.1438 284.034C79.5297 284.342 78.9155 284.342 77.9943 284.342C76.7661 284.342 75.5378 284.342 74.3096 284.342C73.6954 284.342 73.0813 284.342 72.7743 284.342C70.3177 285.264 67.5542 284.957 65.0976 284.957C63.2553 284.957 61.1058 284.957 59.2634 285.572C58.0352 285.88 56.8069 285.88 55.5787 285.572C55.2716 285.572 54.9645 285.264 54.9645 284.957C54.0433 283.726 54.0433 282.804 54.0433 281.573Z" fill="#281F1E"/>
<path d="M37.4618 168.371C38.383 168.064 40.2254 168.679 41.7607 169.294C42.3748 169.602 42.989 170.217 42.989 170.832C43.296 172.37 43.9102 173.908 43.9102 175.754C43.9102 176.677 44.8314 180.676 45.4455 181.599C46.0596 183.137 46.6737 184.982 47.902 186.52C48.8232 188.059 50.0515 188.981 51.2797 190.212C53.1221 191.442 54.9645 192.673 57.114 193.596C57.7281 193.903 58.0352 194.211 58.0352 194.826C58.0352 196.364 58.0352 197.902 58.0352 199.44C58.0352 201.286 58.0352 203.439 58.6493 205.285C58.6493 206.515 58.6493 208.053 58.6493 209.284C58.6493 209.899 58.0352 210.207 57.421 210.207C57.114 210.207 56.4998 210.207 56.1928 210.207C54.0433 209.591 51.5868 209.284 49.4373 208.053C48.8232 207.746 48.2091 207.438 47.5949 207.13C45.4455 206.208 43.6031 204.67 42.0678 202.824C41.4536 201.901 40.5324 200.978 40.2254 200.055C37.7689 195.441 35.6194 190.519 34.6982 185.29C34.3911 183.752 33.777 182.214 33.777 180.676C33.777 179.138 33.1629 177.907 32.2417 176.984C31.6275 176.369 31.3205 175.446 31.6275 174.831C31.9346 173.293 32.2417 171.755 32.5487 170.525C32.5487 169.909 33.1629 169.602 33.4699 168.987C33.4699 168.679 33.777 168.679 34.0841 168.679C35.0053 168.679 35.9265 168.679 37.4618 168.371Z" fill="#281F1E"/>
<path d="M105.63 188.981C106.244 188.366 106.244 188.058 106.551 187.751C109.008 185.29 110.85 182.521 112.386 179.138C113 177.6 113.921 175.754 114.535 174.216C114.842 172.678 115.456 171.447 115.763 169.909C115.763 168.679 116.378 167.756 116.378 166.833C116.685 165.91 116.992 165.295 117.913 164.987C118.22 164.68 118.834 164.372 119.448 164.064C120.984 163.449 122.826 162.834 124.668 162.526C125.897 162.526 127.125 163.142 127.432 164.064C128.046 165.91 128.66 167.448 128.66 169.294C128.66 170.832 128.353 171.755 126.818 172.062C126.511 172.062 125.897 172.37 125.59 172.678C125.282 172.985 124.975 173.293 124.975 173.601C124.668 174.216 124.361 174.831 124.361 175.446C124.361 178.215 123.44 181.291 123.44 184.059C122.212 189.289 121.291 194.211 118.834 198.825C117.299 201.901 114.842 204.362 112.079 206.515C110.85 207.438 109.622 208.361 108.087 208.669C107.473 208.976 106.859 208.361 106.859 207.746C106.859 206.208 106.859 204.362 106.859 202.824C106.859 201.286 106.859 199.748 106.551 198.21C106.551 197.902 106.551 197.287 106.551 196.979C105.63 194.518 105.63 192.057 105.63 188.981Z" fill="#281F1E"/>
<path d="M89.3557 83.7778C91.1981 83.7778 93.3476 83.7778 95.19 83.7778C96.7253 83.7778 97.6465 84.0854 98.2606 85.931C98.2606 86.5462 98.8748 87.1613 98.8748 87.7765C98.8748 88.3917 98.8748 89.0069 98.8748 89.3145C98.8748 89.6221 98.2606 90.5449 97.9536 90.5449C97.6465 90.5449 97.0324 90.8525 96.7253 90.8525C95.8041 90.8525 94.8829 90.8525 93.9617 90.8525C93.3476 90.8525 92.7335 90.8525 92.4264 90.8525C90.584 91.4677 89.0487 91.4677 87.2063 91.4677C85.0568 91.4677 83.2144 91.4677 81.065 92.0828C80.4509 92.3904 79.8367 92.0828 78.9155 92.0828C75.5378 92.0828 72.1601 92.0828 69.0895 92.3904C67.8612 92.3904 66.94 92.3904 65.7117 92.698C63.8694 93.3132 62.027 93.0056 59.8775 93.0056C59.5704 93.0056 59.2634 92.698 59.2634 92.3904C58.9563 90.5449 58.9563 88.6993 59.2634 87.1613C59.2634 86.5462 59.8775 86.2386 60.1846 85.931C61.7199 85.6234 62.9482 85.0082 64.4835 85.0082C65.0976 85.0082 66.0188 85.0082 66.6329 84.7006C68.1683 84.0854 69.7036 84.0854 71.2389 84.0854C73.3884 84.0854 75.5378 84.0854 77.9943 83.7778C78.6085 83.7778 79.2226 83.7778 79.5297 83.7778C82.6003 83.4702 85.978 83.7778 89.3557 83.7778Z" fill="#FFD583"/>
<path d="M86.2851 261.578C83.2145 261.578 81.3721 260.962 79.5297 260.04C77.3802 258.809 75.5378 256.963 74.0025 255.118C71.8531 252.657 70.0107 249.888 68.7824 246.812C68.4753 246.505 68.4753 245.89 68.4753 245.582C68.4753 245.274 68.4753 244.659 68.7824 244.352C69.3965 244.044 69.7036 243.736 70.3177 243.429C73.3884 242.198 75.5378 240.045 77.3802 237.277C78.3014 235.738 79.2226 234.2 80.1438 232.662C80.7579 231.74 80.7579 230.817 80.1438 229.894C79.5297 229.279 79.8368 228.356 80.1438 227.433C80.4509 225.895 82.2933 224.049 83.8286 223.742C84.1357 223.742 84.7498 223.742 85.0569 223.742C87.2063 224.049 88.7416 225.895 89.0487 228.048C89.0487 228.663 89.0487 229.279 88.7416 229.586C88.4346 230.509 88.4346 231.124 88.7416 232.047C89.3558 233.278 89.9699 234.816 90.8911 236.046C91.8123 237.584 93.3476 238.815 94.8829 239.737C95.4971 240.045 96.1112 240.353 96.7253 240.353C97.9536 240.66 99.1818 240.968 100.41 241.275C100.717 241.275 100.717 241.583 100.717 241.891C100.717 242.198 101.024 242.813 100.717 243.121C99.796 246.812 98.8748 250.196 97.0324 253.58C95.19 256.963 92.4264 259.424 88.7416 260.655C87.5134 261.578 86.5922 261.578 86.2851 261.578Z" fill="#281F1E"/>
<path d="M87.5134 137.61C88.1276 139.148 88.4346 140.686 89.0488 142.224C89.97 145.3 92.1194 147.761 94.883 149.607C95.1901 149.914 95.8042 149.914 96.4183 150.222C97.0324 150.529 97.9536 150.837 98.5678 151.145C98.8748 151.145 99.1819 152.068 99.1819 152.375C99.1819 152.683 99.1819 153.298 98.8748 153.606C96.7254 157.297 94.5759 160.681 90.8912 163.142C89.6629 164.064 88.7417 164.987 87.5134 165.602C86.5923 165.91 85.9781 166.218 85.0569 166.218C80.758 166.833 77.3803 164.987 74.0026 162.526C72.7744 161.603 71.5461 160.065 70.932 158.527C70.6249 157.912 70.3178 156.989 70.0108 156.374C69.7037 155.451 70.0108 153.913 70.932 153.298C72.4673 152.375 74.0026 151.145 75.5379 149.607C78.3015 146.53 79.5298 143.147 79.2227 139.148C79.2227 138.84 78.9156 138.225 78.6086 137.917C77.6874 136.995 77.3803 136.072 77.3803 134.841C77.3803 134.226 77.3803 133.611 77.3803 133.303C77.9945 132.38 78.3015 131.15 79.2227 130.535C80.1439 129.919 81.3722 129.304 82.6004 129.304C83.2145 129.304 83.8287 129.304 84.1357 129.304C85.6711 129.304 86.8993 129.919 87.8205 131.15C88.4346 131.765 88.7417 132.38 88.7417 133.303C89.0488 135.149 88.7417 135.456 87.5134 137.61Z" fill="#281F1E"/>
<path d="M50.3586 86.5462C49.7445 86.8538 49.1304 86.8538 48.8233 87.1614C48.5162 87.469 48.2092 87.7766 48.2092 88.0843C48.2092 89.0071 48.5162 89.9299 48.5162 90.8527C48.8233 92.3908 49.4374 93.9288 49.7445 95.7745C49.7445 96.0821 49.7445 96.6973 49.7445 97.0049C49.7445 97.3126 49.4374 97.3126 49.1304 97.6202C48.8233 97.9278 48.5162 97.6202 48.5162 97.3126C48.2092 96.3897 47.595 95.4669 47.595 94.5441C47.288 92.3908 46.6738 90.2375 46.3668 88.0843C46.0597 85.931 46.0597 85.931 48.2092 85.3158C49.1304 85.0082 50.0516 84.7005 50.9727 84.7005C52.8151 84.3929 54.3505 83.4701 56.1928 83.7777C58.0352 83.1625 59.5705 83.1625 61.4129 82.8549C62.6412 82.8549 64.1765 82.2397 65.4048 82.2397C66.633 82.2397 68.1684 81.9321 69.3966 81.6244C70.0107 81.3168 70.6249 81.6245 71.5461 81.3168C73.0814 81.3168 74.6167 81.3168 76.152 80.7016C76.7661 80.394 77.3803 80.394 78.3015 80.394C79.8368 80.394 81.3721 80.394 82.9074 79.7788C83.5216 79.4712 84.1357 79.4712 85.0569 79.4712C86.5922 79.4712 88.4346 79.4712 89.9699 79.1636C91.1982 79.1636 92.4264 79.1636 93.6547 78.856C93.9618 78.856 94.5759 78.856 94.8829 78.856C97.9536 78.856 101.024 78.856 104.095 78.856C105.016 78.856 105.63 79.4712 105.937 80.0864C106.244 80.7016 106.551 81.3168 106.551 81.9321C106.551 83.7777 106.551 85.931 106.551 87.7766C106.551 90.2375 106.551 92.6984 106.551 95.1593C106.551 95.4669 106.551 96.0821 106.244 96.3897C106.244 96.6973 105.63 96.6973 105.63 96.6973C105.323 96.6973 105.016 96.3897 105.016 96.3897C105.016 95.1593 105.016 93.6212 105.016 92.3908C105.016 88.6995 105.016 85.3158 104.709 81.6244C104.709 81.3168 104.402 80.7016 104.095 80.7016C102.867 80.7016 101.945 80.7016 100.717 80.7016C100.41 80.7016 100.103 81.0092 100.103 81.3168C100.103 83.7777 99.796 86.2386 100.41 88.6995C100.717 89.9299 100.717 91.1604 100.717 92.3908C100.717 92.6984 100.41 92.6984 100.103 93.006C99.796 93.006 99.4889 93.006 99.4889 92.6984C99.4889 92.3908 99.1818 92.0832 99.1818 91.7756C99.1818 90.2375 98.8748 88.3919 98.5677 86.8538C98.2606 85.3158 98.5677 83.7777 98.2607 82.2397C98.2607 81.9321 98.2607 81.3168 97.9536 81.0092L97.6465 80.7016C96.4183 80.394 94.8829 80.394 93.6547 80.7016C93.3476 80.7016 93.3476 81.0092 93.3476 81.3168C93.3476 84.3929 93.3476 87.469 93.3476 90.5451C93.3476 91.1604 93.3476 91.7756 93.3476 92.6984C93.3476 93.006 93.0406 93.3136 93.0406 93.3136C92.7335 93.3136 92.4264 93.006 92.4264 93.006C92.1194 92.6984 92.1194 92.3908 92.1194 91.7756C92.1194 89.9299 92.1194 88.0843 92.1194 86.2386C92.1194 85.0082 92.1194 83.7777 92.1194 82.5473C92.1194 82.2397 92.1194 81.9321 91.8123 81.9321C91.8123 81.6244 91.5052 81.6245 91.1982 81.3168C90.277 81.0092 89.6628 81.0092 88.7417 81.3168C88.4346 81.3168 88.4346 81.6244 88.1275 81.9321C88.1275 82.2397 88.1275 82.5473 88.1275 82.8549C88.1275 83.4701 88.1275 84.0853 88.4346 84.3929C88.4346 85.3158 88.7417 85.931 88.7417 86.8538C88.7417 89.6223 89.0487 92.0832 88.7417 94.8517C88.7417 95.1593 88.4346 95.1593 88.1275 95.1593C87.8205 94.8517 87.5134 94.5441 87.5134 94.2365C87.5134 93.6212 87.2063 93.006 87.2063 92.0832C87.2063 89.9299 87.2063 87.7766 87.2063 85.3158C87.2063 84.7005 87.2063 84.0853 87.2063 83.7777C86.5922 81.6244 86.8993 81.3168 84.1357 81.6244C82.9074 81.6244 82.2933 82.5473 82.2933 83.4701C82.2933 85.931 82.2933 88.3919 82.2933 90.8527C82.2933 92.0832 82.6004 93.006 82.9074 94.2365C82.9074 94.2365 82.9074 94.5441 82.6004 94.5441C82.2933 94.5441 81.9862 94.5441 81.6792 94.5441L81.3721 94.2365C80.1439 93.006 79.8368 91.7756 79.8368 90.5451C79.8368 88.0843 79.8368 85.6234 79.8368 83.1625C79.8368 82.5473 79.2227 82.2397 78.9156 82.2397C78.3015 82.2397 77.6873 82.2397 77.3803 82.2397C76.152 82.5473 74.6167 82.8549 73.3884 83.1625C73.0814 83.1625 72.7743 83.4701 72.7743 83.7777C72.7743 86.5462 72.7743 89.3147 72.7743 92.0832C72.7743 93.3136 73.3884 94.5441 73.0814 95.7745C73.0814 96.0821 72.7743 96.0821 72.4673 96.0821H72.1602L71.8531 95.7745C71.5461 93.9288 70.9319 92.3908 70.9319 90.5451C70.9319 88.3919 70.9319 86.2386 70.9319 84.3929C70.9319 83.4701 70.3178 83.1625 69.3966 83.4701C68.1684 84.0853 66.9401 83.7777 65.7118 84.0853C65.4048 84.0853 65.0977 84.3929 65.0977 84.7005C65.0977 85.3158 64.7906 85.931 65.0977 86.2386C65.4048 87.7766 65.7118 89.6223 65.7118 91.1604C65.7118 92.6984 65.7118 94.5441 65.7118 96.0821C65.7118 96.3897 65.4048 96.6973 65.0977 96.6973H64.7906C64.4836 96.3897 64.1765 96.0821 64.1765 95.7745C64.1765 94.5441 64.1765 93.006 64.1765 91.468C64.1765 89.9299 64.1765 88.0843 64.1765 86.5462C64.1765 86.2386 63.8694 85.6234 63.8694 85.3158C63.8694 85.0082 63.5624 84.7005 63.2553 84.7005C62.0271 84.3929 60.4917 84.3929 59.2635 85.0082C58.9564 85.0082 58.9564 85.3158 58.9564 85.6234C58.9564 87.469 58.9564 89.6223 59.2635 91.468C59.5705 93.6212 59.8776 95.4669 59.5705 97.6202C59.5705 97.9278 59.2635 97.9278 58.9564 97.9278H58.6494L58.3423 97.6202C58.3423 97.0049 58.0352 96.6973 58.0352 96.0821C58.0352 93.9288 58.0352 91.7756 57.4211 89.6223C57.114 88.6995 57.4211 88.0843 57.4211 87.1614C57.4211 86.2386 56.807 85.931 55.8858 85.931C55.5787 85.931 55.2716 85.931 54.9646 85.931C53.7363 86.2386 53.1222 86.8538 53.4293 87.7766C53.4293 88.3919 53.4293 89.0071 53.4293 89.3147C54.0434 91.7756 54.0434 94.2365 54.3505 96.6973C54.3505 97.3126 54.9646 97.9278 54.6575 98.8506C54.6575 99.1582 54.3505 99.1582 54.0434 99.4658C53.7363 99.4658 53.4293 99.4658 53.4293 99.1582C53.1222 98.543 52.8151 97.6202 52.8151 96.6973C52.8151 95.4669 52.8151 94.5441 52.8151 93.3136C51.5869 90.8527 50.9727 88.6995 50.3586 86.5462Z" fill="#281F1E"/>
<path d="M84.4428 198.825C85.9782 198.21 86.8994 197.595 88.4347 197.287C89.3559 197.287 89.97 196.672 90.5841 196.364C91.5053 195.749 92.4265 195.134 92.7336 193.903C93.0407 193.288 93.0407 192.673 92.7336 192.058C92.7336 191.75 92.4265 191.443 92.4265 191.135C92.7336 190.827 93.0407 190.52 93.3477 190.212C93.9618 189.904 94.2689 189.904 94.883 189.904C95.8042 190.212 96.4184 190.827 97.0325 191.75C97.3396 192.058 97.0325 192.981 96.4184 192.981C96.1113 192.981 95.4972 192.981 95.1901 193.288C94.576 194.826 93.6548 196.057 92.1195 197.287C91.5053 197.902 90.8912 198.21 89.97 198.518C89.0488 198.825 88.1276 199.133 87.2064 199.44C85.6711 199.748 84.7499 200.671 84.1358 201.901C84.1358 202.209 83.8287 202.517 83.8287 202.824C83.5216 203.132 83.2146 203.439 82.9075 203.132C81.6793 201.286 79.8369 200.671 77.9945 200.979C76.7662 200.979 75.845 200.671 74.9238 200.363C74.3097 200.056 73.6956 199.44 73.0814 198.518C72.7744 197.902 72.4673 197.287 72.1603 196.672C71.8532 196.057 71.5461 195.749 71.2391 195.441C70.932 195.134 70.6249 194.826 70.932 194.519C71.2391 193.596 71.8532 192.981 72.4673 192.981C73.0815 192.981 73.6956 192.981 74.0026 193.288C74.6168 193.596 74.6168 194.211 74.3097 194.519C72.7744 196.672 74.9238 199.44 77.0733 199.44C77.6874 199.44 78.6086 199.44 79.2227 199.44C80.1439 199.44 80.7581 199.44 81.6793 199.748C81.9863 199.748 82.2934 199.748 82.2934 199.133C82.2934 195.441 82.2934 192.058 82.2934 188.366C82.2934 187.751 81.9863 187.136 81.0651 187.136C80.7581 187.136 80.1439 187.136 79.8369 187.136C79.8369 187.136 79.5298 187.136 79.5298 186.828C79.5298 186.521 79.5298 186.213 79.8369 186.213C80.7581 185.598 81.0651 184.983 81.3722 183.752C81.6793 182.214 82.2934 181.291 83.8287 180.676C84.4428 180.368 85.057 180.368 85.6711 180.676C86.2852 180.984 86.8994 181.599 86.8994 182.214C87.2064 182.829 87.2064 183.445 86.8994 184.06C86.5923 184.675 86.8994 184.983 87.5135 185.29C87.8206 185.29 87.8206 185.598 87.8206 185.905C87.8206 186.213 87.5135 186.521 87.2064 186.521C86.2852 187.136 85.364 186.828 84.4428 186.828C84.1358 186.828 83.8287 187.136 83.8287 187.136L83.5217 187.444C84.1358 190.827 83.8287 194.211 84.1358 197.902C84.1358 198.21 84.1358 198.518 84.4428 198.825ZM84.1358 181.906C83.5216 182.214 83.2146 182.214 82.9075 182.522C82.2934 183.137 82.2934 184.06 82.9075 184.675C83.2146 184.983 83.5217 184.983 83.5217 184.675C84.1358 184.367 84.7499 184.06 84.7499 183.137C84.7499 182.829 84.7499 182.522 84.4428 182.522C84.7499 182.214 84.4428 182.214 84.1358 181.906Z" fill="#281F1E"/>
</svg>
