<svg width="277" height="177" viewBox="0 0 277 177" fill="none" xmlns="http://www.w3.org/2000/svg">
<path d="M19.6765 152.654C19.6765 152.654 19.3483 152.654 19.6765 152.654C18.3637 151.996 17.7073 150.68 17.7073 149.364C17.7073 149.035 17.7073 148.706 17.7073 148.377C17.0509 146.403 17.3791 144.429 17.0509 142.455C17.0509 141.468 17.0509 140.481 16.7227 139.823C16.3945 139.165 16.7227 138.507 16.7227 137.849C16.7227 135.546 16.7227 133.243 16.3945 130.612C16.3945 129.296 16.3945 128.309 16.0663 126.993C15.7381 126.335 16.0663 125.677 16.0663 124.69C15.7381 115.149 15.7381 105.279 16.0663 95.7379C16.0663 94.0929 16.0663 92.1189 16.0663 90.474C16.0663 89.816 16.0663 89.487 16.0663 88.829C15.7381 86.197 15.7381 85.539 16.0663 83.236C16.0663 82.907 16.0663 82.578 16.0663 82.249C16.0663 79.6171 16.3945 76.9851 16.3945 74.3531C16.3945 73.0372 16.3945 72.0502 16.7227 70.7342C17.0509 69.7472 17.0509 68.7602 17.0509 67.7732C17.0509 66.7862 17.0509 65.7992 17.3791 64.8123C17.7073 63.8253 17.7073 62.8383 17.7073 62.1803C17.7073 61.5223 18.0355 60.8643 18.3637 60.2063C18.3637 59.8773 18.6919 59.8773 18.6919 59.8773C19.3483 59.5483 20.0047 59.2193 20.6611 59.2193C21.3175 59.2193 22.3021 59.2193 22.9585 59.2193C23.9431 59.2193 24.9277 59.2193 25.5841 58.8903C25.9123 58.8903 26.5687 58.8903 27.2251 58.8903C29.1943 58.8903 30.8353 58.8903 32.8045 58.8903C33.7891 58.8903 34.7737 58.8903 35.4301 58.5613C36.4147 58.2323 37.3993 58.2323 38.0557 58.2323C39.3685 58.2323 41.0095 58.2323 42.3223 57.9033C42.6505 57.9033 43.3069 57.9033 43.9633 57.9033C46.917 57.9033 50.199 57.9033 53.1528 57.5743C53.8092 57.5743 54.1374 57.5743 54.7938 57.5743C56.4348 57.2453 58.404 57.2453 60.045 57.2453C73.5012 56.9163 86.9573 56.9163 100.742 57.2453C101.398 57.2453 101.726 57.2453 102.383 57.2453C104.024 57.5743 105.993 57.5743 107.634 57.5743C120.105 57.5743 132.577 57.5743 145.049 57.5743C146.033 57.5743 147.018 57.5743 147.674 57.2453C148.331 56.9163 148.987 57.2453 149.972 57.2453C153.91 57.2453 157.52 57.2453 161.458 56.9163C162.115 56.9163 163.1 56.9163 163.756 56.5873C164.412 56.5873 165.069 56.5873 165.725 56.5873C168.351 56.5873 170.976 56.5873 173.274 56.2583C173.93 56.2583 174.586 56.2583 175.243 55.9293C175.899 55.9293 176.556 55.9293 177.212 55.6003C179.509 55.6003 181.807 55.6003 184.104 55.2714C185.089 55.2714 186.402 55.2714 187.386 54.9424C188.043 54.6134 188.699 54.9424 189.355 54.9424C192.309 54.9424 195.591 54.9424 198.545 54.6134C199.53 54.6134 200.514 54.6134 201.499 54.2844C201.827 54.2844 202.483 54.2844 203.14 54.2844C205.437 54.2844 207.406 54.2844 209.704 54.2844C211.345 54.2844 213.314 54.2844 214.955 53.9554C215.283 53.9554 215.94 53.9554 216.596 53.9554C218.565 53.9554 220.534 53.9554 222.832 53.6264C223.488 53.6264 224.473 53.6264 225.129 53.2974C225.786 52.9684 226.442 53.2974 227.098 53.2974C230.708 53.2974 234.319 53.2974 238.257 52.9684C238.913 52.9684 239.898 52.9684 240.554 52.6394C240.883 52.6394 241.539 52.6394 242.195 52.6394C249.744 52.6394 257.293 52.3104 264.841 52.6394C266.81 52.6394 268.78 52.9684 271.077 53.2974C271.405 53.2974 271.405 53.6264 271.733 53.6264C272.39 54.6134 272.718 55.6004 273.374 56.5873C274.031 58.5613 274.687 60.5353 275.344 62.5093C275.344 63.1673 276 63.4963 275.672 64.1543C275.672 64.4833 275.344 64.8123 275.015 64.8123C273.703 64.8123 272.39 64.8123 271.077 64.8123C270.092 64.4833 269.108 64.4833 268.451 64.4833C267.795 64.4833 266.81 64.4833 266.154 64.4833C265.826 64.4833 265.169 64.4833 264.841 64.4833C263.2 64.8122 261.887 64.8123 260.246 64.8123C258.605 64.8123 257.293 65.4702 255.98 66.1282C254.667 66.7862 253.682 68.1022 253.354 69.4182C253.026 70.7342 252.37 72.0502 252.698 73.3661C252.698 74.3531 252.698 75.3401 252.698 76.3271C252.698 76.6561 252.698 77.3141 252.698 77.6431C252.37 79.2881 252.37 80.9331 252.37 82.578C252.37 85.539 252.37 88.171 252.37 91.132C252.37 92.1189 252.37 93.1059 252.698 94.0929C253.026 94.7509 252.698 95.4089 252.698 96.3959C252.698 98.6989 252.698 101.002 252.698 103.634C252.698 104.95 253.026 105.937 253.354 107.253C254.011 109.227 255.323 110.543 256.964 111.201C257.949 111.53 258.934 112.188 260.246 112.188C261.231 112.188 262.216 112.846 263.2 112.846C264.185 112.846 265.169 112.846 266.154 112.846C267.467 112.846 268.451 112.846 269.764 112.846C270.749 112.846 271.733 112.846 272.718 113.175C273.046 113.175 273.374 113.175 274.031 113.175C276.328 113.175 276.328 113.504 276.328 115.478C276.328 116.794 276.328 117.781 276.328 119.097C276.328 119.426 276.328 119.755 276.328 120.084C275.672 123.374 276 126.335 275.672 129.625C275.672 130.283 275.672 130.612 275.672 131.27C275.672 132.585 275.672 134.23 275.344 135.546C275.015 136.204 275.344 136.862 275.344 137.52C275.344 138.836 275.344 140.481 274.687 141.797C274.359 142.784 274.687 143.771 274.359 144.429C274.359 145.087 274.031 145.745 273.703 146.074C273.374 146.403 273.046 146.732 272.718 146.732C270.749 147.061 268.451 147.39 266.482 147.39C265.169 147.39 263.857 147.39 262.544 147.719C262.216 147.719 261.887 147.719 261.231 147.719C258.277 147.719 255.323 147.719 252.37 147.719C251.713 147.719 251.385 147.719 250.729 147.719C249.744 147.719 248.759 147.061 248.431 146.074C247.775 145.087 247.447 144.1 247.118 143.113C246.462 141.468 245.806 139.823 244.821 138.507C244.493 138.178 244.165 137.849 243.836 137.52C242.524 136.533 241.211 136.204 239.57 135.875C238.913 135.875 238.257 135.546 237.601 135.875C235.96 136.204 234.319 136.862 233.006 137.849C232.021 138.507 231.037 139.823 230.708 141.139C230.708 142.126 230.052 143.442 230.052 144.429C230.052 145.087 229.724 145.745 229.396 146.403C228.739 147.39 228.083 148.048 226.77 148.048C225.786 148.048 224.473 148.048 223.488 148.377C223.16 148.377 222.504 148.377 221.847 148.377C219.878 148.377 217.909 148.377 215.611 148.377C214.627 148.377 213.97 148.048 213.314 147.719C212.329 147.39 211.673 146.403 211.673 145.416C211.673 144.758 211.673 144.1 211.673 143.442C211.673 142.126 211.673 140.81 211.673 139.823C211.345 138.507 211.345 137.52 211.017 136.204C211.017 135.875 211.017 135.875 210.688 135.546C209.704 133.901 208.719 133.243 206.75 132.914C206.094 132.914 205.765 132.914 205.109 132.914C203.14 133.243 201.499 133.901 199.53 134.888C197.232 136.204 195.591 137.849 194.607 140.152C194.278 141.139 193.95 142.126 193.95 143.113C193.95 143.442 193.95 143.771 193.95 144.429C193.95 146.074 192.637 147.39 190.996 147.39C190.012 147.39 188.699 147.39 187.714 147.719C187.058 148.048 186.402 147.719 185.745 148.048C185.089 148.048 184.432 148.048 183.776 148.377C182.135 149.035 180.822 148.706 179.181 148.706C175.571 148.706 171.961 148.706 168.351 148.706C167.366 148.706 166.381 148.706 165.725 149.035C165.069 149.364 164.084 149.035 163.428 149.035C153.582 149.035 143.736 149.035 133.89 149.364C132.577 149.364 131.264 149.364 129.951 149.693C129.295 150.022 128.639 149.693 127.982 149.693C125.685 149.693 123.387 149.693 121.09 149.693C119.777 149.693 118.136 149.693 116.823 149.364C116.167 149.035 115.182 149.035 114.526 149.364C112.557 149.364 110.588 149.035 108.29 148.706C107.634 148.706 106.649 148.048 105.993 147.719C105.008 147.061 104.68 146.074 104.352 144.758C104.352 143.771 103.695 142.455 103.695 141.468C103.367 139.494 102.383 137.52 101.398 135.875C101.398 135.546 101.07 135.546 101.07 135.546C100.742 135.217 100.085 134.559 99.4289 134.559C99.1007 134.559 98.7725 134.23 98.1161 134.559C97.7879 134.559 97.1315 134.888 96.4751 134.888C95.8187 134.888 95.1623 135.217 94.5059 135.546C93.5213 136.204 92.2085 136.862 91.2239 137.849C90.2393 138.836 89.5829 139.823 88.9265 140.81C88.2701 142.126 87.6137 143.771 86.6291 145.087C86.3009 146.074 85.3163 147.061 84.6599 147.719C83.6753 148.706 82.6907 149.035 81.3779 149.364C80.3933 149.364 79.4087 149.364 78.4242 149.693C75.7986 150.351 73.5012 150.022 70.8756 150.022C69.891 150.022 69.2346 149.693 68.5782 149.364C67.9218 149.035 67.5936 148.706 67.5936 148.048C67.2654 146.403 66.9372 145.087 66.9372 143.442C66.9372 141.797 66.2808 140.481 66.2808 138.836C65.6244 137.52 65.2962 136.204 64.3116 134.888C63.9834 134.559 63.6552 134.23 63.327 133.901C62.6706 133.243 62.0142 132.914 61.3578 132.585C61.0296 132.585 60.7014 132.256 60.3732 132.256C59.0604 131.927 57.7476 131.927 56.4348 132.256C55.4502 132.256 54.4656 132.585 53.481 132.914C52.4964 133.243 51.84 133.901 50.8554 134.559C50.199 134.888 49.8708 135.217 49.5426 135.875C47.5734 137.849 46.917 138.507 46.2606 142.126C45.9324 143.442 45.6042 144.758 45.6042 146.074C45.6042 146.732 45.2761 147.39 45.2761 147.719C45.2761 148.377 44.9479 149.035 44.6197 149.693C42.6505 150.68 41.6659 151.338 40.3531 151.338C39.3685 151.338 38.0557 151.338 37.0711 151.338C35.7583 151.338 34.4455 151.338 33.1327 151.667C32.4763 151.996 31.4917 151.667 30.8353 151.667C28.8661 151.667 26.8969 151.667 24.5995 151.667C24.2713 151.667 23.9431 151.667 23.9431 151.996C22.3021 152.654 20.9893 152.654 19.6765 152.654ZM154.238 115.149C155.223 114.491 155.551 113.504 155.551 112.517C155.551 111.53 155.551 110.543 155.551 109.556C155.551 106.266 155.551 102.647 155.551 99.3569C155.551 98.6989 155.551 98.0409 155.879 97.3829C156.207 96.3959 156.207 95.4089 156.207 94.7509C156.207 93.4349 156.207 91.7899 156.207 90.474C156.207 89.816 156.207 89.487 156.207 88.829C156.536 87.513 156.536 86.526 156.536 85.539C156.536 84.552 156.536 83.236 156.536 82.249C157.192 80.6041 156.864 78.9591 157.192 76.9851C157.192 76.3271 157.192 75.6691 157.52 75.0111C157.848 73.3661 157.848 72.0502 157.848 70.4052L157.52 70.0762C156.864 70.0762 156.536 70.0762 155.879 70.0762C151.613 70.0762 147.346 70.0762 143.079 70.0762C142.423 70.0762 141.767 70.0762 141.11 70.0762C140.126 69.0892 139.141 69.0892 138.156 69.0892C130.936 68.7602 124.044 69.0892 116.823 69.0892C115.839 69.0892 115.182 69.4182 114.198 69.7472C113.87 70.7342 113.87 71.7212 113.87 73.0372C113.87 80.6041 113.87 88.5 113.87 96.0669C113.87 98.0409 113.87 100.015 113.87 102.318C113.87 103.305 113.541 104.292 113.541 105.279C113.541 108.569 113.541 111.859 113.541 115.149C113.541 115.807 114.198 116.136 114.854 116.465C115.182 116.465 115.511 116.465 115.839 116.465C121.746 116.794 127.982 116.794 133.89 116.465C134.546 116.465 134.874 116.465 135.531 116.465C136.515 116.136 137.828 116.136 138.813 116.136C141.11 116.136 143.079 116.136 145.377 116.136C146.033 116.136 146.69 116.136 147.346 116.136C148.659 115.807 149.972 115.807 151.284 115.807C151.613 115.149 152.925 115.478 154.238 115.149ZM179.181 115.149C182.463 115.149 185.745 115.149 189.027 115.149C190.34 115.149 191.325 115.149 192.637 115.149C193.95 115.149 194.935 115.149 196.248 114.82C197.56 114.491 198.545 114.491 199.858 114.491C200.186 114.491 200.186 114.491 200.514 114.491C200.842 114.491 201.171 114.162 201.171 113.833C201.499 113.175 201.827 112.846 201.827 112.188C202.155 110.872 202.155 109.885 202.483 108.569C202.812 106.924 203.14 105.608 203.14 103.963C203.796 102.647 203.468 101.002 203.796 99.6858C203.796 99.3569 203.796 98.6989 203.796 98.3699C204.453 96.7249 204.124 95.4089 204.124 93.7639C204.124 91.4609 204.124 88.829 204.124 86.526C204.124 81.92 204.124 77.3141 204.124 72.7082C204.124 72.0502 204.124 71.0632 204.453 70.4052C204.453 70.0762 204.453 69.7472 204.124 69.0892C203.796 68.1022 203.14 67.4442 202.155 67.4442C201.499 67.4442 200.842 67.1152 200.186 67.1152C195.263 67.1152 190.668 67.1152 185.745 67.1152C185.089 67.1152 184.761 67.1152 184.104 67.1152C182.463 67.7732 180.494 67.4442 178.853 67.4442C178.197 67.4442 177.212 67.4442 176.556 67.7732C175.571 68.1022 174.586 68.1022 173.602 68.1022C172.945 68.1022 172.289 68.1022 171.304 68.1022C169.663 68.4312 168.351 68.4312 166.71 68.4312C166.053 68.4312 165.725 68.4312 165.069 68.7602C164.084 69.0892 163.756 69.4182 163.756 70.4052C163.756 71.0632 163.756 72.0502 163.756 72.7082C163.428 75.3401 163.756 77.9721 163.428 80.2751C163.428 80.6041 163.428 80.9331 163.428 81.2621C163.428 84.223 163.428 87.513 163.428 90.474C163.428 92.1189 163.428 93.7639 163.099 95.4089C163.099 95.7379 163.099 96.3959 163.099 97.0539C163.099 98.3699 163.099 99.6859 163.099 101.002C163.099 101.66 163.099 101.989 163.099 102.647C162.771 103.634 162.771 104.621 162.771 105.608C162.771 107.253 162.771 108.898 162.771 110.543C162.771 111.53 162.771 112.517 162.443 113.175V113.504C162.443 113.833 163.099 114.491 163.099 114.491C163.756 114.491 164.412 114.82 165.069 114.82C169.663 115.149 174.258 115.149 179.181 115.149ZM238.257 100.673C238.257 95.4089 238.257 91.1319 238.257 86.855C238.257 86.197 238.257 85.539 238.257 84.881C237.929 83.236 237.929 81.5911 237.929 79.9461C237.929 77.3141 237.929 74.3531 237.601 71.7212C237.601 70.7342 237.272 69.7472 236.944 69.0892C236.616 68.4312 235.96 67.7732 234.975 67.7732C234.319 67.7732 233.334 67.4442 232.678 67.4442C232.021 67.4442 231.365 67.1152 230.708 67.4442C229.067 67.7732 227.755 67.7732 226.114 67.7732C225.785 67.7732 225.129 67.7732 224.801 67.7732C223.816 68.1022 222.832 68.1022 221.847 68.4312C220.863 68.7602 219.878 68.7602 218.893 69.0892C218.565 69.0892 217.909 69.4182 217.581 69.7472C217.252 69.7472 217.252 70.0762 217.252 70.4052C217.252 70.7342 217.252 71.0632 217.252 71.3922C217.581 72.3792 217.909 73.6951 217.909 74.6821C217.909 75.6691 217.909 76.6561 217.909 77.6431C217.909 78.3011 217.909 78.6301 217.909 79.2881C218.237 79.9461 218.237 80.9331 218.237 81.5911C218.237 82.907 218.237 83.894 218.237 85.21C218.237 94.0929 218.237 102.976 218.237 111.859C218.237 112.517 218.237 113.175 218.237 113.833C217.909 115.149 217.909 116.136 217.909 117.452C217.909 119.755 217.909 122.058 217.581 124.69C217.581 125.348 217.581 126.006 217.581 126.664C217.581 127.322 218.237 127.98 218.893 127.98C220.206 127.98 221.847 127.98 223.16 127.651C223.488 127.651 223.816 127.322 224.473 127.322C225.457 127.322 226.77 126.993 227.755 126.664C229.396 126.664 231.037 126.006 232.678 126.006C233.662 126.006 234.319 125.677 235.303 125.348C235.631 125.348 235.96 125.019 235.96 124.69C236.616 123.703 237.272 122.716 237.272 121.729C237.601 120.084 238.257 118.439 237.929 116.794C237.929 116.465 237.929 115.807 237.929 115.478C238.257 114.162 238.257 113.175 238.257 111.859C238.257 107.911 238.257 103.963 238.257 100.673ZM107.962 75.3401C107.962 73.3661 107.962 71.7212 107.962 69.7472C107.962 69.4182 107.634 69.0892 107.634 69.0892C106.977 68.7602 106.649 68.4312 105.993 68.4312C105.008 68.4312 103.695 68.4312 102.711 68.1022C101.398 67.7732 100.413 67.7732 99.1007 67.7732C95.1623 67.7732 90.8957 67.7732 86.9573 67.4442C85.9727 67.4442 84.9881 67.4442 84.3317 67.4442C83.6753 67.1152 82.6907 67.1152 82.0343 67.1152C81.0497 67.1152 80.0651 67.1152 79.4087 67.1152C78.4242 67.1152 77.4396 67.1152 76.7832 67.1152C75.7986 67.1152 74.814 67.1152 74.1576 67.1152C73.173 67.1152 72.1884 67.1152 71.532 67.1152C70.5474 67.1152 69.5628 67.1152 68.9064 67.1152H68.5782C68.25 67.1152 67.5936 67.7732 67.5936 68.1022C67.5936 68.4312 67.5936 68.7602 67.5936 69.4182C67.5936 72.7082 67.5936 76.3271 67.5936 79.6171C67.5936 80.6041 67.5936 81.5911 67.2654 82.578C66.9372 84.552 66.9372 86.197 67.2654 88.171C67.5936 89.487 67.5936 90.474 67.5936 91.7899C67.5936 93.7639 67.5936 95.7379 67.5936 97.7119C67.5936 99.0279 67.5936 100.673 67.2654 101.989C67.2654 102.318 67.2654 102.647 67.2654 102.976C67.2654 106.595 67.2654 110.214 67.2654 113.833C67.2654 114.162 67.2654 114.491 67.2654 114.82C67.2654 115.149 67.5936 115.478 67.9218 115.807C68.5782 116.136 68.9064 116.465 69.5628 116.465C70.2192 116.465 70.5474 116.465 71.2038 116.794C72.1884 117.123 73.5012 117.123 74.4858 117.123C76.7832 117.123 78.7523 117.123 81.0497 117.123C82.0343 117.123 83.0189 117.452 84.0035 117.452C84.9881 117.452 86.3009 117.123 87.2855 117.123C89.5829 117.123 91.8803 117.123 94.5059 117.123C95.8187 117.123 97.4597 117.123 98.7725 116.794C99.1007 116.794 99.4289 116.794 100.085 116.794C101.07 116.794 102.054 116.794 102.711 116.794C105.993 116.794 106.321 115.478 107.306 113.175V112.846C107.634 110.872 108.29 108.898 107.962 106.924C107.962 106.266 107.962 105.279 107.962 104.621C108.29 103.634 108.29 102.647 108.29 101.66C108.29 99.6858 108.29 97.7119 108.618 95.7379C108.618 95.0799 108.618 94.7509 108.618 94.0929C108.947 93.1059 108.947 91.7899 108.947 90.803C108.947 88.829 108.947 86.855 108.947 84.552C108.947 83.894 108.947 83.236 109.275 82.578C109.603 81.9201 109.603 80.9331 109.603 80.2751C107.962 78.3011 107.962 76.9851 107.962 75.3401ZM60.7014 85.868C60.7014 84.881 60.7014 83.894 60.7014 82.907C60.7014 79.6171 60.7014 75.9981 60.7014 72.7082C60.7014 71.3922 60.3732 70.4052 60.045 69.0892C60.045 68.4312 59.3886 68.1022 59.0604 68.1022C57.4194 67.4442 55.4502 67.1152 53.8092 67.7732C53.1528 68.1022 52.1682 68.1022 51.5118 68.1022C49.8708 68.1022 47.9016 68.1022 46.2606 68.1022C42.9787 68.1022 39.6967 68.1022 36.4147 68.1022C35.1019 68.1022 33.4609 68.1022 32.1481 68.1022C30.8353 68.1022 29.1943 68.7602 27.8815 68.7602C26.8969 68.7602 26.2405 69.7472 26.2405 70.7342V71.0632C26.2405 72.0502 26.2405 73.0372 26.5687 74.0241C26.8969 75.0111 26.5687 75.9981 26.5687 76.9851C26.5687 81.5911 26.5687 86.197 26.8969 90.803C26.8969 91.4609 26.8969 92.1189 27.2251 92.7769C27.5533 93.7639 27.5533 94.7509 27.5533 95.4089C27.5533 96.3959 27.5533 97.7119 27.5533 98.6989C27.5533 103.963 27.5533 109.227 27.5533 114.82C27.5533 115.478 27.5533 116.136 27.5533 117.123C27.5533 118.11 28.8661 119.426 29.8507 119.755C30.5071 119.755 30.8353 119.755 31.4917 119.755C34.1173 119.755 36.7429 119.755 39.3685 119.426C39.6967 119.426 40.3531 119.426 40.6813 119.097C41.3377 118.768 42.3223 118.768 42.9787 118.768C43.6351 118.768 44.6197 118.768 45.2761 118.439C45.6043 118.439 45.9324 118.11 46.5888 118.11C47.9016 118.11 48.8862 117.781 50.199 117.452C51.5118 117.123 52.8246 117.123 54.1374 116.794C55.122 116.465 56.4348 116.136 57.4194 115.478C58.0758 115.149 58.7322 114.491 58.7322 113.833C59.0604 113.504 59.0604 112.846 59.3886 112.517C60.045 111.201 59.7168 109.556 60.3732 108.24C60.3732 107.911 60.7014 107.253 60.7014 106.595C60.7014 105.279 60.7014 103.963 60.7014 102.647C60.7014 101.989 60.7014 101.331 60.7014 100.673C61.0296 99.6859 61.0296 98.6989 61.0296 97.7119C60.7014 94.0929 60.7014 90.145 60.7014 85.868Z" fill="#FFD583"/>
<path d="M52.8246 152.654C52.8246 152.325 52.4964 152.325 52.1682 151.996C50.5272 151.338 49.2144 150.022 48.2298 148.706C47.5734 147.061 46.917 145.416 47.5734 143.771C47.9016 142.455 48.558 141.468 49.2144 140.481C49.8708 139.494 50.8554 138.507 51.84 137.849C52.4964 137.191 53.481 137.191 54.4656 137.191C55.122 137.191 55.7784 137.191 56.763 137.191C57.4194 137.191 57.7476 137.191 58.404 137.52C59.7168 137.849 60.3732 138.836 61.3578 139.823C62.0142 140.81 62.6706 141.797 62.9988 143.113C62.9988 143.442 62.9988 143.771 62.9988 144.1C62.6706 145.416 62.3424 146.732 62.0142 148.048C61.3578 149.364 60.3732 150.68 59.0604 151.667C58.7322 151.996 58.0758 152.325 57.7476 152.325C57.4194 152.325 57.0912 152.654 57.0912 152.983C55.122 152.654 54.1374 152.654 52.8246 152.654Z" fill="#281F1E"/>
<path d="M143.408 5.92193C142.751 5.59294 142.423 5.59294 141.767 5.92193C140.782 6.25093 140.126 6.25093 139.141 6.57993C138.485 6.57993 137.5 6.90892 136.844 7.23792C135.531 7.56692 134.218 7.89591 132.577 8.22491C131.264 8.5539 130.28 9.2119 129.295 9.86989C128.967 10.1989 128.31 10.5279 127.654 10.8569C126.998 11.1859 126.013 11.1859 125.357 10.1989C125.028 9.86989 125.028 9.54089 125.028 9.2119C125.685 7.89591 126.341 7.23792 126.998 6.57993C128.31 5.59294 129.623 4.60595 131.264 4.27695C133.562 3.61896 135.859 2.96097 138.156 2.30297C139.469 1.97398 140.454 1.64498 141.767 1.64498C143.736 0.986989 145.705 0.986989 147.674 0.986989C148.002 0.986989 148.659 0.986989 148.987 0.986989C150.956 0.328996 153.254 0.657993 155.551 0.328996C156.536 0.328996 157.848 0.328996 158.833 0C159.161 0 159.818 0 160.474 0C163.756 0 166.71 0 169.992 0C170.976 0 171.961 0 172.946 0.328996C173.274 0.328996 173.602 0.328996 174.258 0.657993C176.556 0.657993 178.525 1.97398 180.166 3.61896C180.494 3.94796 181.151 4.60595 181.479 4.93494C182.135 5.59294 182.135 6.57993 182.135 7.56691C182.135 8.22491 181.479 8.5539 180.822 8.8829C179.838 9.2119 179.181 8.8829 178.525 8.22491C178.525 8.22491 178.525 8.22491 178.197 7.89591C176.884 5.59294 174.587 4.93494 172.289 4.60595C170.648 4.60595 169.335 4.60595 167.694 4.60595C167.366 4.60595 167.366 4.60595 167.366 4.93494C167.366 5.26394 167.366 5.26394 167.694 5.59294C168.351 6.25093 169.007 6.57993 169.335 7.23792C170.32 8.22491 171.305 9.2119 172.289 10.1989C173.602 11.8439 174.915 13.4888 175.571 15.7918C175.899 16.4498 175.899 17.1078 175.899 17.7658C175.899 19.7398 175.899 21.3848 175.899 23.3587C175.571 24.6747 175.243 25.9907 174.915 27.3067C173.93 30.9257 172.617 34.2156 170.976 37.1766C170.648 37.8346 170.32 38.4926 169.992 39.4796C169.664 40.1376 169.992 40.4665 170.648 40.4665C171.633 40.4665 172.946 40.1375 173.93 40.1375C174.915 40.1375 176.228 40.1375 177.212 40.1375C180.166 40.1375 183.12 40.1375 186.074 40.1375C187.058 40.1375 188.043 40.1376 189.027 39.8086C189.684 39.4796 190.34 39.8086 190.996 39.8086C194.935 39.8086 198.873 39.8086 203.14 39.4796C204.124 39.4796 205.109 39.4796 205.765 39.1506C206.422 38.8216 207.078 39.1506 207.735 39.1506C218.237 38.8216 228.739 38.8216 238.914 39.1506C239.242 39.1506 239.898 39.1506 240.226 39.1506C242.196 39.8086 244.165 39.4796 246.134 39.4796C248.103 39.4796 250.072 39.8086 252.042 40.1375C254.011 40.4665 255.652 41.1245 257.621 41.7825C259.918 42.7695 262.216 44.0855 264.185 46.0595C265.169 47.0465 266.482 48.3625 267.467 49.3494C268.451 50.3364 269.108 51.3234 269.764 52.3104C269.764 52.3104 269.764 52.6394 269.764 52.9684H269.436C268.451 52.9684 267.467 52.9684 266.482 52.9684C265.169 52.3104 263.857 52.6394 262.544 52.6394C257.621 52.6394 252.698 52.6394 247.775 52.6394C247.447 52.6394 247.119 52.6394 246.79 52.6394C245.149 52.9684 243.837 52.9684 242.196 52.9684C238.585 52.9684 234.975 52.9684 231.365 53.2974C230.052 53.2974 229.068 53.2974 227.755 53.6264C227.427 53.6264 226.77 53.6264 226.114 53.6264C224.145 53.6264 222.175 53.6264 219.878 53.6264C218.565 53.6264 217.252 53.6264 215.94 53.9554C215.611 53.9554 214.955 53.9554 214.299 53.9554C212.001 53.9554 209.704 53.9554 207.078 54.2844C206.094 54.2844 205.109 54.2844 204.124 54.6134C203.796 54.6134 203.14 54.6134 202.483 54.6134C199.858 54.6134 197.232 54.6134 194.935 54.6134C193.294 54.6134 191.981 54.6134 190.34 54.9424C190.012 54.9424 189.355 54.9424 188.699 54.9424C185.745 54.9424 183.12 54.9424 180.166 55.2714C179.51 55.2714 179.181 55.2714 178.525 55.2714C177.212 55.6004 175.571 55.6004 174.258 55.6004C172.289 55.6004 170.32 55.6004 168.351 55.6004C167.694 55.6004 166.71 55.6004 166.053 55.9294C165.397 55.9294 164.741 55.9294 164.084 55.9294C160.802 55.9294 157.52 55.9294 154.238 56.2584C153.582 56.2584 152.597 56.2584 151.941 56.5874C151.284 56.9164 150.628 56.5874 149.972 56.9164C146.69 56.9164 143.736 56.9164 140.454 56.9164C126.998 56.9164 113.542 56.9164 99.7572 56.9164C99.1008 56.9164 98.1162 56.9164 97.4598 56.5874C96.8034 56.5874 96.147 56.5874 95.4906 56.5874C86.6292 56.5874 77.7678 56.5874 68.9064 56.5874C67.5936 56.5874 66.2809 56.5874 64.9681 56.5874C63.9835 56.5874 62.6707 56.5874 61.6861 56.9164C61.0297 57.2454 60.0451 56.9164 59.3887 56.9164C55.4503 56.9164 51.5119 56.9164 47.5735 57.2454C46.5889 57.2454 45.6043 57.2454 44.6197 57.5744C44.2915 57.9034 43.6351 57.5744 42.9787 57.5744C41.9941 57.5744 40.6813 57.5744 39.6967 57.5744C38.7121 57.5744 37.7275 57.5744 36.7429 57.9034C36.0865 58.2323 35.4301 57.9034 34.7737 58.2323C33.4609 58.2323 32.1482 58.2323 30.8354 58.5613C28.8662 58.8903 26.5688 58.8903 24.2714 58.8903C23.2868 58.8903 22.3022 58.8903 21.3176 59.2193C20.9894 59.5483 20.333 59.2193 19.6766 59.2193L19.3484 58.8903C19.3484 58.2323 19.3484 57.9033 19.3484 57.2454C19.6766 56.2584 20.333 55.2714 20.6612 54.6134C21.3176 53.6264 21.6458 52.6394 22.3022 51.6524C22.9586 50.3364 23.615 49.0205 24.5996 48.0335C24.5996 47.7045 24.9278 47.7045 24.9278 47.7045C27.5534 44.7435 30.8354 42.4405 34.7737 41.7825C37.3993 41.1245 37.3993 41.1245 40.0249 41.1245C41.6659 41.1245 42.9787 41.1245 44.6197 40.4665C44.9479 40.4665 45.2761 40.4665 45.9325 40.4665C46.5889 40.4665 47.2453 40.4665 47.9017 40.4665C48.2299 39.4796 50.1991 39.4796 52.1683 39.4796C54.7939 39.4796 57.7477 39.4796 60.3733 39.4796C62.0143 39.4796 63.3271 39.4796 64.9681 39.1506C65.6245 39.1506 66.2809 39.1506 66.9373 39.1506C75.1422 39.1506 83.019 39.1506 91.224 39.1506C93.8496 39.1506 96.4752 39.1506 99.1008 39.1506C100.742 39.1506 102.711 39.1506 104.352 39.4796C104.68 39.4796 105.337 39.4796 105.993 39.4796C107.962 39.4796 109.931 39.4796 112.229 39.8086C113.213 39.8086 114.198 39.8086 115.183 40.1375C115.839 40.4665 116.495 40.1375 117.48 40.1375C123.059 40.1375 128.967 40.1375 134.546 40.1375C136.515 40.1375 138.485 40.1375 140.454 40.1375C140.782 40.1375 141.438 40.1376 141.767 39.8086C141.767 39.4796 141.11 39.1506 140.782 39.1506C137.828 37.1766 134.546 35.2026 131.264 33.2286C129.295 32.2416 127.654 30.5967 126.341 28.9517C125.685 28.2937 125.357 27.6357 125.028 26.9777C124.7 26.6487 124.7 25.9907 124.7 25.6617C124.7 25.3327 124.7 25.0037 124.7 24.6747C124.372 22.3717 125.357 20.3978 126.998 18.4238C129.295 15.7918 131.921 13.4888 134.874 11.5149C135.859 10.8569 136.844 10.1989 137.828 9.54089C139.469 8.5539 141.11 7.56692 142.423 6.25093C142.423 5.92193 143.079 5.92193 143.408 5.92193ZM171.305 19.4108C171.305 17.7658 170.976 16.1208 169.992 14.8048C169.335 13.4888 168.679 12.5019 167.694 11.5149C166.382 9.86989 164.741 8.5539 163.1 7.56691C162.771 7.23792 162.115 7.23792 161.787 7.56691C159.489 9.2119 157.192 10.8569 154.895 12.8309C154.566 12.8309 154.566 13.4888 154.895 13.8178C155.223 14.1468 155.551 14.8048 155.551 15.1338C155.879 15.7918 156.536 16.4498 156.536 17.4368C156.864 19.4108 156.864 21.3848 156.207 23.6877C155.879 25.3327 155.551 26.9777 154.895 28.2937C154.895 28.6227 154.895 29.2807 155.223 29.2807C155.879 29.6097 156.536 29.9387 156.864 29.9387C159.818 31.5836 162.443 33.2286 164.741 35.5316C164.741 35.5316 164.741 35.5316 165.069 35.8606C165.397 36.1896 165.725 35.8606 166.053 35.5316C167.038 33.5576 168.023 31.2546 168.679 28.9517C169.335 26.6487 170.32 24.3457 170.648 22.0428C171.305 21.3848 171.305 20.3978 171.305 19.4108ZM148.987 30.9257C148.987 30.5967 148.659 30.2677 148.331 29.9387C147.346 29.6097 146.69 28.9517 145.705 28.2937C144.72 27.6357 144.064 26.9777 143.079 25.9907C142.095 25.0037 141.767 23.6877 141.767 22.3717C141.767 22.0428 141.767 22.0428 141.767 21.7138C141.767 20.0688 142.095 18.7528 143.079 17.7658C143.736 17.1078 144.064 16.4498 144.72 16.1208C145.705 15.1338 146.361 14.4758 147.346 13.4888C147.674 13.4888 148.002 13.1599 148.331 13.1599C148.659 12.8309 148.659 12.1729 148.331 11.8439C147.346 11.1859 146.69 10.5279 145.705 9.54089C145.049 9.2119 144.72 9.2119 144.392 9.54089C143.408 10.5279 142.095 11.5149 141.11 12.1729C139.469 13.1599 137.828 14.4758 136.515 15.4628C134.546 16.7788 132.905 18.4238 131.264 20.0688C130.28 21.0558 129.623 22.0428 128.967 23.3587C128.639 24.0167 128.639 24.6747 128.967 25.0037C129.295 25.6617 129.623 26.3197 130.28 26.6487C130.936 26.9777 131.264 27.6357 131.921 27.9647C133.233 29.2807 134.874 29.9387 136.515 30.9257C139.469 32.8996 142.423 34.5446 145.377 36.5186C145.705 36.8476 146.361 36.5186 146.361 36.1896C147.346 34.8736 148.331 32.8996 148.987 30.9257ZM153.254 32.8996C152.597 32.8996 152.269 33.5576 152.269 33.8866C151.284 35.5316 150.3 37.5056 148.987 39.1506V39.4796C148.987 39.8086 148.987 39.8086 149.315 40.1375C149.643 40.1375 149.972 40.4665 150.628 40.4665C153.254 40.4665 156.207 40.4665 158.833 40.4665C159.818 40.4665 161.13 40.4665 162.115 40.4665C162.443 40.4665 163.1 40.4665 163.428 40.1375C163.428 39.4796 162.771 39.1506 162.443 38.8216C161.787 38.1636 161.13 37.8346 160.474 37.1766C159.818 36.5186 158.833 35.8606 158.177 35.2026C156.536 34.2156 154.895 33.5576 153.254 32.8996ZM150.628 26.6487C151.284 26.3197 151.284 25.9907 151.284 25.6617C151.941 24.0167 152.269 22.7007 152.269 21.0558C152.269 19.7398 152.269 18.7528 152.269 17.4368C152.269 16.7788 151.941 16.4498 151.613 16.1208C151.284 16.1208 151.284 15.7918 150.956 16.1208C149.315 17.4368 147.674 18.7528 146.361 20.3978C146.033 20.7268 146.033 21.0558 145.705 21.3848C145.377 21.7138 145.705 22.0428 145.705 22.7007C146.033 23.3587 146.361 24.0167 147.018 24.3457C148.331 25.3327 149.643 25.9907 150.628 26.6487ZM151.941 9.54089C152.269 9.54089 152.597 9.2119 152.925 9.2119C154.895 7.89591 156.864 6.25093 158.833 4.93494L159.161 4.60595H158.833C157.192 4.60595 155.223 4.60595 153.582 4.93494C153.254 4.93494 152.597 4.93494 151.941 4.93494C150.628 4.93494 149.643 4.93494 148.331 4.93494C148.002 4.93494 147.674 4.93494 147.346 5.26394C147.346 5.26394 147.346 5.26394 147.346 5.59294V5.92193C148.987 6.90892 150.628 8.22491 151.941 9.54089Z" fill="#281F1E"/>
<path d="M276 88.1709C276 91.1319 276 94.7508 276 98.0408C276 98.6988 276 99.6858 275.672 100.344C275.672 101.002 275.672 101.66 275.344 102.318C275.344 104.292 275.344 106.266 275.015 108.569C275.015 109.556 274.687 110.872 274.359 111.859L274.031 112.188C272.39 112.188 270.421 112.188 268.78 111.859C268.123 111.53 267.139 111.53 266.482 111.53C264.513 111.53 262.544 111.53 260.575 111.53C258.605 111.53 256.964 110.872 255.323 110.214C254.011 109.885 253.354 108.898 252.698 107.582C252.37 106.595 251.713 105.608 251.713 104.292C251.713 103.634 251.713 102.647 251.713 101.989C251.713 101.66 251.713 101.002 251.713 100.673C251.057 98.3698 251.385 96.0668 251.385 93.7638C251.385 88.4999 251.385 83.236 251.385 77.643C251.385 76.656 251.385 75.669 251.713 74.6821C252.041 74.0241 252.041 73.3661 252.041 72.7081C252.041 71.0631 252.698 70.0761 253.354 68.7601C253.682 68.4311 254.011 68.1021 254.339 68.1021C254.995 67.7731 255.652 67.4441 256.308 67.1151C256.636 66.7861 257.293 66.7861 257.621 66.7861C258.934 66.7861 259.918 66.7861 261.231 66.4572C261.559 66.4572 261.559 66.4572 261.887 66.4572C264.841 66.4572 268.123 66.4572 271.077 66.4572C272.062 66.4572 273.046 66.7861 274.031 67.1151C274.359 67.1151 274.359 67.4441 274.359 67.4441C274.359 67.7731 274.359 67.7731 274.359 68.1021C274.359 69.0891 274.359 70.0761 274.687 71.0631C275.015 71.3921 274.687 72.0501 275.015 72.7081C275.015 74.0241 275.015 75.0111 275.344 76.327C275.672 76.985 275.344 77.972 275.344 78.63C276 81.591 276 84.8809 276 88.1709Z" fill="#281F1E"/>
<path d="M93.5213 151.009C92.8649 151.009 92.5367 151.009 91.8803 151.009C91.5521 151.009 91.224 151.009 90.8958 150.68C89.2548 149.693 88.2702 148.706 87.6138 146.732C87.6138 146.403 87.2856 145.745 87.6138 145.087C87.942 142.784 88.5984 140.81 90.5676 139.494C91.2239 138.836 92.2086 138.507 93.1931 138.507C93.5213 138.507 94.1777 138.507 94.5059 138.178C96.4751 137.52 97.7879 138.178 99.1007 139.494C100.085 140.481 100.414 141.468 100.742 142.784C100.742 143.442 100.742 144.1 100.742 144.758C100.414 146.403 99.7571 147.719 98.7725 148.706C98.4443 149.035 98.4443 149.035 98.1161 149.364C97.7879 149.693 97.1315 150.022 96.8033 150.022C95.4905 151.009 94.5059 151.009 93.5213 151.009Z" fill="#281F1E"/>
<path d="M194.607 145.087C194.278 143.113 194.935 141.797 195.919 140.481C196.576 139.494 197.232 138.836 198.217 138.507C198.545 138.507 198.545 138.178 198.873 138.178C199.858 138.178 200.842 137.849 201.827 138.178C203.468 138.507 204.781 139.494 205.765 140.81C206.094 141.139 206.094 141.797 206.422 142.126C206.422 142.455 206.422 142.784 206.422 143.113C206.094 145.745 205.109 147.719 202.812 149.035C202.483 149.035 202.155 149.364 201.827 149.364C201.171 149.364 200.514 149.693 200.186 149.693C199.858 149.693 199.858 149.693 199.53 149.693C198.217 149.364 197.232 149.035 196.248 148.377C195.591 147.719 194.935 146.732 194.935 145.745C194.607 145.745 194.607 145.416 194.607 145.087Z" fill="#281F1E"/>
<path d="M242.195 145.416C242.195 147.061 242.196 148.377 241.211 149.364C240.555 150.351 239.57 151.338 238.585 151.667C237.929 151.996 237.273 151.996 236.944 151.996C236.616 151.996 236.616 151.996 236.288 151.996C233.991 151.667 232.35 150.351 231.365 148.377C231.365 148.048 231.037 147.719 231.037 147.39C231.037 146.732 231.037 146.074 231.037 145.416C231.037 143.442 232.678 140.81 235.303 140.152C235.632 140.152 235.96 140.152 236.616 140.152C237.273 140.152 237.601 140.481 237.929 140.481C239.898 140.481 240.883 141.797 241.867 143.113C242.196 143.442 242.195 143.771 242.195 144.1C242.195 144.429 242.195 145.087 242.195 145.416Z" fill="#281F1E"/>
<path d="M135.203 84.223C141.438 84.223 147.346 84.223 153.582 84.223C153.91 84.223 154.238 84.223 154.895 84.223C155.223 84.223 155.551 84.552 155.551 84.881C155.551 86.855 155.551 88.829 155.223 90.803C155.223 91.461 155.223 92.119 155.223 92.7769C155.223 94.0929 155.223 95.0799 155.223 96.3959C155.223 97.0539 155.223 97.3829 155.223 98.0409C154.566 99.6859 154.895 101.66 154.895 103.305C154.895 105.608 154.895 107.911 154.895 110.214C154.895 111.201 154.895 112.188 154.895 113.175C154.895 113.833 154.566 114.491 153.254 114.82C152.269 114.82 151.284 114.82 150.628 114.82C147.346 114.82 143.736 114.82 140.454 114.82C139.141 114.82 137.828 114.82 136.515 115.149C136.187 115.149 135.859 115.149 135.203 115.149C128.967 115.478 122.403 115.478 116.167 115.149C115.839 115.149 115.511 115.149 115.183 115.149C114.854 115.149 114.526 114.82 114.526 114.491C114.526 113.833 114.526 113.504 114.526 112.846C114.526 108.898 114.526 104.95 114.854 101.002C114.854 100.015 114.854 99.0279 115.183 98.0409C115.511 97.3829 115.183 96.7249 115.183 96.0669C115.183 93.1059 115.183 89.816 115.183 86.855C115.183 86.197 115.183 85.868 115.183 85.21C115.183 84.552 115.511 83.894 116.167 83.894C117.152 83.894 118.136 83.894 119.121 83.894C121.418 83.894 123.716 83.894 126.013 83.894C128.967 84.223 131.921 84.223 135.203 84.223Z" fill="#281F1E"/>
<path d="M135.859 83.2362C130.936 83.2362 126.013 83.2362 121.09 83.2362C120.105 83.2362 119.121 83.2362 118.464 83.2362C117.48 83.2362 116.495 83.2362 115.839 83.5652C115.511 83.5652 115.182 83.2363 115.182 82.9073C115.182 82.5783 115.182 82.5783 115.182 82.2493C115.182 78.6303 115.182 75.0113 115.182 71.0634C115.182 70.7344 115.182 70.7344 115.182 70.4054C115.182 70.0764 115.511 70.0764 115.511 70.0764C115.839 70.0764 116.167 70.0764 116.823 70.0764C124.044 70.0764 131.592 69.7474 138.813 70.0764C140.454 70.0764 142.423 70.0764 144.064 70.4054C144.392 70.4054 144.72 70.4054 145.049 70.4054C148.331 70.4054 151.284 70.4054 154.566 70.4054C155.223 70.4054 155.879 70.0764 156.536 70.0764L156.864 70.4054C156.864 70.7344 156.864 70.7344 156.864 71.0634C156.864 73.0374 156.864 75.0113 156.207 77.3143C156.207 78.3013 156.207 79.6173 155.879 80.6043C155.879 81.2623 155.879 81.9203 155.551 82.5783L155.223 82.9073C154.566 82.9073 154.238 82.9073 153.582 82.9073C147.674 83.2363 141.767 83.2362 135.859 83.2362Z" fill="#281F1E"/>
<path d="M184.433 85.5391C189.684 85.5391 194.935 85.5391 200.186 85.5391C201.171 85.5391 202.155 85.5391 202.812 85.5391C203.14 85.5391 203.468 86.1971 203.796 86.526C204.124 87.513 204.124 88.5 203.796 89.487C203.468 90.474 203.468 91.461 203.468 92.119C203.468 93.764 203.468 95.08 203.468 96.7249C203.468 97.3829 203.468 98.3699 203.14 99.0279C203.14 99.3569 203.14 99.3569 203.14 99.6859C203.14 101.66 202.812 103.305 202.483 105.279C202.155 105.937 202.483 106.924 202.155 107.582C201.827 108.24 201.827 109.227 201.827 109.885C201.499 110.543 201.499 111.53 201.171 112.188C201.171 112.517 200.842 112.846 200.514 112.846C198.873 113.175 197.56 113.504 195.919 113.504C191.653 113.504 187.058 113.504 182.792 113.504C177.54 113.504 172.617 113.504 167.366 113.504C166.382 113.504 165.397 113.504 164.741 113.504C164.084 113.504 163.756 113.175 163.756 112.517C163.756 111.859 163.756 110.872 164.084 110.214C164.412 109.227 164.412 108.24 164.412 107.582C164.412 106.266 164.412 104.621 164.412 103.305C164.412 102.318 164.412 101.331 164.741 100.673C164.741 100.344 164.741 99.6859 165.069 99.0279C165.069 97.7119 165.069 96.7249 165.069 95.4089C165.069 94.751 165.069 94.422 165.069 93.764C165.725 91.461 165.397 89.158 165.397 86.855C165.397 86.526 165.397 86.1971 165.397 85.8681L165.725 85.5391C166.382 85.5391 167.038 85.5391 167.694 85.5391C173.274 85.5391 178.853 85.5391 184.433 85.5391Z" fill="#281F1E"/>
<path d="M193.294 68.1022C195.919 68.1022 198.873 68.1022 201.827 68.1022C202.483 68.1022 203.14 68.7602 203.468 69.4182C203.796 71.0632 204.124 72.3791 204.124 74.0241C204.124 76.6561 204.124 79.6171 204.124 82.249C204.124 82.907 204.124 83.236 204.124 83.894C204.124 84.223 203.468 84.881 203.14 84.881C202.155 84.552 200.842 84.552 199.858 84.552C189.684 84.552 179.181 84.552 169.007 84.552C168.351 84.552 167.366 84.552 166.71 84.552C166.382 84.552 166.053 84.223 166.053 83.894C166.053 83.565 166.053 83.236 166.053 82.578C166.053 80.604 166.053 78.9591 166.053 76.9851C166.053 75.6691 166.053 74.6821 166.382 73.3661C166.382 73.0371 166.382 73.0371 166.382 72.7081C166.382 72.0501 166.053 71.0632 166.71 70.4052C167.366 69.7472 168.023 70.0762 168.679 69.7472C169.335 69.4182 169.992 69.4182 170.648 69.4182C171.961 69.4182 173.274 69.4182 174.587 69.0892C176.556 68.4312 178.525 68.7602 180.822 68.4312C181.479 68.4312 182.463 68.4312 183.12 68.1022C183.776 67.7732 184.432 68.1022 185.089 67.7732C187.386 68.4312 190.012 68.4312 193.294 68.1022Z" fill="#281F1E"/>
<path d="M237.273 97.3827C237.273 102.318 237.273 107.253 237.273 112.188C237.273 113.833 237.273 115.477 236.616 117.122C236.288 117.78 236.616 118.438 236.288 119.096C236.288 120.412 235.632 121.728 235.303 123.044C235.303 123.373 234.975 123.702 234.647 124.031C234.319 124.689 233.662 125.018 233.006 125.018C232.021 125.018 231.037 125.018 230.38 125.347C230.052 125.676 229.396 125.018 229.396 124.689C229.396 124.36 229.396 124.031 229.396 123.373C229.396 121.07 229.396 118.438 229.068 116.135C229.068 115.478 229.068 114.491 228.739 113.833C228.739 113.175 228.739 112.517 228.739 111.859C228.739 107.911 228.739 104.292 228.411 100.344C228.411 99.6857 228.411 99.0277 228.083 98.3697C228.083 97.7117 228.083 97.0537 227.755 96.3957C227.755 94.4217 227.755 92.4478 227.427 90.4738C227.427 89.4868 227.427 88.4998 227.098 87.5128C226.77 86.8548 227.098 86.1968 227.098 85.5388C227.098 83.5649 227.098 81.9199 227.098 79.9459C227.098 78.9589 227.098 77.9719 226.77 76.9849C226.77 76.6559 226.77 75.998 226.77 75.34C226.77 74.682 226.77 73.695 226.77 73.037C226.77 72.05 226.77 71.063 226.442 70.076C226.114 69.089 226.442 68.76 227.427 68.431C227.755 68.431 228.083 68.1021 228.739 68.1021C230.052 68.1021 231.037 68.1021 232.35 68.1021C233.334 68.1021 234.319 68.431 234.975 68.431C235.96 68.76 236.288 69.418 236.616 70.405C236.616 70.734 236.616 71.063 236.616 71.721C236.616 73.037 236.616 74.353 236.616 75.669C236.616 76.6559 236.616 77.9719 236.944 78.9589C237.273 79.6169 236.944 80.2749 236.944 80.9329C236.944 84.2229 236.944 87.5128 236.944 90.8028C237.273 93.1058 237.273 95.4087 237.273 97.3827Z" fill="#281F1E"/>
<path d="M218.237 125.348C218.237 125.019 218.237 124.69 218.237 124.361C218.565 123.374 218.565 122.058 218.565 121.071C218.565 118.768 218.565 116.136 218.565 113.833C218.565 112.846 218.565 111.859 218.893 110.872C219.222 110.214 218.893 109.556 218.893 108.898C218.893 101.989 218.893 95.0799 218.893 88.171C218.893 87.184 218.893 86.197 218.565 85.539C218.237 84.8811 218.565 84.2231 218.565 83.2361C218.565 80.9331 218.565 78.6301 218.565 76.3272C218.565 75.3402 218.565 74.3532 218.237 73.6952C217.909 72.7082 217.909 71.7212 217.909 71.0632C217.909 70.7342 218.237 70.4052 218.565 70.4052C219.55 70.0762 220.534 69.7472 221.519 69.7472C222.504 69.7472 223.16 69.4182 224.145 69.0892C224.145 69.0892 224.473 69.0892 224.801 69.4182C225.129 69.7472 225.129 70.0762 225.129 70.0762C225.129 70.7342 225.129 71.3922 225.457 72.3792C225.457 73.3662 225.457 74.6822 225.786 75.6692C225.786 75.9982 225.786 76.6561 225.786 77.3141C225.786 78.3011 225.786 79.6171 225.786 80.6041C225.786 81.2621 225.786 81.5911 225.786 82.2491C226.442 84.8811 226.114 87.842 226.114 90.474C226.114 91.461 226.114 92.777 226.114 93.764C226.114 94.093 226.114 94.7509 226.114 95.0799C226.77 96.3959 226.442 98.0409 226.442 99.3569C226.442 101.66 226.442 103.963 226.442 106.266C226.442 107.253 226.442 108.24 226.77 108.898C227.098 109.556 226.77 110.214 226.77 110.872C226.77 113.833 226.77 116.794 226.77 119.755C226.77 121.4 226.77 122.716 227.098 124.361C227.098 124.69 227.098 125.019 227.098 125.348C227.098 125.677 226.77 126.006 226.442 126.006C226.114 126.006 225.786 126.335 225.457 126.335C224.473 126.664 223.16 126.664 222.175 126.993C221.191 127.322 220.206 127.322 219.222 127.322C218.565 127.322 217.909 127.322 217.581 126.993C217.252 126.993 217.252 126.664 216.924 126.335C218.237 126.006 218.237 125.677 218.237 125.348Z" fill="#281F1E"/>
<path d="M66.9373 99.0279C66.9373 94.7509 66.9373 90.474 66.9373 86.197C66.9373 85.539 66.9373 84.8811 66.9373 84.2231C66.9373 83.8941 67.2655 83.5651 67.5937 83.5651C67.9218 83.5651 67.9219 83.5651 68.2501 83.5651C72.5166 83.5651 76.7832 83.5651 81.0498 83.5651C81.7062 83.5651 82.3626 83.5651 83.019 83.8941C84.0036 84.2231 85.3164 84.2231 86.301 83.8941C86.9574 83.5651 87.6138 83.5651 88.2702 83.5651C93.1932 83.5651 98.1162 83.5651 103.039 83.5651C104.024 83.5651 105.008 83.5651 105.665 83.5651C105.993 83.5651 106.321 83.8941 106.321 84.5521C106.321 84.8811 106.321 85.21 106.321 85.539C105.993 86.526 105.993 87.184 105.993 88.171C105.993 89.816 105.993 91.132 105.993 92.777C105.993 93.764 105.993 94.7509 105.665 95.4089C105.665 95.7379 105.665 96.3959 105.665 97.0539C105.665 98.6989 105.665 100.673 105.665 102.318C105.665 103.634 105.665 104.95 105.337 106.266C105.337 106.595 105.337 106.924 105.337 107.582C105.337 109.227 105.008 110.872 104.68 112.517C104.68 113.175 104.024 113.833 103.696 114.491C103.367 114.82 103.039 115.149 102.711 115.149C101.398 115.478 100.085 115.149 99.1008 115.807C97.788 115.807 96.8034 115.807 95.4906 115.807C93.8496 115.807 92.2086 115.807 90.5676 115.807C89.2548 115.807 88.2702 115.807 86.9574 116.136C86.6292 116.136 86.301 116.136 85.6446 116.136C82.3626 116.136 79.4088 116.136 76.1268 116.136C75.7986 116.136 75.1422 116.136 74.814 116.136C73.5012 115.807 72.5166 115.807 71.2038 115.807C69.891 115.807 68.5782 115.149 67.2654 114.82L66.9373 114.491C66.9373 114.162 66.9373 113.833 66.9373 113.175C66.9373 109.227 66.9373 105.608 66.9373 101.66C66.9373 101.002 66.9373 100.015 66.9373 99.0279Z" fill="#281F1E"/>
<path d="M79.0806 68.431C82.3626 68.431 85.3164 68.431 88.5984 68.431C89.583 68.431 90.5676 68.431 91.5522 68.76C91.8804 68.76 92.5368 68.76 93.1932 68.76C95.4906 68.76 97.4598 68.76 99.7572 68.76C102.055 68.76 104.352 69.089 106.321 69.418C106.649 69.418 106.978 69.747 106.978 70.076C106.978 70.405 106.978 70.405 106.978 70.734C106.978 74.353 106.978 77.9719 106.978 81.5909C106.978 81.9199 106.978 81.9199 106.978 82.2489C106.978 82.5779 106.321 82.9069 105.993 82.9069C102.383 82.2489 98.7726 82.5779 95.1624 82.5779C94.8342 82.5779 94.1778 82.5779 93.8496 82.5779C92.5368 82.9069 90.8958 82.9069 89.583 82.9069C86.301 82.9069 83.019 82.9069 79.737 82.9069C78.7524 82.9069 77.4396 82.9069 76.455 82.5779C75.7986 82.2489 75.1422 82.5779 74.4858 82.5779C72.5166 82.5779 70.8756 82.5779 68.9064 82.5779C68.5782 82.5779 68.25 82.5779 67.5937 82.5779C67.2655 82.5779 66.9373 82.2489 66.9373 81.9199V81.5909C66.9373 77.9719 66.9373 74.353 66.9373 70.405C66.9373 70.076 66.9373 69.747 66.9373 69.089C66.9373 68.76 67.5937 68.1021 67.9219 68.1021C71.8602 68.431 75.4704 68.431 79.0806 68.431Z" fill="#281F1E"/>
<path d="M59.7168 93.1061C59.7168 95.4091 59.7168 97.712 59.7168 100.015C59.7168 101.66 59.7168 103.305 59.3886 104.95C59.3886 105.279 59.3886 105.608 59.3886 106.266C59.3886 108.24 59.0605 110.214 58.7323 112.188C58.4041 113.504 57.7477 114.82 56.7631 115.478C56.4349 115.807 55.7785 116.136 55.1221 116.136C53.4811 116.465 51.8401 116.794 50.1991 117.123C49.8709 117.123 49.5427 117.123 48.8863 117.123C47.9017 117.123 46.9171 117.123 46.2607 117.452C45.9325 117.781 45.2761 117.452 44.6197 117.781C43.3069 117.781 42.3223 117.781 41.0095 118.439C40.3531 118.768 39.6967 118.439 39.0403 118.768C38.3839 118.768 37.7275 118.768 37.0711 118.768C35.1019 119.426 33.4609 119.097 31.4917 119.097C30.8353 119.097 30.1789 118.768 29.5225 118.439C28.8661 118.11 28.5379 117.452 28.2097 116.794C28.2097 116.136 28.2097 115.149 28.2097 114.491C28.2097 109.227 28.2097 103.963 28.2097 98.699C28.2097 97.712 28.2097 96.7251 27.8815 96.0671C27.8815 95.7381 27.8815 95.0801 27.8815 94.4221C27.8815 92.7771 27.8815 91.4611 27.8815 89.8161C27.8815 88.5001 27.8815 86.8552 27.5533 85.5392C27.5533 84.8812 27.8815 84.2232 28.5379 84.2232C28.8661 84.2232 29.1943 84.2232 29.8507 84.2232C32.1481 84.2232 34.4455 84.2232 36.7429 84.2232C37.7275 84.2232 38.7121 84.2232 39.6967 83.8942C40.3531 83.5652 41.3377 83.8942 41.9941 83.8942C46.5889 83.8942 50.8555 83.8942 55.4503 83.8942C56.4349 83.8942 57.7477 83.8942 58.7323 83.2362C59.0605 83.2362 59.0604 83.2362 59.3886 83.2362C59.7168 83.2362 60.045 83.5652 60.045 83.8942C60.045 84.2232 60.045 84.5522 60.045 85.2102C59.7169 87.1842 59.7168 90.1451 59.7168 93.1061Z" fill="#281F1E"/>
<path d="M40.6813 69.0894C43.6351 69.0894 46.9171 69.0894 49.8709 69.0894C50.5273 69.0894 51.1837 69.0894 51.8401 68.7604C53.4811 68.4314 55.122 68.4314 57.0912 68.4314C58.0758 68.4314 59.0604 69.4184 59.3886 70.7344C59.3886 71.3924 59.3886 72.0504 59.3886 73.0373C59.3886 75.3403 59.3886 77.9723 59.3886 80.2753C59.3886 80.6043 59.3886 80.9333 59.3886 81.2623C59.3886 81.5913 59.0604 81.9202 58.7322 81.9202C56.763 81.9202 54.7938 82.2492 52.4965 82.2492C50.8555 82.2492 49.2145 82.2492 47.5735 82.5782C46.9171 82.5782 46.2607 82.5782 45.6043 82.5782C41.0095 82.5782 36.7429 82.5782 32.1481 82.9072C30.8353 82.9072 29.5225 82.9072 28.2097 83.2362C27.8815 83.2362 27.8815 83.2362 27.5533 83.2362C27.2251 83.2362 26.5687 82.9072 26.5687 82.5782C26.5687 78.6303 26.5687 74.6823 26.5687 70.7344C26.5687 70.4054 26.8969 70.0764 27.2251 69.7474C29.8507 69.0894 31.8199 68.7604 34.1173 69.0894C35.1019 69.0894 36.4147 69.0894 37.3993 69.0894C38.3839 69.0894 39.6967 69.0894 40.6813 69.0894Z" fill="#281F1E"/>
<path d="M85.6445 177L85.3163 176.671C84.6599 176.671 83.6753 176.671 83.0189 176.671C79.7369 176.671 76.7831 176.671 73.5011 176.671C72.5165 176.671 71.2038 176.671 70.2192 176.342C69.5628 176.342 68.9064 176.342 68.25 176.342C66.609 176.342 64.968 176.342 63.327 176.342C62.3424 176.342 61.3578 176.342 60.3732 176.013C59.7168 175.684 59.0604 176.013 58.404 176.013C57.0912 176.013 55.4502 176.013 54.1374 176.013C53.1528 176.013 52.1682 176.013 51.1836 175.684C50.5272 175.355 49.5426 175.684 48.8862 175.355C44.9478 175.355 41.0094 175.355 37.0711 175.026C36.0865 175.026 35.1019 175.026 34.4455 174.697C33.7891 174.368 32.8045 174.697 32.1481 174.697C24.5995 174.697 17.0509 174.368 9.83053 174.368C8.18954 174.368 6.87674 174.368 5.23575 174.368C4.57935 174.368 3.92295 174.039 3.26655 174.039C1.62556 173.71 0.969161 172.394 0.312763 171.078V170.749C0.312763 169.762 -0.0154364 168.775 0.640962 167.788C0.969161 166.801 1.95376 165.814 2.93835 165.485C3.92295 165.156 4.90755 164.827 5.89215 164.827C10.4869 164.827 14.7535 164.827 19.3483 164.827C20.9893 164.827 22.6303 164.827 24.2713 165.156C24.9277 165.485 25.5841 165.156 26.5687 165.156C30.8353 165.156 35.4301 165.156 39.6966 165.156C41.3376 165.156 42.6504 165.156 44.2914 165.156C44.6196 165.156 45.276 165.156 45.6042 165.156C48.2298 165.814 51.1836 165.485 53.8092 165.485C54.4656 165.485 55.4502 165.485 56.1066 165.485C56.4348 165.485 57.0912 165.485 57.4194 165.485C59.3886 166.143 61.3578 165.814 63.327 165.814C64.3116 165.814 65.6244 165.814 66.609 166.143C67.2654 166.472 67.9218 166.143 68.5782 166.143C72.5165 166.143 76.4549 166.143 80.3933 166.472C81.3779 166.472 82.3625 166.472 83.3471 166.801C83.6753 166.801 84.3317 166.801 84.9881 166.801C86.6291 166.801 87.9419 166.801 89.5829 166.801C104.352 166.801 118.793 166.801 133.562 166.801C149.315 166.801 165.069 166.801 180.822 166.801C184.761 166.801 188.699 166.801 192.637 166.801C193.95 166.801 194.935 166.801 196.248 166.472C196.904 166.143 197.56 166.472 198.217 166.472C202.812 166.472 207.406 166.472 212.001 166.143C212.986 166.143 214.299 166.143 215.283 165.814C215.94 165.814 216.596 165.814 217.252 165.814C226.114 165.814 235.303 165.814 244.165 165.814C244.821 165.814 245.149 165.814 245.806 165.814C247.118 166.143 248.759 166.143 250.072 166.143C255.323 166.143 260.246 166.143 265.498 166.472C266.482 166.472 267.467 166.472 268.123 166.801C269.108 167.13 270.092 166.801 270.749 167.13C271.733 167.13 272.718 167.788 273.374 168.446C273.703 168.775 273.703 169.104 274.031 169.433C274.031 169.762 274.359 170.091 274.687 170.091C274.687 171.078 274.687 172.065 274.687 173.052L274.359 173.381C274.031 174.368 273.374 175.026 272.39 175.684C271.733 176.013 271.077 176.013 271.077 176.671C270.421 176.671 269.436 176.671 268.78 176.671C268.78 176.342 268.451 176.342 268.123 176.342C265.826 176.342 263.528 176.342 261.231 176.013C260.575 176.013 259.918 176.013 259.262 175.684C258.277 175.355 257.293 175.355 256.636 175.355C251.057 175.355 245.806 175.355 240.226 175.355C229.724 175.355 219.221 175.355 209.047 175.355C208.391 175.355 207.406 175.355 206.75 175.355C205.765 175.684 204.453 175.684 203.468 175.684C201.171 175.684 198.873 175.684 196.576 176.013C196.248 176.013 195.919 176.013 195.591 176.013L195.263 176.342C157.52 177 121.418 177 85.6445 177Z" fill="#281F1E"/>
<path d="M252.698 9.54093C251.057 9.21193 249.416 8.88293 247.775 8.55394C245.806 8.22494 243.508 8.22494 241.539 7.89595C240.226 7.89595 238.585 7.56695 237.272 7.56695C236.616 7.56695 235.96 7.23795 235.303 7.23795C234.647 7.23795 233.99 7.23795 233.334 6.90896H233.006C231.365 6.90896 229.724 6.90896 228.411 6.57996C226.77 6.25096 225.129 6.57996 223.816 6.25096H223.488C220.862 6.25096 217.909 5.92197 215.283 5.92197C213.97 5.92197 212.986 5.59297 211.673 5.59297C210.36 5.59297 209.376 5.59297 208.063 5.26398C206.75 5.26398 205.437 5.26398 203.796 5.26398C202.483 5.26398 201.171 5.26398 199.858 4.93498C199.201 4.93498 198.545 4.93498 197.56 4.93498C193.294 4.93498 188.699 4.93498 184.432 4.93498C179.838 4.60598 174.915 4.93498 170.32 4.60598C167.038 4.27699 163.756 4.60598 160.474 4.27699C159.489 4.27699 158.176 4.27699 157.192 4.60598C156.535 4.60598 155.879 4.60598 155.223 4.60598C153.91 4.60598 152.597 4.60598 151.284 4.60598C149.643 4.93498 147.674 4.60598 146.033 4.93498C142.095 5.26398 137.828 5.26398 133.89 5.26398C125.028 5.26398 116.495 5.26398 107.634 5.26398C106.649 5.26398 105.665 5.26398 104.68 4.93498C104.024 4.93498 103.695 4.93498 103.039 4.93498C99.1006 4.93498 94.8341 4.93498 90.8957 4.93498C89.9111 4.93498 89.2547 4.93498 88.2701 4.60598C87.9419 4.60598 87.6137 4.60598 87.2855 4.60598C85.6445 4.60598 84.0035 4.60598 82.3625 4.27699C80.3933 3.94799 78.4241 3.94799 76.4549 3.94799C73.1729 3.61899 69.8909 3.61899 66.6089 3.61899C63.6552 3.61899 61.0296 3.61899 58.0758 3.29C55.4502 2.961 52.4964 2.961 49.8708 2.961C47.2452 2.961 44.2914 2.961 41.6658 2.961C41.3376 2.961 41.0094 2.961 41.0094 2.961C38.3838 3.29 36.0864 2.961 33.4608 3.29C32.4762 3.29 31.8198 3.29 30.8352 2.961C30.1789 2.961 29.1943 2.961 28.5379 2.63201C28.2097 2.63201 27.5533 2.63201 27.2251 2.63201C26.8969 2.63201 26.8969 2.30301 26.5687 2.30301C25.2559 1.97401 25.2559 1.64502 25.5841 1.31602C25.5841 1.31602 25.9123 0.987024 26.2405 1.31602C26.8969 1.64502 27.5533 1.64502 28.2097 1.64502C28.8661 1.64502 29.8507 1.64502 30.5071 1.97401C30.8353 1.97401 31.1634 1.97401 31.4916 1.97401C34.1172 1.97401 36.7428 1.97401 39.0402 1.97401C39.6966 1.97401 40.353 1.97401 41.3376 1.64502C41.6658 1.64502 41.994 1.64502 41.994 1.64502C45.9324 1.64502 49.5426 1.64502 53.481 1.64502C56.4348 1.97401 59.3886 1.64502 62.3424 1.97401C64.9679 2.30301 67.5935 1.97401 70.2191 2.30301C70.8755 2.30301 71.5319 2.30301 72.1883 2.63201C73.1729 2.63201 73.8293 2.63201 74.8139 2.63201C76.7831 2.63201 78.7523 2.63201 81.0497 2.961C82.6907 3.29 84.3317 3.29 85.6445 3.29C86.3009 3.29 87.2855 3.29 88.2701 3.29C91.2239 3.29 94.1777 3.29 97.4596 3.29C98.1161 3.29 98.4443 3.29 99.1006 3.29C100.413 3.29 101.398 3.29 102.711 3.29C103.695 3.29 104.68 3.29 105.336 3.29C116.823 3.29 128.639 3.29 140.126 3.29C141.438 3.29 142.751 3.29 144.392 3.29C145.705 3.29 147.018 2.961 148.33 2.961C149.643 3.29 150.956 3.29 152.597 3.29C160.146 2.961 167.694 3.29 174.915 3.29C178.525 3.29 182.135 3.29 185.417 3.29C188.699 3.29 192.309 3.29 195.591 3.29C196.576 3.29 197.232 3.29 198.217 3.61899C200.514 3.61899 202.812 3.61899 205.109 3.61899C205.765 3.61899 206.75 3.61899 207.406 3.94799C208.391 3.94799 209.704 3.94799 210.688 3.94799C212.658 3.94799 214.955 4.27699 216.924 4.27699C218.565 4.60598 219.878 4.60598 221.519 4.60598C222.503 4.60598 223.16 4.93498 224.144 4.93498C224.801 4.93498 225.785 4.93498 226.442 5.26398H226.77C228.411 5.26398 230.052 5.26398 231.365 5.59297C232.678 5.92197 234.319 5.92197 235.631 5.92197C237.272 6.25096 238.585 6.25096 239.898 6.57996C241.211 6.57996 242.524 6.90896 243.836 7.23795C244.821 7.23795 245.806 7.23795 246.79 7.56695C247.775 7.89595 249.088 7.89595 250.072 7.89595C250.729 7.89595 251.385 8.22494 252.041 8.22494C252.37 8.22494 252.37 8.22494 252.698 8.55394C253.354 8.55394 253.354 8.88294 252.698 9.54093Z" fill="#281F1E"/>
</svg>
