<svg width="116" height="74" viewBox="0 0 116 74" fill="none" xmlns="http://www.w3.org/2000/svg">
<path d="M8.12988 63.8217C8.12988 63.8217 7.99267 63.8217 8.12988 63.8217C7.58103 63.5466 7.3066 62.9964 7.3066 62.4462C7.3066 62.3087 7.3066 62.1711 7.3066 62.0336C7.03217 61.2083 7.16939 60.383 7.03217 59.5577C7.03217 59.1451 7.03217 58.7325 6.89496 58.4574C6.75775 58.1823 6.89496 57.9072 6.89496 57.6321C6.89496 56.6693 6.89496 55.7064 6.75775 54.6061C6.75775 54.0559 6.75775 53.6432 6.62053 53.093C6.48332 52.818 6.62053 52.5429 6.62053 52.1302C6.48332 48.1414 6.48332 44.015 6.62053 40.0261C6.62053 39.3384 6.62053 38.5131 6.62053 37.8254C6.62053 37.5503 6.62053 37.4127 6.62053 37.1377C6.48332 36.0373 6.48332 35.7622 6.62053 34.7994C6.62053 34.6618 6.62053 34.5243 6.62053 34.3867C6.62053 33.2864 6.75775 32.186 6.75775 31.0856C6.75775 30.5354 6.75775 30.1228 6.89496 29.5726C7.03217 29.16 7.03217 28.7473 7.03217 28.3347C7.03217 27.922 7.03217 27.5094 7.16939 27.0968C7.3066 26.6841 7.3066 26.2715 7.3066 25.9964C7.3066 25.7213 7.44381 25.4462 7.58103 25.1711C7.58103 25.0336 7.71824 25.0336 7.71824 25.0336C7.99267 24.896 8.26709 24.7585 8.54152 24.7585C8.81594 24.7585 9.22758 24.7585 9.50201 24.7585C9.91365 24.7585 10.3253 24.7585 10.5997 24.6209C10.7369 24.6209 11.0114 24.6209 11.2858 24.6209C12.1091 24.6209 12.7951 24.6209 13.6184 24.6209C14.03 24.6209 14.4417 24.6209 14.7161 24.4834C15.1278 24.3458 15.5394 24.3458 15.8138 24.3458C16.3627 24.3458 17.0487 24.3458 17.5976 24.2083C17.7348 24.2083 18.0092 24.2083 18.2837 24.2083C19.5186 24.2083 20.8907 24.2083 22.1256 24.0707C22.4 24.0707 22.5373 24.0707 22.8117 24.0707C23.4978 23.9332 24.321 23.9332 25.0071 23.9332C30.6328 23.7956 36.2586 23.7956 42.0215 23.9332C42.296 23.9332 42.4332 23.9332 42.7076 23.9332C43.3937 24.0707 44.2169 24.0707 44.903 24.0707C50.1171 24.0707 55.3312 24.0707 60.5453 24.0707C60.9569 24.0707 61.3686 24.0707 61.643 23.9332C61.9174 23.7956 62.1919 23.9332 62.6035 23.9332C64.2501 23.9332 65.7594 23.9332 67.406 23.7956C67.6804 23.7956 68.092 23.7956 68.3665 23.6581C68.6409 23.6581 68.9153 23.6581 69.1897 23.6581C70.2874 23.6581 71.3851 23.6581 72.3456 23.5206C72.6201 23.5206 72.8945 23.5206 73.1689 23.383C73.4433 23.383 73.7178 23.383 73.9922 23.2455C74.9527 23.2455 75.9132 23.2455 76.8737 23.1079C77.2853 23.1079 77.8342 23.1079 78.2458 22.9704C78.5202 22.8328 78.7947 22.9704 79.0691 22.9704C80.304 22.9704 81.6761 22.9704 82.911 22.8328C83.3227 22.8328 83.7343 22.8328 84.146 22.6953C84.2832 22.6953 84.5576 22.6953 84.832 22.6953C85.7925 22.6953 86.6158 22.6953 87.5763 22.6953C88.2624 22.6953 89.0856 22.6953 89.7717 22.5577C89.9089 22.5577 90.1833 22.5577 90.4578 22.5577C91.2811 22.5577 92.1043 22.5577 93.0648 22.4202C93.3392 22.4202 93.7509 22.4202 94.0253 22.2826C94.2997 22.1451 94.5742 22.2826 94.8486 22.2826C96.3579 22.2826 97.8673 22.2826 99.5138 22.1451C99.7883 22.1451 100.2 22.1451 100.474 22.0075C100.612 22.0075 100.886 22.0075 101.16 22.0075C104.316 22.0075 107.472 21.87 110.628 22.0075C111.451 22.0075 112.275 22.1451 113.235 22.2826C113.372 22.2826 113.372 22.4202 113.51 22.4202C113.784 22.8328 113.921 23.2455 114.196 23.6581C114.47 24.4834 114.744 25.3087 115.019 26.1339C115.019 26.409 115.293 26.5466 115.156 26.8217C115.156 26.9592 115.019 27.0968 114.882 27.0968C114.333 27.0968 113.784 27.0968 113.235 27.0968C112.824 26.9592 112.412 26.9592 112.137 26.9592C111.863 26.9592 111.451 26.9592 111.177 26.9592C111.04 26.9592 110.765 26.9592 110.628 26.9592C109.942 27.0968 109.393 27.0968 108.707 27.0968C108.021 27.0968 107.472 27.3719 106.923 27.6469C106.375 27.922 105.963 28.4722 105.826 29.0224C105.688 29.5726 105.414 30.1228 105.551 30.673C105.551 31.0856 105.551 31.4983 105.551 31.9109C105.551 32.0484 105.551 32.3235 105.551 32.4611C105.414 33.1488 105.414 33.8365 105.414 34.5243C105.414 35.7622 105.414 36.8626 105.414 38.1005C105.414 38.5131 105.414 38.9258 105.551 39.3384C105.688 39.6135 105.551 39.8886 105.551 40.3012C105.551 41.264 105.551 42.2269 105.551 43.3272C105.551 43.8774 105.688 44.2901 105.826 44.8403C106.1 45.6655 106.649 46.2157 107.335 46.4908C107.747 46.6284 108.158 46.9035 108.707 46.9035C109.119 46.9035 109.53 47.1786 109.942 47.1786C110.354 47.1786 110.765 47.1786 111.177 47.1786C111.726 47.1786 112.137 47.1786 112.686 47.1786C113.098 47.1786 113.51 47.1786 113.921 47.3161C114.058 47.3161 114.196 47.3161 114.47 47.3161C115.431 47.3161 115.431 47.4536 115.431 48.2789C115.431 48.8291 115.431 49.2418 115.431 49.7919C115.431 49.9295 115.431 50.067 115.431 50.2046C115.156 51.58 115.293 52.818 115.156 54.1934C115.156 54.4685 115.156 54.6061 115.156 54.8812C115.156 55.4313 115.156 56.1191 115.019 56.6693C114.882 56.9444 115.019 57.2194 115.019 57.4945C115.019 58.0447 115.019 58.7325 114.744 59.2826C114.607 59.6953 114.745 60.1079 114.607 60.383C114.607 60.6581 114.47 60.9332 114.333 61.0708C114.196 61.2083 114.058 61.3458 113.921 61.3458C113.098 61.4834 112.137 61.6209 111.314 61.6209C110.765 61.6209 110.216 61.6209 109.668 61.7585C109.53 61.7585 109.393 61.7585 109.119 61.7585C107.884 61.7585 106.649 61.7585 105.414 61.7585C105.14 61.7585 105.002 61.7585 104.728 61.7585C104.316 61.7585 103.905 61.4834 103.767 61.0708C103.493 60.6581 103.356 60.2455 103.219 59.8328C102.944 59.1451 102.67 58.4574 102.258 57.9072C102.121 57.7696 101.984 57.6321 101.846 57.4945C101.298 57.0819 100.749 56.9444 100.063 56.8068C99.7883 56.8068 99.5138 56.6693 99.2394 56.8068C98.5533 56.9444 97.8673 57.2194 97.3184 57.6321C96.9068 57.9072 96.4951 58.4574 96.3579 59.0076C96.3579 59.4202 96.0835 59.9704 96.0835 60.383C96.0835 60.6581 95.9463 60.9332 95.8091 61.2083C95.5347 61.6209 95.2602 61.896 94.7114 61.896C94.2997 61.896 93.7509 61.896 93.3392 62.0336C93.202 62.0336 92.9276 62.0336 92.6532 62.0336C91.8299 62.0336 91.0066 62.0336 90.0461 62.0336C89.6345 62.0336 89.3601 61.896 89.0856 61.7585C88.674 61.6209 88.3996 61.2083 88.3996 60.7957C88.3996 60.5206 88.3996 60.2455 88.3996 59.9704C88.3996 59.4202 88.3996 58.87 88.3996 58.4574C88.2624 57.9072 88.2624 57.4945 88.1251 56.9444C88.1251 56.8068 88.1252 56.8068 87.9879 56.6693C87.5763 55.9815 87.1647 55.7064 86.3414 55.5689C86.0669 55.5689 85.9297 55.5689 85.6553 55.5689C84.832 55.7064 84.146 55.9815 83.3227 56.3942C82.3622 56.9444 81.6761 57.6321 81.2645 58.5949C81.1273 59.0075 80.9901 59.4202 80.9901 59.8328C80.9901 59.9704 80.9901 60.1079 80.9901 60.383C80.9901 61.0708 80.4412 61.6209 79.7551 61.6209C79.3435 61.6209 78.7947 61.6209 78.383 61.7585C78.1086 61.896 77.8342 61.7585 77.5597 61.896C77.2853 61.896 77.0109 61.896 76.7365 62.0336C76.0504 62.3087 75.5015 62.1711 74.8155 62.1711C73.3061 62.1711 71.7968 62.1711 70.2874 62.1711C69.8758 62.1711 69.4642 62.1711 69.1897 62.3087C68.9153 62.4462 68.5037 62.3087 68.2292 62.3087C64.1128 62.3087 59.9964 62.3087 55.8801 62.4462C55.3312 62.4462 54.7824 62.4462 54.2335 62.5838C53.9591 62.7213 53.6846 62.5838 53.4102 62.5838C52.4497 62.5838 51.4892 62.5838 50.5287 62.5838C49.9799 62.5838 49.2938 62.5838 48.745 62.4462C48.4706 62.3087 48.0589 62.3087 47.7845 62.4462C46.9612 62.4462 46.1379 62.3087 45.1774 62.1711C44.903 62.1711 44.4914 61.896 44.2169 61.7585C43.8053 61.4834 43.6681 61.0707 43.5309 60.5206C43.5309 60.1079 43.2564 59.5577 43.2564 59.1451C43.1192 58.3198 42.7076 57.4945 42.296 56.8068C42.296 56.6693 42.1587 56.6693 42.1587 56.6693C42.0215 56.5317 41.7471 56.2566 41.4727 56.2566C41.3355 56.2566 41.1982 56.1191 40.9238 56.2566C40.7866 56.2566 40.5122 56.3942 40.2378 56.3942C39.9633 56.3942 39.6889 56.5317 39.4145 56.6693C39.0028 56.9444 38.454 57.2194 38.0423 57.6321C37.6307 58.0447 37.3563 58.4574 37.0819 58.87C36.8074 59.4202 36.533 60.1079 36.1214 60.6581C35.9841 61.0707 35.5725 61.4834 35.2981 61.7585C34.8864 62.1711 34.4748 62.3087 33.926 62.4462C33.5143 62.4462 33.1027 62.4462 32.691 62.5838C31.5933 62.8589 30.6328 62.7213 29.5351 62.7213C29.1235 62.7213 28.8491 62.5838 28.5746 62.4462C28.3002 62.3087 28.163 62.1711 28.163 61.896C28.0258 61.2083 27.8886 60.6581 27.8886 59.9704C27.8886 59.2826 27.6141 58.7325 27.6141 58.0447C27.3397 57.4945 27.2025 56.9444 26.7909 56.3942C26.6537 56.2566 26.5164 56.1191 26.3792 55.9815C26.1048 55.7064 25.8304 55.5689 25.556 55.4313C25.4187 55.4313 25.2815 55.2938 25.1443 55.2938C24.5955 55.1562 24.0466 55.1562 23.4978 55.2938C23.0861 55.2938 22.6745 55.4313 22.2628 55.5689C21.8512 55.7064 21.5768 55.9815 21.1651 56.2566C20.8907 56.3942 20.7535 56.5317 20.6163 56.8068C19.793 57.6321 19.5186 57.9072 19.2441 59.4202C19.1069 59.9704 18.9697 60.5206 18.9697 61.0708C18.9697 61.3458 18.8325 61.6209 18.8325 61.7585C18.8325 62.0336 18.6953 62.3087 18.5581 62.5838C17.7348 62.9964 17.3232 63.2715 16.7743 63.2715C16.3627 63.2715 15.8138 63.2715 15.4022 63.2715C14.8533 63.2715 14.3045 63.2715 13.7556 63.409C13.4812 63.5466 13.0696 63.409 12.7951 63.409C11.9718 63.409 11.1486 63.409 10.1881 63.409C10.0509 63.409 9.91365 63.409 9.91365 63.5466C9.22758 63.8217 8.67873 63.8217 8.12988 63.8217ZM64.3873 48.1414C64.7989 47.8663 64.9361 47.4536 64.9361 47.041C64.9361 46.6284 64.9361 46.2157 64.9361 45.8031C64.9361 44.4276 64.9361 42.9146 64.9361 41.5391C64.9361 41.2641 64.9361 40.989 65.0733 40.7139C65.2106 40.3012 65.2106 39.8886 65.2106 39.6135C65.2106 39.0633 65.2106 38.3756 65.2106 37.8254C65.2106 37.5503 65.2106 37.4127 65.2106 37.1377C65.3478 36.5875 65.3478 36.1748 65.3478 35.7622C65.3478 35.3496 65.3478 34.7994 65.3478 34.3867C65.6222 33.699 65.485 33.0113 65.6222 32.186C65.6222 31.9109 65.6222 31.6358 65.7594 31.3607C65.8966 30.673 65.8966 30.1228 65.8966 29.4351L65.7594 29.2975C65.485 29.2975 65.3478 29.2975 65.0733 29.2975C63.2896 29.2975 61.5058 29.2975 59.722 29.2975C59.4476 29.2975 59.1732 29.2975 58.8987 29.2975C58.4871 28.8849 58.0755 28.8849 57.6638 28.8849C54.6451 28.7473 51.7637 28.8849 48.745 28.8849C48.3333 28.8849 48.0589 29.0224 47.6473 29.16C47.5101 29.5726 47.5101 29.9852 47.5101 30.5354C47.5101 33.699 47.5101 37.0001 47.5101 40.1637C47.5101 40.989 47.5101 41.8142 47.5101 42.7771C47.5101 43.1897 47.3728 43.6023 47.3728 44.015C47.3728 45.3904 47.3728 46.7659 47.3728 48.1414C47.3728 48.4165 47.6473 48.554 47.9217 48.6916C48.0589 48.6916 48.1961 48.6916 48.3333 48.6916C50.8032 48.8291 53.4102 48.8291 55.8801 48.6916C56.1545 48.6916 56.2917 48.6916 56.5661 48.6916C56.9778 48.554 57.5266 48.554 57.9383 48.554C58.8987 48.554 59.722 48.554 60.6825 48.554C60.9569 48.554 61.2314 48.554 61.5058 48.554C62.0546 48.4165 62.6035 48.4165 63.1524 48.4165C63.2896 48.1414 63.8384 48.2789 64.3873 48.1414ZM74.8155 48.1414C76.1876 48.1414 77.5597 48.1414 78.9319 48.1414C79.4807 48.1414 79.8924 48.1414 80.4412 48.1414C80.9901 48.1414 81.4017 48.1414 81.9506 48.0038C82.4994 47.8663 82.911 47.8663 83.4599 47.8663C83.5971 47.8663 83.5971 47.8663 83.7343 47.8663C83.8715 47.8663 84.0088 47.7287 84.0088 47.5912C84.146 47.3161 84.2832 47.1785 84.2832 46.9035C84.4204 46.3533 84.4204 45.9406 84.5576 45.3904C84.6948 44.7027 84.832 44.1525 84.832 43.4648C85.1065 42.9146 84.9692 42.2269 85.1065 41.6767C85.1065 41.5391 85.1065 41.2641 85.1065 41.1265C85.3809 40.4388 85.2437 39.8886 85.2437 39.2009C85.2437 38.238 85.2437 37.1377 85.2437 36.1748C85.2437 34.2492 85.2437 32.3235 85.2437 30.3979C85.2437 30.1228 85.2437 29.7101 85.3809 29.4351C85.3809 29.2975 85.3809 29.16 85.2437 28.8849C85.1065 28.4722 84.832 28.1971 84.4204 28.1971C84.146 28.1971 83.8715 28.0596 83.5971 28.0596C81.5389 28.0596 79.6179 28.0596 77.5597 28.0596C77.2853 28.0596 77.1481 28.0596 76.8737 28.0596C76.1876 28.3347 75.3643 28.1971 74.6783 28.1971C74.4038 28.1971 73.9922 28.1971 73.7178 28.3347C73.3061 28.4722 72.8945 28.4722 72.4828 28.4722C72.2084 28.4722 71.934 28.4722 71.5224 28.4722C70.8363 28.6098 70.2874 28.6098 69.6014 28.6098C69.3269 28.6098 69.1897 28.6098 68.9153 28.7473C68.5037 28.8849 68.3665 29.0224 68.3665 29.4351C68.3665 29.7101 68.3665 30.1228 68.3665 30.3979C68.2292 31.4983 68.3665 32.5986 68.2292 33.5614C68.2292 33.699 68.2292 33.8365 68.2292 33.9741C68.2292 35.212 68.2292 36.5875 68.2292 37.8254C68.2292 38.5131 68.2292 39.2009 68.092 39.8886C68.092 40.0261 68.092 40.3012 68.092 40.5763C68.092 41.1265 68.092 41.6767 68.092 42.2269C68.092 42.502 68.092 42.6395 68.092 42.9146C67.9548 43.3272 67.9548 43.7399 67.9548 44.1525C67.9548 44.8403 67.9548 45.528 67.9548 46.2157C67.9548 46.6284 67.9548 47.041 67.8176 47.3161V47.4536C67.8176 47.5912 68.092 47.8663 68.092 47.8663C68.3665 47.8663 68.6409 48.0038 68.9153 48.0038C70.8363 48.1414 72.7573 48.1414 74.8155 48.1414ZM99.5138 42.0893C99.5138 39.8886 99.5138 38.1005 99.5138 36.3124C99.5138 36.0373 99.5138 35.7622 99.5138 35.4871C99.3766 34.7994 99.3766 34.1116 99.3766 33.4239C99.3766 32.3235 99.3766 31.0856 99.2394 29.9852C99.2394 29.5726 99.1022 29.16 98.965 28.8849C98.8278 28.6098 98.5534 28.3347 98.1417 28.3347C97.8673 28.3347 97.4556 28.1971 97.1812 28.1971C96.9068 28.1971 96.6324 28.0596 96.3579 28.1971C95.6719 28.3347 95.123 28.3347 94.437 28.3347C94.2997 28.3347 94.0253 28.3347 93.8881 28.3347C93.4765 28.4722 93.0648 28.4722 92.6532 28.6098C92.2415 28.7473 91.8299 28.7473 91.4183 28.8849C91.2811 28.8849 91.0066 29.0224 90.8694 29.16C90.7322 29.16 90.7322 29.2975 90.7322 29.4351C90.7322 29.5726 90.7322 29.7101 90.7322 29.8477C90.8694 30.2603 91.0066 30.8105 91.0066 31.2232C91.0066 31.6358 91.0066 32.0484 91.0066 32.4611C91.0066 32.7362 91.0066 32.8737 91.0066 33.1488C91.1438 33.4239 91.1438 33.8365 91.1438 34.1116C91.1438 34.6618 91.1438 35.0745 91.1438 35.6246C91.1438 39.3384 91.1438 43.0522 91.1438 46.7659C91.1438 47.041 91.1438 47.3161 91.1438 47.5912C91.0066 48.1414 91.0066 48.554 91.0066 49.1042C91.0066 50.067 91.0066 51.0299 90.8694 52.1302C90.8694 52.4053 90.8694 52.6804 90.8694 52.9555C90.8694 53.2306 91.1438 53.5057 91.4183 53.5057C91.9671 53.5057 92.6532 53.5057 93.202 53.3681C93.3393 53.3681 93.4765 53.2306 93.7509 53.2306C94.1625 53.2306 94.7114 53.0931 95.123 52.9555C95.8091 52.9555 96.4951 52.6804 97.1812 52.6804C97.5929 52.6804 97.8673 52.5429 98.2789 52.4053C98.4161 52.4053 98.5533 52.2678 98.5533 52.1302C98.8278 51.7176 99.1022 51.3049 99.1022 50.8923C99.2394 50.2046 99.5138 49.5168 99.3766 48.8291C99.3766 48.6916 99.3766 48.4165 99.3766 48.2789C99.5138 47.7287 99.5138 47.3161 99.5138 46.7659C99.5138 45.1154 99.5138 43.4648 99.5138 42.0893ZM45.0402 31.4983C45.0402 30.673 45.0402 29.9852 45.0402 29.16C45.0402 29.0224 44.903 28.8849 44.903 28.8849C44.6286 28.7473 44.4914 28.6098 44.2169 28.6098C43.8053 28.6098 43.2564 28.6098 42.8448 28.4722C42.296 28.3347 41.8843 28.3347 41.3355 28.3347C39.6889 28.3347 37.9051 28.3347 36.2586 28.1971C35.8469 28.1971 35.4353 28.1971 35.1609 28.1971C34.8864 28.0596 34.4748 28.0596 34.2004 28.0596C33.7887 28.0596 33.3771 28.0596 33.1027 28.0596C32.691 28.0596 32.2794 28.0596 32.005 28.0596C31.5933 28.0596 31.1817 28.0596 30.9073 28.0596C30.4956 28.0596 30.084 28.0596 29.8096 28.0596C29.3979 28.0596 28.9863 28.0596 28.7119 28.0596H28.5746C28.4374 28.0596 28.163 28.3347 28.163 28.4722C28.163 28.6098 28.163 28.7473 28.163 29.0224C28.163 30.3979 28.163 31.9109 28.163 33.2864C28.163 33.699 28.163 34.1116 28.0258 34.5243C27.8886 35.3496 27.8886 36.0373 28.0258 36.8626C28.163 37.4127 28.163 37.8254 28.163 38.3756C28.163 39.2009 28.163 40.0261 28.163 40.8514C28.163 41.4016 28.163 42.0893 28.0258 42.6395C28.0258 42.7771 28.0258 42.9146 28.0258 43.0522C28.0258 44.5652 28.0258 46.0782 28.0258 47.5912C28.0258 47.7287 28.0258 47.8663 28.0258 48.0038C28.0258 48.1414 28.163 48.2789 28.3002 48.4165C28.5746 48.554 28.7119 48.6916 28.9863 48.6916C29.2607 48.6916 29.3979 48.6916 29.6723 48.8291C30.084 48.9667 30.6328 48.9667 31.0445 48.9667C32.005 48.9667 32.8282 48.9667 33.7887 48.9667C34.2004 48.9667 34.612 49.1042 35.0237 49.1042C35.4353 49.1042 35.9841 48.9667 36.3958 48.9667C37.3563 48.9667 38.3168 48.9667 39.4145 48.9667C39.9633 48.9667 40.6494 48.9667 41.1982 48.8291C41.3355 48.8291 41.4727 48.8291 41.7471 48.8291C42.1587 48.8291 42.5704 48.8291 42.8448 48.8291C44.2169 48.8291 44.3542 48.2789 44.7658 47.3161V47.1786C44.903 46.3533 45.1774 45.528 45.0402 44.7027C45.0402 44.4276 45.0402 44.015 45.0402 43.7399C45.1774 43.3272 45.1774 42.9146 45.1774 42.502C45.1774 41.6767 45.1774 40.8514 45.3146 40.0261C45.3146 39.751 45.3146 39.6135 45.3146 39.3384C45.4519 38.9258 45.4519 38.3756 45.4519 37.9629C45.4519 37.1377 45.4519 36.3124 45.4519 35.3496C45.4519 35.0745 45.4519 34.7994 45.5891 34.5243C45.7263 34.2492 45.7263 33.8365 45.7263 33.5614C45.0402 32.7362 45.0402 32.186 45.0402 31.4983ZM25.2815 35.8997C25.2815 35.4871 25.2815 35.0745 25.2815 34.6618C25.2815 33.2864 25.2815 31.7733 25.2815 30.3979C25.2815 29.8477 25.1443 29.4351 25.0071 28.8849C25.0071 28.6098 24.7327 28.4722 24.5955 28.4722C23.9094 28.1971 23.0861 28.0596 22.4 28.3347C22.1256 28.4722 21.714 28.4722 21.4396 28.4722C20.7535 28.4722 19.9302 28.4722 19.2441 28.4722C17.872 28.4722 16.4999 28.4722 15.1277 28.4722C14.5789 28.4722 13.8928 28.4722 13.344 28.4722C12.7951 28.4722 12.1091 28.7473 11.5602 28.7473C11.1486 28.7473 10.8741 29.16 10.8741 29.5726V29.7101C10.8741 30.1228 10.8741 30.5354 11.0114 30.9481C11.1486 31.3607 11.0114 31.7733 11.0114 32.186C11.0114 34.1116 11.0114 36.0373 11.1486 37.9629C11.1486 38.238 11.1486 38.5131 11.2858 38.7882C11.423 39.2009 11.423 39.6135 11.423 39.8886C11.423 40.3012 11.423 40.8514 11.423 41.2641C11.423 43.4648 11.423 45.6655 11.423 48.0038C11.423 48.2789 11.423 48.554 11.423 48.9667C11.423 49.3793 11.9718 49.9295 12.3835 50.067C12.6579 50.067 12.7951 50.067 13.0696 50.067C14.1673 50.067 15.265 50.067 16.3627 49.9295C16.4999 49.9295 16.7743 49.9295 16.9115 49.7919C17.1859 49.6544 17.5976 49.6544 17.872 49.6544C18.1464 49.6544 18.5581 49.6544 18.8325 49.5168C18.9697 49.5168 19.1069 49.3793 19.3814 49.3793C19.9302 49.3793 20.3419 49.2418 20.8907 49.1042C21.4396 48.9667 21.9884 48.9667 22.5373 48.8291C22.9489 48.6916 23.4978 48.554 23.9094 48.2789C24.1838 48.1414 24.4582 47.8663 24.4582 47.5912C24.5955 47.4536 24.5955 47.1786 24.7327 47.041C25.0071 46.4908 24.8699 45.8031 25.1443 45.2529C25.1443 45.1154 25.2815 44.8403 25.2815 44.5652C25.2815 44.015 25.2815 43.4648 25.2815 42.9146C25.2815 42.6395 25.2815 42.3644 25.2815 42.0893C25.4187 41.6767 25.4187 41.2641 25.4187 40.8514C25.2815 39.3384 25.2815 37.6878 25.2815 35.8997Z" fill="#FFD583"/>
<path d="M21.9884 63.8216C21.9884 63.6841 21.8512 63.6841 21.714 63.5465C21.0279 63.2714 20.4791 62.7212 20.0674 62.1711C19.793 61.4833 19.5186 60.7956 19.793 60.1079C19.9302 59.5577 20.2046 59.145 20.4791 58.7324C20.7535 58.3198 21.1651 57.9071 21.5768 57.632C21.8512 57.3569 22.2628 57.3569 22.6745 57.3569C22.9489 57.3569 23.2233 57.3569 23.635 57.3569C23.9094 57.3569 24.0466 57.3569 24.321 57.4945C24.8699 57.632 25.1443 58.0447 25.556 58.4573C25.8304 58.8699 26.1048 59.2826 26.242 59.8328C26.242 59.9703 26.242 60.1079 26.242 60.2454C26.1048 60.7956 25.9676 61.3458 25.8304 61.896C25.556 62.4462 25.1443 62.9963 24.5955 63.409C24.4583 63.5465 24.1838 63.6841 24.0466 63.6841C23.9094 63.6841 23.7722 63.8216 23.7722 63.9592C22.9489 63.8216 22.5373 63.8216 21.9884 63.8216Z" fill="#281F1E"/>
<path d="M59.8593 2.47584C59.5848 2.33829 59.4476 2.33829 59.1732 2.47584C58.7616 2.61338 58.4871 2.61338 58.0755 2.75093C57.8011 2.75093 57.3894 2.88848 57.115 3.02602C56.5661 3.16357 56.0173 3.30112 55.3312 3.43866C54.7824 3.57621 54.3707 3.8513 53.9591 4.12639C53.8219 4.26394 53.5475 4.40149 53.273 4.53903C52.9986 4.67658 52.587 4.67658 52.3125 4.26394C52.1753 4.12639 52.1753 3.98885 52.1753 3.8513C52.4497 3.30112 52.7242 3.02602 52.9986 2.75093C53.5475 2.33829 54.0963 1.92565 54.7824 1.7881C55.7429 1.51301 56.7034 1.23792 57.6638 0.962825C58.2127 0.825279 58.6243 0.687732 59.1732 0.687732C59.9965 0.412639 60.8197 0.412639 61.643 0.412639C61.7802 0.412639 62.0547 0.412639 62.1919 0.412639C63.0152 0.137546 63.9757 0.275093 64.9361 0.137546C65.3478 0.137546 65.8966 0.137546 66.3083 0C66.4455 0 66.7199 0 66.9943 0C68.3665 0 69.6014 0 70.9735 0C71.3852 0 71.7968 0 72.2084 0.137546C72.3457 0.137546 72.4829 0.137546 72.7573 0.275093C73.7178 0.275093 74.5411 0.825279 75.2271 1.51301C75.3643 1.65056 75.6388 1.92565 75.776 2.0632C76.0504 2.33829 76.0504 2.75093 76.0504 3.16357C76.0504 3.43866 75.776 3.57621 75.5016 3.71376C75.0899 3.8513 74.8155 3.71375 74.5411 3.43866C74.5411 3.43866 74.5411 3.43866 74.4039 3.30112C73.855 2.33829 72.8945 2.0632 71.934 1.92565C71.248 1.92565 70.6991 1.92565 70.013 1.92565C69.8758 1.92565 69.8758 1.92565 69.8758 2.0632C69.8758 2.20074 69.8758 2.20074 70.013 2.33829C70.2875 2.61338 70.5619 2.75093 70.6991 3.02602C71.1107 3.43866 71.5224 3.8513 71.934 4.26394C72.4829 4.95167 73.0317 5.63941 73.3062 6.60223C73.4434 6.87732 73.4434 7.15242 73.4434 7.42751C73.4434 8.25279 73.4434 8.94052 73.4434 9.7658C73.3062 10.316 73.1689 10.8662 73.0317 11.4164C72.6201 12.9294 72.0712 14.3048 71.3852 15.5428C71.248 15.8178 71.1107 16.0929 70.9735 16.5056C70.8363 16.7807 70.9735 16.9182 71.248 16.9182C71.6596 16.9182 72.2084 16.7807 72.6201 16.7807C73.0317 16.7807 73.5806 16.7807 73.9922 16.7807C75.2271 16.7807 76.4621 16.7807 77.697 16.7807C78.1086 16.7807 78.5203 16.7807 78.9319 16.6431C79.2063 16.5056 79.4807 16.6431 79.7552 16.6431C81.4017 16.6431 83.0483 16.6431 84.8321 16.5056C85.2437 16.5056 85.6553 16.5056 85.9298 16.368C86.2042 16.2305 86.4786 16.368 86.753 16.368C91.1439 16.2305 95.5347 16.2305 99.7883 16.368C99.9255 16.368 100.2 16.368 100.337 16.368C101.16 16.6431 101.984 16.5056 102.807 16.5056C103.63 16.5056 104.454 16.6431 105.277 16.7807C106.1 16.9182 106.786 17.1933 107.609 17.4684C108.57 17.881 109.53 18.4312 110.354 19.2565C110.765 19.6691 111.314 20.2193 111.726 20.632C112.137 21.0446 112.412 21.4573 112.686 21.8699C112.686 21.8699 112.686 22.0074 112.686 22.145H112.549C112.137 22.145 111.726 22.145 111.314 22.145C110.765 21.8699 110.217 22.0074 109.668 22.0074C107.609 22.0074 105.551 22.0074 103.493 22.0074C103.356 22.0074 103.219 22.0074 103.081 22.0074C102.395 22.145 101.846 22.145 101.16 22.145C99.6511 22.145 98.1417 22.145 96.6324 22.2825C96.0835 22.2825 95.6719 22.2825 95.123 22.4201C94.9858 22.4201 94.7114 22.4201 94.437 22.4201C93.6137 22.4201 92.7904 22.4201 91.8299 22.4201C91.2811 22.4201 90.7322 22.4201 90.1834 22.5576C90.0462 22.5576 89.7717 22.5576 89.4973 22.5576C88.5368 22.5576 87.5763 22.5576 86.4786 22.6952C86.067 22.6952 85.6553 22.6952 85.2437 22.8327C85.1065 22.8327 84.8321 22.8327 84.5576 22.8327C83.4599 22.8327 82.3622 22.8327 81.4017 22.8327C80.7157 22.8327 80.1668 22.8327 79.4807 22.9703C79.3435 22.9703 79.0691 22.9703 78.7947 22.9703C77.5598 22.9703 76.4621 22.9703 75.2271 23.1078C74.9527 23.1078 74.8155 23.1078 74.5411 23.1078C73.9922 23.2454 73.3062 23.2454 72.7573 23.2454C71.934 23.2454 71.1107 23.2454 70.2875 23.2454C70.013 23.2454 69.6014 23.2454 69.327 23.3829C69.0525 23.3829 68.7781 23.3829 68.5037 23.3829C67.1316 23.3829 65.7594 23.3829 64.3873 23.5204C64.1129 23.5204 63.7012 23.5204 63.4268 23.658C63.1524 23.7955 62.8779 23.658 62.6035 23.7955C61.2314 23.7955 59.9965 23.7955 58.6243 23.7955C52.9986 23.7955 47.3729 23.7955 41.6099 23.7955C41.3355 23.7955 40.9238 23.7955 40.6494 23.658C40.375 23.658 40.1006 23.658 39.8261 23.658C36.1214 23.658 32.4166 23.658 28.7119 23.658C28.163 23.658 27.6142 23.658 27.0653 23.658C26.6537 23.658 26.1048 23.658 25.6932 23.7955C25.4188 23.9331 25.0071 23.7955 24.7327 23.7955C23.0861 23.7955 21.4396 23.7955 19.793 23.9331C19.3814 23.9331 18.9697 23.9331 18.5581 24.0706C18.4209 24.2082 18.1465 24.0706 17.872 24.0706C17.4604 24.0706 16.9115 24.0706 16.4999 24.0706C16.0883 24.0706 15.6766 24.0706 15.265 24.2082C14.9905 24.3457 14.7161 24.2082 14.4417 24.3457C13.8928 24.3457 13.344 24.3457 12.7951 24.4833C11.9719 24.6208 11.0114 24.6208 10.0509 24.6208C9.63923 24.6208 9.22759 24.6208 8.81596 24.7584C8.67874 24.8959 8.40432 24.7584 8.12989 24.7584L7.99268 24.6208C7.99268 24.3457 7.99268 24.2082 7.99268 23.9331C8.12989 23.5204 8.40432 23.1078 8.54153 22.8327C8.81595 22.4201 8.95317 22.0074 9.22759 21.5948C9.50202 21.0446 9.77645 20.4944 10.1881 20.0818C10.1881 19.9442 10.3253 19.9442 10.3253 19.9442C11.423 18.7063 12.7951 17.7435 14.4417 17.4684C15.5394 17.1933 15.5394 17.1933 16.6371 17.1933C17.3232 17.1933 17.872 17.1933 18.5581 16.9182C18.6953 16.9182 18.8325 16.9182 19.1069 16.9182C19.3814 16.9182 19.6558 16.9182 19.9302 16.9182C20.0674 16.5056 20.8907 16.5056 21.714 16.5056C22.8117 16.5056 24.0466 16.5056 25.1443 16.5056C25.8304 16.5056 26.3792 16.5056 27.0653 16.368C27.3397 16.368 27.6142 16.368 27.8886 16.368C31.3189 16.368 34.612 16.368 38.0424 16.368C39.1401 16.368 40.2378 16.368 41.3355 16.368C42.0215 16.368 42.8448 16.368 43.5309 16.5056C43.6681 16.5056 43.9425 16.5056 44.217 16.5056C45.0402 16.5056 45.8635 16.5056 46.824 16.6431C47.2356 16.6431 47.6473 16.6431 48.0589 16.7807C48.3334 16.9182 48.6078 16.7807 49.0194 16.7807C51.352 16.7807 53.8219 16.7807 56.1545 16.7807C56.9778 16.7807 57.8011 16.7807 58.6243 16.7807C58.7616 16.7807 59.036 16.7807 59.1732 16.6431C59.1732 16.5056 58.8988 16.368 58.7616 16.368C57.5266 15.5428 56.1545 14.7175 54.7824 13.8922C53.9591 13.4796 53.273 12.7918 52.7242 12.1041C52.4497 11.829 52.3125 11.5539 52.1753 11.2788C52.0381 11.1413 52.0381 10.8662 52.0381 10.7286C52.0381 10.5911 52.0381 10.4535 52.0381 10.316C51.9009 9.35316 52.3125 8.52788 52.9986 7.7026C53.9591 6.60223 55.0568 5.63941 56.2917 4.81413C56.7034 4.53903 57.115 4.26394 57.5266 3.98885C58.2127 3.57621 58.8988 3.16357 59.4476 2.61338C59.4476 2.47584 59.722 2.47584 59.8593 2.47584ZM71.5224 8.11524C71.5224 7.42751 71.3852 6.73978 70.9735 6.18959C70.6991 5.63941 70.4247 5.22677 70.013 4.81413C69.4642 4.12639 68.7781 3.57621 68.092 3.16357C67.9548 3.02602 67.6804 3.02602 67.5432 3.16357C66.5827 3.8513 65.6222 4.53903 64.6617 5.36431C64.5245 5.36431 64.5245 5.63941 64.6617 5.77695C64.7989 5.9145 64.9361 6.18959 64.9361 6.32714C65.0734 6.60223 65.3478 6.87732 65.3478 7.28996C65.485 8.11524 65.485 8.94052 65.2106 9.90335C65.0734 10.5911 64.9361 11.2788 64.6617 11.829C64.6617 11.9665 64.6617 12.2416 64.7989 12.2416C65.0734 12.3792 65.3478 12.5167 65.485 12.5167C66.7199 13.2045 67.8176 13.8922 68.7781 14.855C68.7781 14.855 68.7781 14.855 68.9153 14.9926C69.0525 15.1301 69.1898 14.9926 69.327 14.855C69.7386 14.0297 70.1502 13.0669 70.4247 12.1041C70.6991 11.1413 71.1107 10.1784 71.248 9.21561C71.5224 8.94052 71.5224 8.52788 71.5224 8.11524ZM62.1919 12.9294C62.1919 12.7918 62.0547 12.6543 61.9175 12.5167C61.5058 12.3792 61.2314 12.1041 60.8198 11.829C60.4081 11.5539 60.1337 11.2788 59.722 10.8662C59.3104 10.4535 59.1732 9.90335 59.1732 9.35316C59.1732 9.21561 59.1732 9.21561 59.1732 9.07807C59.1732 8.39034 59.3104 7.84015 59.722 7.42751C59.9965 7.15242 60.1337 6.87732 60.4081 6.73978C60.8198 6.32714 61.0942 6.05204 61.5058 5.63941C61.643 5.63941 61.7802 5.50186 61.9175 5.50186C62.0547 5.36431 62.0547 5.08922 61.9175 4.95167C61.5058 4.67658 61.2314 4.40149 60.8198 3.98885C60.5453 3.8513 60.4081 3.8513 60.2709 3.98885C59.8593 4.40149 59.3104 4.81413 58.8988 5.08922C58.2127 5.50186 57.5266 6.05204 56.9778 6.46468C56.1545 7.01487 55.4684 7.7026 54.7824 8.39034C54.3707 8.80297 54.0963 9.21561 53.8219 9.7658C53.6847 10.0409 53.6847 10.316 53.8219 10.4535C53.9591 10.7286 54.0963 11.0037 54.3707 11.1413C54.6452 11.2788 54.7824 11.5539 55.0568 11.6915C55.6056 12.2416 56.2917 12.5167 56.9778 12.9294C58.2127 13.7546 59.4476 14.4424 60.6825 15.2677C60.8197 15.4052 61.0942 15.2677 61.0942 15.1301C61.5058 14.5799 61.9175 13.7546 62.1919 12.9294ZM63.9757 13.7546C63.7012 13.7546 63.564 14.0297 63.564 14.1673C63.1524 14.855 62.7407 15.6803 62.1919 16.368V16.5056C62.1919 16.6431 62.1919 16.6431 62.3291 16.7807C62.4663 16.7807 62.6035 16.9182 62.8779 16.9182C63.9757 16.9182 65.2106 16.9182 66.3083 16.9182C66.7199 16.9182 67.2688 16.9182 67.6804 16.9182C67.8176 16.9182 68.092 16.9182 68.2293 16.7807C68.2293 16.5056 67.9548 16.368 67.8176 16.2305C67.5432 15.9554 67.2688 15.8178 66.9943 15.5428C66.7199 15.2677 66.3083 14.9926 66.0339 14.7175C65.3478 14.3048 64.6617 14.0297 63.9757 13.7546ZM62.8779 11.1413C63.1524 11.0037 63.1524 10.8662 63.1524 10.7286C63.4268 10.0409 63.564 9.49071 63.564 8.80297C63.564 8.25279 63.564 7.84015 63.564 7.28996C63.564 7.01487 63.4268 6.87732 63.2896 6.73978C63.1524 6.73978 63.1524 6.60223 63.0152 6.73978C62.3291 7.28996 61.643 7.84015 61.0942 8.52788C60.957 8.66543 60.957 8.80297 60.8198 8.94052C60.6825 9.07807 60.8198 9.21561 60.8198 9.49071C60.957 9.7658 61.0942 10.0409 61.3686 10.1784C61.9175 10.5911 62.4663 10.8662 62.8779 11.1413ZM63.4268 3.98885C63.564 3.98885 63.7012 3.8513 63.8384 3.8513C64.6617 3.30112 65.485 2.61338 66.3083 2.0632L66.4455 1.92565H66.3083C65.6222 1.92565 64.7989 1.92565 64.1129 2.0632C63.9757 2.0632 63.7012 2.0632 63.4268 2.0632C62.8779 2.0632 62.4663 2.0632 61.9175 2.0632C61.7802 2.0632 61.643 2.0632 61.5058 2.20074C61.5058 2.20074 61.5058 2.20074 61.5058 2.33829V2.47584C62.1919 2.88848 62.8779 3.43866 63.4268 3.98885Z" fill="#281F1E"/>
<path d="M115.293 36.8625C115.293 38.1004 115.293 39.6134 115.293 40.9889C115.293 41.264 115.293 41.6766 115.156 41.9517C115.156 42.2268 115.156 42.5019 115.019 42.777C115.019 43.6023 115.019 44.4275 114.882 45.3904C114.882 45.803 114.745 46.3532 114.607 46.7658L114.47 46.9034C113.784 46.9034 112.961 46.9034 112.275 46.7658C112 46.6283 111.589 46.6283 111.314 46.6283C110.491 46.6283 109.668 46.6283 108.844 46.6283C108.021 46.6283 107.335 46.3532 106.649 46.0781C106.1 45.9405 105.826 45.5279 105.551 44.9777C105.414 44.5651 105.14 44.1524 105.14 43.6023C105.14 43.3272 105.14 42.9145 105.14 42.6394C105.14 42.5019 105.14 42.2268 105.14 42.0893C104.865 41.1264 105.002 40.1636 105.002 39.2008C105.002 37 105.002 34.7993 105.002 32.461C105.002 32.0484 105.002 31.6357 105.14 31.2231C105.277 30.948 105.277 30.6729 105.277 30.3978C105.277 29.7101 105.551 29.2974 105.826 28.7472C105.963 28.6097 106.1 28.4722 106.237 28.4722C106.512 28.3346 106.786 28.1971 107.061 28.0595C107.198 27.922 107.472 27.922 107.609 27.922C108.158 27.922 108.57 27.922 109.119 27.7844C109.256 27.7844 109.256 27.7844 109.393 27.7844C110.628 27.7844 112 27.7844 113.235 27.7844C113.647 27.7844 114.058 27.922 114.47 28.0595C114.607 28.0595 114.607 28.1971 114.607 28.1971C114.607 28.3346 114.607 28.3346 114.607 28.4722C114.607 28.8848 114.607 29.2974 114.745 29.7101C114.882 29.8476 114.745 30.1227 114.882 30.3978C114.882 30.948 114.882 31.3606 115.019 31.9108C115.156 32.1859 115.019 32.5985 115.019 32.8736C115.293 34.1116 115.293 35.487 115.293 36.8625Z" fill="#281F1E"/>
<path d="M39.0028 63.1339C38.7284 63.1339 38.5912 63.1339 38.3168 63.1339C38.1796 63.1339 38.0423 63.1339 37.9051 62.9963C37.2191 62.5837 36.8074 62.171 36.533 61.3457C36.533 61.2082 36.3958 60.9331 36.533 60.658C36.6702 59.6952 36.9446 58.8699 37.7679 58.3197C38.0423 58.0446 38.454 57.9071 38.8656 57.9071C39.0028 57.9071 39.2773 57.9071 39.4145 57.7695C40.2378 57.4944 40.7866 57.7695 41.3355 58.3197C41.7471 58.7324 41.8843 59.145 42.0215 59.6952C42.0215 59.9703 42.0215 60.2454 42.0215 60.5205C41.8843 61.2082 41.6099 61.7584 41.1982 62.171C41.061 62.3086 41.061 62.3086 40.9238 62.4461C40.7866 62.5837 40.5122 62.7212 40.375 62.7212C39.8261 63.1339 39.4145 63.1339 39.0028 63.1339Z" fill="#281F1E"/>
<path d="M81.2645 60.6581C81.1273 59.8328 81.4017 59.2826 81.8133 58.7325C82.0878 58.3198 82.3622 58.0447 82.7738 57.9072C82.911 57.9072 82.911 57.7696 83.0483 57.7696C83.4599 57.7696 83.8715 57.6321 84.2832 57.7696C84.9692 57.9072 85.5181 58.3198 85.9297 58.87C86.067 59.0075 86.067 59.2826 86.2042 59.4202C86.2042 59.5577 86.2042 59.6953 86.2042 59.8328C86.067 60.9332 85.6553 61.7585 84.6948 62.3087C84.5576 62.3087 84.4204 62.4462 84.2832 62.4462C84.0088 62.4462 83.7343 62.5838 83.5971 62.5838C83.4599 62.5838 83.4599 62.5838 83.3227 62.5838C82.7738 62.4462 82.3622 62.3087 81.9505 62.0336C81.6761 61.7585 81.4017 61.3458 81.4017 60.9332C81.2645 60.9332 81.2645 60.7956 81.2645 60.6581Z" fill="#281F1E"/>
<path d="M101.16 60.7956C101.16 61.4833 101.16 62.0335 100.749 62.4461C100.474 62.8588 100.063 63.2714 99.6511 63.409C99.3767 63.5465 99.1022 63.5465 98.965 63.5465C98.8278 63.5465 98.8278 63.5465 98.6906 63.5465C97.7301 63.409 97.044 62.8588 96.6324 62.0335C96.6324 61.896 96.4952 61.7584 96.4952 61.6209C96.4952 61.3458 96.4952 61.0707 96.4952 60.7956C96.4952 59.9703 97.1812 58.8699 98.279 58.5948C98.4162 58.5948 98.5534 58.5948 98.8278 58.5948C99.1022 58.5948 99.2394 58.7324 99.3767 58.7324C100.2 58.7324 100.612 59.2826 101.023 59.8328C101.16 59.9703 101.16 60.1079 101.16 60.2454C101.16 60.383 101.16 60.658 101.16 60.7956Z" fill="#281F1E"/>
<path d="M56.4289 35.212C59.036 35.212 61.5058 35.212 64.1129 35.212C64.2501 35.212 64.3873 35.212 64.6617 35.212C64.7989 35.212 64.9362 35.3496 64.9362 35.4871C64.9362 36.3124 64.9361 37.1377 64.7989 37.9629C64.7989 38.238 64.7989 38.5131 64.7989 38.7882C64.7989 39.3384 64.7989 39.751 64.7989 40.3012C64.7989 40.5763 64.7989 40.7139 64.7989 40.989C64.5245 41.6767 64.6617 42.502 64.6617 43.1897C64.6617 44.1525 64.6617 45.1154 64.6617 46.0782C64.6617 46.4908 64.6617 46.9035 64.6617 47.3161C64.6617 47.5912 64.5245 47.8663 63.9757 48.0038C63.564 48.0038 63.1524 48.0038 62.878 48.0038C61.5058 48.0038 59.9965 48.0038 58.6243 48.0038C58.0755 48.0038 57.5266 48.0038 56.9778 48.1414C56.8406 48.1414 56.7034 48.1414 56.4289 48.1414C53.8219 48.2789 51.0776 48.2789 48.4706 48.1414C48.3334 48.1414 48.1961 48.1414 48.0589 48.1414C47.9217 48.1414 47.7845 48.0038 47.7845 47.8663C47.7845 47.5912 47.7845 47.4536 47.7845 47.1786C47.7845 45.528 47.7845 43.8774 47.9217 42.2269C47.9217 41.8142 47.9217 41.4016 48.0589 40.989C48.1961 40.7139 48.0589 40.4388 48.0589 40.1637C48.0589 38.9258 48.0589 37.5503 48.0589 36.3124C48.0589 36.0373 48.0589 35.8997 48.0589 35.6246C48.0589 35.3496 48.1961 35.0745 48.4706 35.0745C48.8822 35.0745 49.2938 35.0745 49.7055 35.0745C50.666 35.0745 51.6265 35.0745 52.587 35.0745C53.8219 35.212 55.0568 35.212 56.4289 35.212Z" fill="#281F1E"/>
<path d="M56.7034 34.7993C54.6452 34.7993 52.587 34.7993 50.5288 34.7993C50.1171 34.7993 49.7055 34.7993 49.4311 34.7993C49.0194 34.7993 48.6078 34.7993 48.3334 34.9369C48.1961 34.9369 48.0589 34.7993 48.0589 34.6618C48.0589 34.5242 48.0589 34.5242 48.0589 34.3867C48.0589 32.8737 48.0589 31.3607 48.0589 29.7101C48.0589 29.5726 48.0589 29.5726 48.0589 29.435C48.0589 29.2975 48.1961 29.2975 48.1961 29.2975C48.3334 29.2975 48.4706 29.2975 48.745 29.2975C51.7637 29.2975 54.9196 29.1599 57.9383 29.2975C58.6243 29.2975 59.4476 29.2975 60.1337 29.435C60.2709 29.435 60.4081 29.435 60.5453 29.435C61.9175 29.435 63.1524 29.435 64.5245 29.435C64.7989 29.435 65.0734 29.2975 65.3478 29.2975L65.485 29.435C65.485 29.5726 65.485 29.5726 65.485 29.7101C65.485 30.5354 65.485 31.3607 65.2106 32.3235C65.2106 32.7361 65.2106 33.2863 65.0734 33.6989C65.0734 33.974 65.0734 34.2491 64.9361 34.5242L64.7989 34.6618C64.5245 34.6618 64.3873 34.6618 64.1129 34.6618C61.643 34.7993 59.1732 34.7993 56.7034 34.7993Z" fill="#281F1E"/>
<path d="M77.0109 35.7622C79.2063 35.7622 81.4017 35.7622 83.5971 35.7622C84.0088 35.7622 84.4204 35.7622 84.6949 35.7622C84.8321 35.7622 84.9693 36.0373 85.1065 36.1748C85.2437 36.5875 85.2437 37.0001 85.1065 37.4128C84.9693 37.8254 84.9693 38.238 84.9693 38.5131C84.9693 39.2009 84.9693 39.7511 84.9693 40.4388C84.9693 40.7139 84.9693 41.1265 84.8321 41.4016C84.8321 41.5392 84.8321 41.5392 84.8321 41.6767C84.8321 42.502 84.6949 43.1897 84.5576 44.015C84.4204 44.2901 84.5576 44.7027 84.4204 44.9778C84.2832 45.2529 84.2832 45.6656 84.2832 45.9406C84.146 46.2157 84.146 46.6284 84.0088 46.9035C84.0088 47.041 83.8716 47.1786 83.7344 47.1786C83.0483 47.3161 82.4994 47.4537 81.8134 47.4537C80.0296 47.4537 78.1086 47.4537 76.3248 47.4537C74.1294 47.4537 72.0712 47.4537 69.8758 47.4537C69.4642 47.4537 69.0526 47.4537 68.7781 47.4537C68.5037 47.4537 68.3665 47.3161 68.3665 47.041C68.3665 46.7659 68.3665 46.3533 68.5037 46.0782C68.6409 45.6656 68.6409 45.2529 68.6409 44.9778C68.6409 44.4276 68.6409 43.7399 68.6409 43.1897C68.6409 42.7771 68.6409 42.3644 68.7781 42.0893C68.7781 41.9518 68.7781 41.6767 68.9153 41.4016C68.9153 40.8514 68.9153 40.4388 68.9153 39.8886C68.9153 39.6135 68.9153 39.476 68.9153 39.2009C69.1898 38.238 69.0526 37.2752 69.0526 36.3124C69.0526 36.1748 69.0526 36.0373 69.0526 35.8998L69.1898 35.7622C69.4642 35.7622 69.7386 35.7622 70.013 35.7622C72.3457 35.7622 74.6783 35.7622 77.0109 35.7622Z" fill="#281F1E"/>
<path d="M80.7157 28.4721C81.8134 28.4721 83.0483 28.4721 84.2832 28.4721C84.5576 28.4721 84.8321 28.7472 84.9693 29.0223C85.1065 29.7101 85.2437 30.2602 85.2437 30.948C85.2437 32.0483 85.2437 33.2863 85.2437 34.3866C85.2437 34.6617 85.2437 34.7993 85.2437 35.0744C85.2437 35.2119 84.9693 35.487 84.8321 35.487C84.4204 35.3495 83.8716 35.3495 83.4599 35.3495C79.2063 35.3495 74.8155 35.3495 70.5619 35.3495C70.2875 35.3495 69.8758 35.3495 69.6014 35.3495C69.4642 35.3495 69.327 35.2119 69.327 35.0744C69.327 34.9368 69.327 34.7993 69.327 34.5242C69.327 33.6989 69.327 33.0112 69.327 32.1859C69.327 31.6357 69.327 31.2231 69.4642 30.6729C69.4642 30.5353 69.4642 30.5353 69.4642 30.3978C69.4642 30.1227 69.327 29.7101 69.6014 29.435C69.8758 29.1599 70.1503 29.2974 70.4247 29.1599C70.6991 29.0223 70.9735 29.0223 71.248 29.0223C71.7968 29.0223 72.3457 29.0223 72.8945 28.8848C73.7178 28.6097 74.5411 28.7472 75.5016 28.6097C75.776 28.6097 76.1876 28.6097 76.4621 28.4721C76.7365 28.3346 77.0109 28.4721 77.2853 28.3346C78.2458 28.6097 79.3435 28.6097 80.7157 28.4721Z" fill="#281F1E"/>
<path d="M99.1022 40.7137C99.1022 42.7769 99.1022 44.8401 99.1022 46.9033C99.1022 47.591 99.1022 48.2787 98.8278 48.9665C98.6906 49.2416 98.8278 49.5167 98.6906 49.7917C98.6906 50.3419 98.4162 50.8921 98.279 51.4423C98.279 51.5799 98.1417 51.7174 98.0045 51.8549C97.8673 52.13 97.5929 52.2676 97.3185 52.2676C96.9068 52.2676 96.4952 52.2676 96.2207 52.4051C96.0835 52.5427 95.8091 52.2676 95.8091 52.13C95.8091 51.9925 95.8091 51.8549 95.8091 51.5798C95.8091 50.617 95.8091 49.5167 95.6719 48.5538C95.6719 48.2787 95.6719 47.8661 95.5347 47.591C95.5347 47.3159 95.5347 47.0408 95.5347 46.7657C95.5347 45.1152 95.5347 43.6022 95.3975 41.9516C95.3975 41.6765 95.3975 41.4014 95.2603 41.1263C95.2603 40.8512 95.2603 40.5761 95.123 40.301C95.123 39.4758 95.123 38.6505 94.9858 37.8252C94.9858 37.4126 94.9858 36.9999 94.8486 36.5873C94.7114 36.3122 94.8486 36.0371 94.8486 35.762C94.8486 34.9367 94.8486 34.249 94.8486 33.4237C94.8486 33.0111 94.8486 32.5984 94.7114 32.1858C94.7114 32.0483 94.7114 31.7732 94.7114 31.4981C94.7114 31.223 94.7114 30.8103 94.7114 30.5352C94.7114 30.1226 94.7114 29.71 94.5742 29.2973C94.437 28.8847 94.5742 28.7471 94.9858 28.6096C95.123 28.6096 95.2603 28.472 95.5347 28.472C96.0835 28.472 96.4952 28.472 97.044 28.472C97.4557 28.472 97.8673 28.6096 98.1417 28.6096C98.5534 28.7471 98.6906 29.0222 98.8278 29.4349C98.8278 29.5724 98.8278 29.71 98.8278 29.9851C98.8278 30.5352 98.8278 31.0854 98.8278 31.6356C98.8278 32.0483 98.8278 32.5984 98.965 33.0111C99.1022 33.2862 98.965 33.5613 98.965 33.8364C98.965 35.2118 98.965 36.5873 98.965 37.9628C99.1022 38.9256 99.1022 39.8884 99.1022 40.7137Z" fill="#281F1E"/>
<path d="M91.1439 52.4052C91.1439 52.2677 91.1439 52.1301 91.1439 51.9926C91.2811 51.5799 91.2811 51.0297 91.2811 50.6171C91.2811 49.6543 91.2811 48.5539 91.2811 47.5911C91.2811 47.1784 91.2811 46.7658 91.4183 46.3532C91.5555 46.0781 91.4183 45.803 91.4183 45.5279C91.4183 42.6394 91.4183 39.7509 91.4183 36.8625C91.4183 36.4498 91.4183 36.0372 91.2811 35.7621C91.1439 35.487 91.2811 35.2119 91.2811 34.7993C91.2811 33.8364 91.2811 32.8736 91.2811 31.9108C91.2811 31.4982 91.2811 31.0855 91.1439 30.8104C91.0067 30.3978 91.0067 29.9851 91.0067 29.71C91.0067 29.5725 91.1439 29.435 91.2811 29.435C91.6927 29.2974 92.1044 29.1599 92.516 29.1599C92.9277 29.1599 93.2021 29.0223 93.6137 28.8848C93.6137 28.8848 93.7509 28.8848 93.8881 29.0223C94.0254 29.1599 94.0254 29.2974 94.0254 29.2974C94.0254 29.5725 94.0254 29.8476 94.1626 30.2602C94.1626 30.6729 94.1626 31.2231 94.2998 31.6357C94.2998 31.7732 94.2998 32.0483 94.2998 32.3234C94.2998 32.7361 94.2998 33.2863 94.2998 33.6989C94.2998 33.974 94.2998 34.1115 94.2998 34.3866C94.5742 35.487 94.437 36.7249 94.437 37.8253C94.437 38.2379 94.437 38.7881 94.437 39.2008C94.437 39.3383 94.437 39.6134 94.437 39.7509C94.7114 40.3011 94.5742 40.9889 94.5742 41.539C94.5742 42.5019 94.5742 43.4647 94.5742 44.4275C94.5742 44.8402 94.5742 45.2528 94.7114 45.5279C94.8486 45.803 94.7114 46.0781 94.7114 46.3532C94.7114 47.5911 94.7114 48.829 94.7114 50.0669C94.7114 50.7547 94.7114 51.3048 94.8486 51.9926C94.8486 52.1301 94.8486 52.2677 94.8486 52.4052C94.8486 52.5428 94.7114 52.6803 94.5742 52.6803C94.437 52.6803 94.2998 52.8179 94.1626 52.8179C93.7509 52.9554 93.2021 52.9554 92.7904 53.0929C92.3788 53.2305 91.9672 53.2305 91.5555 53.2305C91.2811 53.2305 91.0067 53.2305 90.8695 53.0929C90.7322 53.0929 90.7322 52.9554 90.595 52.8179C91.1439 52.6803 91.1439 52.5428 91.1439 52.4052Z" fill="#281F1E"/>
<path d="M27.8886 41.4016C27.8886 39.6135 27.8886 37.8254 27.8886 36.0373C27.8886 35.7622 27.8886 35.4871 27.8886 35.212C27.8886 35.0744 28.0258 34.9369 28.163 34.9369C28.3002 34.9369 28.3002 34.9369 28.4374 34.9369C30.2212 34.9369 32.005 34.9369 33.7887 34.9369C34.0632 34.9369 34.3376 34.9369 34.612 35.0744C35.0237 35.212 35.5725 35.212 35.9842 35.0744C36.2586 34.9369 36.533 34.9369 36.8074 34.9369C38.8656 34.9369 40.9238 34.9369 42.982 34.9369C43.3937 34.9369 43.8053 34.9369 44.0797 34.9369C44.217 34.9369 44.3542 35.0744 44.3542 35.3495C44.3542 35.4871 44.3542 35.6246 44.3542 35.7622C44.217 36.1748 44.2169 36.4499 44.2169 36.8625C44.2169 37.5503 44.2169 38.1005 44.2169 38.7882C44.2169 39.2008 44.217 39.6135 44.0797 39.8886C44.0797 40.0261 44.0797 40.3012 44.0797 40.5763C44.0797 41.264 44.0797 42.0893 44.0797 42.777C44.0797 43.3272 44.0797 43.8774 43.9425 44.4276C43.9425 44.5651 43.9425 44.7027 43.9425 44.9778C43.9425 45.6655 43.8053 46.3533 43.6681 47.041C43.6681 47.3161 43.3937 47.5912 43.2565 47.8663C43.1192 48.0038 42.982 48.1414 42.8448 48.1414C42.296 48.2789 41.7471 48.1414 41.3355 48.4164C40.7866 48.4164 40.375 48.4164 39.8261 48.4164C39.1401 48.4164 38.454 48.4164 37.7679 48.4164C37.2191 48.4164 36.8074 48.4164 36.2586 48.554C36.1214 48.554 35.9842 48.554 35.7097 48.554C34.3376 48.554 33.1027 48.554 31.7305 48.554C31.5933 48.554 31.3189 48.554 31.1817 48.554C30.6328 48.4164 30.2212 48.4164 29.6724 48.4164C29.1235 48.4164 28.5746 48.1414 28.0258 48.0038L27.8886 47.8663C27.8886 47.7287 27.8886 47.5912 27.8886 47.3161C27.8886 45.6655 27.8886 44.1525 27.8886 42.5019C27.8886 42.2269 27.8886 41.8142 27.8886 41.4016Z" fill="#281F1E"/>
<path d="M32.9655 28.6096C34.3376 28.6096 35.5725 28.6096 36.9446 28.6096C37.3563 28.6096 37.7679 28.6096 38.1796 28.7471C38.3168 28.7471 38.5912 28.7471 38.8656 28.7471C39.8261 28.7471 40.6494 28.7471 41.6099 28.7471C42.5704 28.7471 43.5309 28.8847 44.3542 29.0222C44.4914 29.0222 44.6286 29.1598 44.6286 29.2973C44.6286 29.4349 44.6286 29.4349 44.6286 29.5724C44.6286 31.0854 44.6286 32.5984 44.6286 34.1114C44.6286 34.249 44.6286 34.249 44.6286 34.3865C44.6286 34.5241 44.3542 34.6616 44.2169 34.6616C42.7076 34.3865 41.1983 34.5241 39.6889 34.5241C39.5517 34.5241 39.2773 34.5241 39.1401 34.5241C38.5912 34.6616 37.9051 34.6616 37.3563 34.6616C35.9842 34.6616 34.612 34.6616 33.2399 34.6616C32.8283 34.6616 32.2794 34.6616 31.8678 34.5241C31.5933 34.3865 31.3189 34.5241 31.0445 34.5241C30.2212 34.5241 29.5351 34.5241 28.7119 34.5241C28.5746 34.5241 28.4374 34.5241 28.163 34.5241C28.0258 34.5241 27.8886 34.3865 27.8886 34.249V34.1114C27.8886 32.5984 27.8886 31.0854 27.8886 29.4349C27.8886 29.2973 27.8886 29.1598 27.8886 28.8847C27.8886 28.7471 28.163 28.472 28.3002 28.472C29.9468 28.6096 31.4561 28.6096 32.9655 28.6096Z" fill="#281F1E"/>
<path d="M24.8699 38.9257C24.8699 39.8885 24.8699 40.8514 24.8699 41.8142C24.8699 42.5019 24.8699 43.1897 24.7327 43.8774C24.7327 44.0149 24.7327 44.1525 24.7327 44.4276C24.7327 45.2529 24.5955 46.0781 24.4583 46.9034C24.321 47.4536 24.0466 48.0038 23.635 48.2789C23.4978 48.4164 23.2233 48.554 22.9489 48.554C22.2628 48.6915 21.5768 48.8291 20.8907 48.9666C20.7535 48.9666 20.6163 48.9666 20.3419 48.9666C19.9302 48.9666 19.5186 48.9666 19.2442 49.1042C19.1069 49.2417 18.8325 49.1042 18.5581 49.2417C18.0092 49.2417 17.5976 49.2417 17.0487 49.5168C16.7743 49.6543 16.4999 49.5168 16.2255 49.6543C15.951 49.6543 15.6766 49.6543 15.4022 49.6543C14.5789 49.9294 13.8928 49.7919 13.0696 49.7919C12.7951 49.7919 12.5207 49.6543 12.2463 49.5168C11.9719 49.3792 11.8346 49.1042 11.6974 48.8291C11.6974 48.554 11.6974 48.1413 11.6974 47.8662C11.6974 45.6655 11.6974 43.4647 11.6974 41.264C11.6974 40.8514 11.6974 40.4387 11.5602 40.1636C11.5602 40.0261 11.5602 39.751 11.5602 39.4759C11.5602 38.7882 11.5602 38.238 11.5602 37.5502C11.5602 37.0001 11.5602 36.3123 11.423 35.7621C11.423 35.487 11.5602 35.212 11.8346 35.212C11.9719 35.212 12.1091 35.212 12.3835 35.212C13.344 35.212 14.3045 35.212 15.265 35.212C15.6766 35.212 16.0883 35.212 16.4999 35.0744C16.7743 34.9369 17.186 35.0744 17.4604 35.0744C19.3814 35.0744 21.1651 35.0744 23.0861 35.0744C23.4978 35.0744 24.0466 35.0744 24.4583 34.7993C24.5955 34.7993 24.5955 34.7993 24.7327 34.7993C24.8699 34.7993 25.0071 34.9369 25.0071 35.0744C25.0071 35.212 25.0071 35.3495 25.0071 35.6246C24.8699 36.4499 24.8699 37.6878 24.8699 38.9257Z" fill="#281F1E"/>
<path d="M16.9115 28.8848C18.1465 28.8848 19.5186 28.8848 20.7535 28.8848C21.0279 28.8848 21.3024 28.8848 21.5768 28.7473C22.2629 28.6097 22.9489 28.6097 23.7722 28.6097C24.1838 28.6097 24.5955 29.0224 24.7327 29.5726C24.7327 29.8477 24.7327 30.1228 24.7327 30.5354C24.7327 31.4982 24.7327 32.5986 24.7327 33.5614C24.7327 33.699 24.7327 33.8365 24.7327 33.9741C24.7327 34.1116 24.5955 34.2491 24.4583 34.2491C23.635 34.2491 22.8117 34.3867 21.8512 34.3867C21.1652 34.3867 20.4791 34.3867 19.793 34.5242C19.5186 34.5242 19.2442 34.5242 18.9697 34.5242C17.0488 34.5242 15.265 34.5242 13.344 34.6618C12.7952 34.6618 12.2463 34.6618 11.6974 34.7993C11.5602 34.7993 11.5602 34.7993 11.423 34.7993C11.2858 34.7993 11.0114 34.6618 11.0114 34.5242C11.0114 32.8737 11.0114 31.2231 11.0114 29.5726C11.0114 29.435 11.1486 29.2975 11.2858 29.1599C12.3835 28.8848 13.2068 28.7473 14.1673 28.8848C14.5789 28.8848 15.1278 28.8848 15.5394 28.8848C15.9511 28.8848 16.4999 28.8848 16.9115 28.8848Z" fill="#281F1E"/>
<path d="M35.7097 74L35.5725 73.8625C35.2981 73.8625 34.8864 73.8625 34.612 73.8625C33.2399 73.8625 32.005 73.8625 30.6328 73.8625C30.2212 73.8625 29.6723 73.8624 29.2607 73.7249C28.9863 73.7249 28.7119 73.7249 28.4374 73.7249C27.7514 73.7249 27.0653 73.7249 26.3792 73.7249C25.9676 73.7249 25.556 73.7249 25.1443 73.5874C24.8699 73.4498 24.5955 73.5874 24.321 73.5874C23.7722 73.5874 23.0861 73.5874 22.5373 73.5874C22.1256 73.5874 21.714 73.5874 21.3023 73.4498C21.0279 73.3123 20.6163 73.4498 20.3419 73.3123C18.6953 73.3123 17.0487 73.3123 15.4022 73.1747C14.9905 73.1747 14.5789 73.1747 14.3045 73.0372C14.03 72.8996 13.6184 73.0372 13.344 73.0372C10.1881 73.0372 7.03218 72.8996 4.01348 72.8996C3.32742 72.8996 2.77857 72.8996 2.0925 72.8996C1.81807 72.8996 1.54365 72.7621 1.26922 72.7621C0.583156 72.6245 0.30873 72.0743 0.0343033 71.5242V71.3866C0.0343033 70.974 -0.10291 70.5613 0.171516 70.1487C0.30873 69.736 0.720369 69.3234 1.13201 69.1859C1.54365 69.0483 1.95529 68.9108 2.36693 68.9108C4.28791 68.9108 6.07168 68.9108 7.99267 68.9108C8.67873 68.9108 9.3648 68.9108 10.0509 69.0483C10.3253 69.1859 10.5997 69.0483 11.0114 69.0483C12.7951 69.0483 14.7161 69.0483 16.4999 69.0483C17.1859 69.0483 17.7348 69.0483 18.4209 69.0483C18.5581 69.0483 18.8325 69.0483 18.9697 69.0483C20.0674 69.3234 21.3023 69.1859 22.4001 69.1859C22.6745 69.1859 23.0861 69.1859 23.3605 69.1859C23.4978 69.1859 23.7722 69.1859 23.9094 69.1859C24.7327 69.461 25.556 69.3234 26.3792 69.3234C26.7909 69.3234 27.3397 69.3234 27.7514 69.461C28.0258 69.5985 28.3002 69.461 28.5746 69.461C30.2212 69.461 31.8678 69.461 33.5143 69.5985C33.926 69.5985 34.3376 69.5985 34.7492 69.736C34.8864 69.736 35.1609 69.736 35.4353 69.736C36.1214 69.736 36.6702 69.736 37.3563 69.736C43.5309 69.736 49.5683 69.736 55.7429 69.736C62.3291 69.736 68.9153 69.736 75.5015 69.736C77.1481 69.736 78.7947 69.736 80.4412 69.736C80.9901 69.736 81.4017 69.736 81.9506 69.5985C82.225 69.461 82.4994 69.5985 82.7738 69.5985C84.6948 69.5985 86.6158 69.5985 88.5368 69.461C88.9484 69.461 89.4973 69.461 89.9089 69.3234C90.1834 69.3234 90.4578 69.3234 90.7322 69.3234C94.437 69.3234 98.2789 69.3234 101.984 69.3234C102.258 69.3234 102.395 69.3234 102.67 69.3234C103.219 69.461 103.905 69.461 104.454 69.461C106.649 69.461 108.707 69.461 110.903 69.5985C111.314 69.5985 111.726 69.5985 112 69.736C112.412 69.8736 112.824 69.736 113.098 69.8736C113.51 69.8736 113.921 70.1487 114.196 70.4238C114.333 70.5613 114.333 70.6989 114.47 70.8364C114.47 70.974 114.607 71.1115 114.745 71.1115C114.745 71.5242 114.745 71.9368 114.745 72.3494L114.607 72.487C114.47 72.8996 114.196 73.1747 113.784 73.4498C113.51 73.5874 113.235 73.5874 113.235 73.8625C112.961 73.8625 112.549 73.8625 112.275 73.8625C112.275 73.7249 112.137 73.7249 112 73.7249C111.04 73.7249 110.079 73.7249 109.119 73.5874C108.844 73.5874 108.57 73.5874 108.296 73.4498C107.884 73.3123 107.472 73.3123 107.198 73.3123C104.865 73.3123 102.67 73.3123 100.337 73.3123C95.9463 73.3123 91.5555 73.3123 87.3019 73.3123C87.0275 73.3123 86.6158 73.3123 86.3414 73.3123C85.9297 73.4498 85.3809 73.4498 84.9693 73.4498C84.0088 73.4498 83.0483 73.4498 82.0878 73.5874C81.9506 73.5874 81.8134 73.5874 81.6761 73.5874L81.5389 73.7249C65.7594 74 50.666 74 35.7097 74Z" fill="#281F1E"/>
<path d="M105.551 3.98881C104.865 3.85126 104.179 3.71371 103.493 3.57617C102.67 3.43862 101.709 3.43862 100.886 3.30108C100.337 3.30108 99.651 3.16353 99.1022 3.16353C98.8278 3.16353 98.5533 3.02598 98.2789 3.02598C98.0045 3.02598 97.7301 3.02598 97.4556 2.88844H97.3184C96.6324 2.88844 95.9463 2.88844 95.3974 2.75089C94.7114 2.61334 94.0253 2.75089 93.4764 2.61334H93.3392C92.2415 2.61334 91.0066 2.4758 89.9089 2.4758C89.3601 2.4758 88.9484 2.33825 88.3996 2.33825C87.8507 2.33825 87.4391 2.33825 86.8902 2.2007C86.3414 2.2007 85.7925 2.2007 85.1065 2.2007C84.5576 2.2007 84.0087 2.2007 83.4599 2.06316C83.1855 2.06316 82.911 2.06316 82.4994 2.06316C80.7156 2.06316 78.7946 2.06316 77.0109 2.06316C75.0899 1.92561 73.0317 2.06316 71.1107 1.92561C69.7386 1.78806 68.3664 1.92561 66.9943 1.78806C66.5827 1.78806 66.0338 1.78806 65.6222 1.92561C65.3478 1.92561 65.0733 1.92561 64.7989 1.92561C64.25 1.92561 63.7012 1.92561 63.1523 1.92561C62.4663 2.06316 61.643 1.92561 60.9569 2.06316C59.3104 2.2007 57.5266 2.2007 55.88 2.2007C52.1753 2.2007 48.6077 2.2007 44.903 2.2007C44.4913 2.2007 44.0797 2.2007 43.6681 2.06316C43.3936 2.06316 43.2564 2.06316 42.982 2.06316C41.3354 2.06316 39.5517 2.06316 37.9051 2.06316C37.4935 2.06316 37.2191 2.06316 36.8074 1.92561C36.6702 1.92561 36.533 1.92561 36.3958 1.92561C35.7097 1.92561 35.0236 1.92561 34.3376 1.78806C33.5143 1.65052 32.691 1.65052 31.8677 1.65052C30.4956 1.51297 29.1235 1.51297 27.7513 1.51297C26.5164 1.51297 25.4187 1.51297 24.1838 1.37542C23.0861 1.23788 21.8512 1.23788 20.7535 1.23788C19.6558 1.23788 18.4208 1.23788 17.3231 1.23788C17.1859 1.23788 17.0487 1.23788 17.0487 1.23788C15.951 1.37542 14.9905 1.23788 13.8928 1.37542C13.4812 1.37542 13.2067 1.37542 12.7951 1.23788C12.5207 1.23788 12.109 1.23788 11.8346 1.10033C11.6974 1.10033 11.423 1.10033 11.2858 1.10033C11.1486 1.10033 11.1485 0.962785 11.0113 0.962785C10.4625 0.825238 10.4625 0.687692 10.5997 0.550145C10.5997 0.550145 10.7369 0.412599 10.8741 0.550145C11.1486 0.687692 11.423 0.687692 11.6974 0.687692C11.9718 0.687692 12.3835 0.687692 12.6579 0.825238C12.7951 0.825238 12.9323 0.825238 13.0695 0.825238C14.1672 0.825238 15.2649 0.825238 16.2254 0.825238C16.4999 0.825238 16.7743 0.825238 17.1859 0.687692C17.3231 0.687692 17.4604 0.687692 17.4604 0.687692C19.1069 0.687692 20.6163 0.687692 22.2628 0.687692C23.4977 0.825238 24.7327 0.687692 25.9676 0.825238C27.0653 0.962785 28.163 0.825238 29.2607 0.962785C29.5351 0.962785 29.8095 0.962785 30.084 1.10033C30.4956 1.10033 30.77 1.10033 31.1817 1.10033C32.005 1.10033 32.8282 1.10033 33.7887 1.23788C34.4748 1.37542 35.1609 1.37542 35.7097 1.37542C35.9841 1.37542 36.3958 1.37542 36.8074 1.37542C38.0423 1.37542 39.2773 1.37542 40.6494 1.37542C40.9238 1.37542 41.061 1.37542 41.3354 1.37542C41.8843 1.37542 42.2959 1.37542 42.8448 1.37542C43.2564 1.37542 43.6681 1.37542 43.9425 1.37542C48.745 1.37542 53.6846 1.37542 58.4871 1.37542C59.0359 1.37542 59.5848 1.37542 60.2709 1.37542C60.8197 1.37542 61.3686 1.23788 61.9174 1.23788C62.4663 1.37542 63.0151 1.37542 63.7012 1.37542C66.8571 1.23788 70.013 1.37542 73.0317 1.37542C74.541 1.37542 76.0504 1.37542 77.4225 1.37542C78.7946 1.37542 80.304 1.37542 81.6761 1.37542C82.0878 1.37542 82.3622 1.37542 82.7738 1.51297C83.7343 1.51297 84.6948 1.51297 85.6553 1.51297C85.9297 1.51297 86.3414 1.51297 86.6158 1.65052C87.0274 1.65052 87.5763 1.65052 87.9879 1.65052C88.8112 1.65052 89.7717 1.78806 90.595 1.78806C91.281 1.92561 91.8299 1.92561 92.516 1.92561C92.9276 1.92561 93.202 2.06316 93.6137 2.06316C93.8881 2.06316 94.2997 2.06316 94.5742 2.2007H94.7114C95.3974 2.2007 96.0835 2.2007 96.6324 2.33825C97.1812 2.4758 97.8673 2.4758 98.4161 2.4758C99.1022 2.61334 99.6511 2.61334 100.2 2.75089C100.749 2.75089 101.298 2.88844 101.846 3.02598C102.258 3.02598 102.67 3.02598 103.081 3.16353C103.493 3.30108 104.042 3.30108 104.454 3.30108C104.728 3.30108 105.002 3.43862 105.277 3.43862C105.414 3.43862 105.414 3.43862 105.551 3.57617C105.826 3.57617 105.826 3.71371 105.551 3.98881Z" fill="#281F1E"/>
</svg>
